<?xml version="1.0" standalone="no"?>
<!DOCTYPE svg PUBLIC "-//W3C//DTD SVG 1.1//EN" "http://www.w3.org/Graphics/SVG/1.1/DTD/svg11.dtd" >
<svg xmlns="http://www.w3.org/2000/svg" xmlns:xlink="http://www.w3.org/1999/xlink" version="1.1">
<metadata>
Created by FontForge 20150913 at Wed May  4 15:28:08 2016
 By Jimmy Wärting
Copyright (c) 2012 by Andriy Konstantynov. All rights reserved.
</metadata>
<defs>
<font id="Font-" horiz-adv-x="612" >
  <font-face 
    font-family="Font"
    font-weight="400"
    font-stretch="normal"
    units-per-em="1000"
    panose-1="2 11 0 3 3 2 0 2 0 4"
    ascent="760"
    descent="-240"
    x-height="500"
    cap-height="700"
    bbox="-91 -287 1282 975"
    underline-thickness="50"
    underline-position="-150"
    unicode-range="U+0020-2212"
  />
<missing-glyph horiz-adv-x="236" 
 />
    <glyph glyph-name=".notdef" horiz-adv-x="236" 
 />
    <glyph glyph-name=".null" horiz-adv-x="0" 
 />
    <glyph glyph-name="nonmarkingreturn" horiz-adv-x="333" 
 />
    <glyph glyph-name="space" unicode=" " horiz-adv-x="255" 
 />
    <glyph glyph-name="exclam" unicode="!" horiz-adv-x="238" 
d="M158 213h-78v487h78v-487zM80 0v112h78v-112h-78z" />
    <glyph glyph-name="quotedbl" unicode="&#x22;" horiz-adv-x="428" 
d="M147 434h-56l-11 266h78zM337 434h-56l-11 266h78z" />
    <glyph glyph-name="numbersign" unicode="#" horiz-adv-x="804" 
d="M115 475v63h121l29 162h83l-29 -162h232l29 162h83l-29 -162h113v-63h-124l-44 -250h111v-64h-122l-28 -161h-83l28 161h-232l-28 -161h-83l28 161h-112v64h123l45 250h-111zM308 475l-44 -250h232l45 250h-233z" />
    <glyph glyph-name="dollar" unicode="$" horiz-adv-x="572" 
d="M301 -100h-35v95q-128 3 -218 101l43 44q66 -74 175 -77v257q-39 14 -60 22.5t-53 26t-48.5 35.5t-29.5 46.5t-13 63.5q0 82 57 134.5t147 56.5v95h35v-96q116 -8 198 -100l-42 -45q-64 71 -156 77v-253q104 -38 139 -60q71 -47 71 -124q0 -85 -59 -140t-151 -62v-97z
M429 194q0 40 -33 64.5t-95 47.5v-239q57 7 92.5 41.5t35.5 85.5zM144 518q0 -43 31.5 -70t90.5 -50v236q-56 -4 -89 -36t-33 -80z" />
    <glyph glyph-name="percent" unicode="%" horiz-adv-x="927" 
d="M297 0h-83l418 725h83zM53 562q0 74 46 120t120 46t119.5 -46t45.5 -120t-46 -119.5t-119 -45.5q-74 0 -120 45.5t-46 119.5zM119 562q0 -47 28 -76.5t72 -29.5t72 29.5t28 76.5t-28 77t-72 30t-72 -30t-28 -77zM543 162q0 74 46 120t120 46t119.5 -46t45.5 -120
t-46 -119.5t-119 -45.5q-74 0 -120 46t-46 119zM609 162q0 -47 28 -76.5t72 -29.5t72 29.5t28 76.5t-28 77t-72 30t-72 -30t-28 -77z" />
    <glyph glyph-name="ampersand" unicode="&#x26;" horiz-adv-x="706" 
d="M325 705q72 0 117.5 -41.5t45.5 -109.5q0 -30 -11.5 -56.5t-26 -44t-44 -38t-47.5 -30.5t-55 -29q66 -95 188 -199q58 78 58 193h67q0 -143 -71 -237l98 -72l-48 -50q-41 27 -98 73q-85 -69 -214 -69q-96 0 -157.5 55.5t-61.5 142.5q0 67 36.5 111t100.5 79
q-48 88 -48 159q0 73 47.5 118t123.5 45zM142 193q0 -59 40 -97t102 -38q93 0 160 50q-129 112 -203 214q-48 -28 -73.5 -58t-25.5 -71zM231 542q0 -60 36 -126q38 19 56.5 29.5t42.5 28t34.5 37t10.5 43.5q0 39 -24 63.5t-62 24.5q-41 0 -67.5 -28t-26.5 -72z" />
    <glyph glyph-name="quotesingle" unicode="'" horiz-adv-x="238" 
d="M147 434h-56l-11 266h78z" />
    <glyph glyph-name="parenleft" unicode="(" horiz-adv-x="295" 
d="M73 312q0 133 30 254.5t84 199.5l42 -44q-37 -64 -58 -175t-21 -235q0 -122 21 -233t58 -176l-42 -44q-54 78 -84 199.5t-30 253.5z" />
    <glyph glyph-name="parenright" unicode=")" horiz-adv-x="295" 
d="M222 313q0 -133 -30 -254.5t-84 -199.5l-42 44q37 64 58 175t21 235q0 123 -21.5 233.5t-58.5 175.5l43 44q54 -78 84 -199.5t30 -253.5z" />
    <glyph glyph-name="asterisk" unicode="*" horiz-adv-x="510" 
d="M86 642l144 -83v166h51v-166l143 83l26 -45l-145 -83l145 -82l-26 -45l-143 82v-165h-51v165l-144 -82l-25 45l143 82l-143 83z" />
    <glyph glyph-name="plus" unicode="+" horiz-adv-x="581" 
d="M324 581v-189h187v-64h-187v-188h-67v188h-187v64h187v189h67z" />
    <glyph glyph-name="comma" unicode="," horiz-adv-x="238" 
d="M50 -165l-34 35q31 31 47.5 97t16.5 145h78q0 -82 -31 -156.5t-77 -120.5z" />
    <glyph glyph-name="hyphen" unicode="-" horiz-adv-x="397" 
d="M316 258h-236v64h236v-64z" />
    <glyph glyph-name="period" unicode="." horiz-adv-x="238" 
d="M80 0v112h78v-112h-78z" />
    <glyph glyph-name="slash" unicode="/" horiz-adv-x="359" 
d="M68 -100h-77l300 825h78z" />
    <glyph glyph-name="zero" unicode="0" horiz-adv-x="648" 
d="M53 350q0 159 73.5 257t195.5 98t196 -98t74 -257t-74 -257t-196 -98t-195.5 98t-73.5 257zM133 349q0 -127 52.5 -207.5t136.5 -80.5q86 0 138 80t52 208q0 129 -52 209.5t-138 80.5q-84 0 -136.5 -80.5t-52.5 -209.5z" />
    <glyph glyph-name="one" unicode="1" horiz-adv-x="475" 
d="M48 558l241 142h80v-700h-80v613l-206 -116z" />
    <glyph glyph-name="two" unicode="2" horiz-adv-x="572" 
d="M64 0v66q15 10 39 27.5t86 70t109.5 102t86.5 114t39 115.5q0 64 -39 104t-106 40q-105 0 -176 -77l-43 44q93 99 225 99q95 0 157 -56t62 -146q0 -59 -35 -126t-85 -120t-100 -97.5t-85 -69.5l-35 -24h352v-66h-452z" />
    <glyph glyph-name="three" unicode="3" horiz-adv-x="575" 
d="M287 -5q-144 0 -236 98l45 46q64 -78 186 -78q71 0 115.5 39t44.5 100q0 62 -46.5 101.5t-120.5 39.5h-40v63h42q64 0 103.5 32.5t39.5 84.5q0 53 -37.5 85.5t-98.5 32.5q-117 0 -179 -79l-44 46q88 99 227 99q94 0 153 -48.5t59 -125.5q0 -56 -34 -97.5t-94 -60.5
q70 -20 110 -68.5t40 -113.5q0 -87 -65.5 -141.5t-169.5 -54.5z" />
    <glyph glyph-name="four" unicode="4" horiz-adv-x="686" 
d="M451 0v123h-390v43l378 534h91v-514h87v-63h-87v-123h-79zM161 186h290v401z" />
    <glyph glyph-name="five" unicode="5" horiz-adv-x="570" 
d="M86 355v345h380v-66h-300v-213h115q102 0 165.5 -61.5t63.5 -159.5q0 -92 -65 -148.5t-165 -56.5q-142 0 -238 99l42 43q74 -76 188 -76q73 0 115.5 39.5t42.5 102.5q0 69 -43 110.5t-112 41.5h-189z" />
    <glyph glyph-name="six" unicode="6" horiz-adv-x="599" 
d="M312 639q-75 0 -124.5 -71.5t-54.5 -188.5q63 57 159 57q113 0 184 -61.5t71 -156.5q0 -99 -65 -161t-170 -62q-118 0 -188.5 98t-70.5 257t70.5 257t187.5 98q116 0 191 -73l-43 -44q-54 51 -147 51zM311 61q70 0 113.5 43.5t43.5 113.5q0 66 -50 109t-129 43
q-49 0 -91 -19.5t-65 -54.5q7 -106 56 -170.5t122 -64.5z" />
    <glyph glyph-name="seven" unicode="7" horiz-adv-x="641" 
d="M68 634v66h503v-44l-331 -656h-82l319 634h-409z" />
    <glyph glyph-name="eight" unicode="8" horiz-adv-x="598" 
d="M76 531q0 77 61.5 125.5t161.5 48.5t162 -48.5t62 -125.5q0 -56 -34 -97.5t-94 -60.5q70 -20 110 -68.5t40 -113.5q0 -87 -68.5 -141.5t-177.5 -54.5t-177.5 54.5t-68.5 141.5q0 65 40 113.5t110 68.5q-59 19 -93 61t-34 97zM133 201q0 -62 46 -101t119 -39t120 39
t47 101q0 63 -46.5 102.5t-120.5 39.5q-73 0 -119 -39.5t-46 -102.5zM156 519q0 -52 40 -85t104 -33t103.5 33t39.5 85q0 54 -39.5 87t-103.5 33t-104 -33t-40 -87z" />
    <glyph glyph-name="nine" unicode="9" horiz-adv-x="597" 
d="M273 61q80 0 132.5 69.5t59.5 185.5q-64 -64 -162 -64q-112 0 -181.5 63t-69.5 163q0 101 65 164t169 63q117 0 187.5 -98t70.5 -257t-74 -257t-198 -98t-200 73l43 44q56 -51 158 -51zM288 639q-70 0 -113 -44.5t-43 -116.5q0 -71 48 -115.5t126 -44.5q52 0 94 22.5
t64 62.5q-9 110 -56.5 173t-119.5 63z" />
    <glyph glyph-name="colon" unicode=":" horiz-adv-x="238" 
d="M80 0v112h78v-112h-78zM80 388v112h78v-112h-78z" />
    <glyph glyph-name="semicolon" unicode=";" horiz-adv-x="238" 
d="M50 -165l-34 35q31 31 47.5 97t16.5 145h78q0 -82 -31 -156.5t-77 -120.5zM80 388v112h78v-112h-78z" />
    <glyph glyph-name="less" unicode="&#x3c;" horiz-adv-x="641" 
d="M55 324v54l530 238v-78l-418 -186l418 -187v-79z" />
    <glyph glyph-name="equal" unicode="=" horiz-adv-x="661" 
d="M580 198h-500v64h500v-64zM580 448h-500v63h500v-63z" />
    <glyph glyph-name="greater" unicode="&#x3e;" horiz-adv-x="641" 
d="M585 377v-54l-529 -238v78l418 186l-418 187v79z" />
    <glyph glyph-name="question" unicode="?" horiz-adv-x="520" 
d="M216 0v112h77v-112h-77zM293 214h-77q0 62 18 103.5t43.5 62.5t51 38t43.5 43t18 65q0 49 -36.5 82.5t-100.5 33.5q-97 0 -169 -80l-41 42q91 101 217 101q93 0 150 -48.5t57 -128.5q0 -51 -18 -85.5t-43.5 -54t-51 -38t-43.5 -52.5t-18 -84z" />
    <glyph glyph-name="at" unicode="@" horiz-adv-x="1071" 
d="M849 -64l40 -41q-136 -125 -354 -125q-211 0 -343.5 133.5t-132.5 346.5t132.5 346.5t343.5 133.5q212 0 344.5 -126t132.5 -327q0 -141 -60.5 -211t-141.5 -70q-55 0 -95 34t-40 88q-24 -57 -73 -89.5t-113 -32.5q-88 0 -143 67.5t-55 176.5q0 118 76 191.5t197 73.5
q107 0 180 -35v-304q0 -49 23 -77.5t56 -28.5q44 0 77.5 55.5t33.5 161.5q0 172 -111 281t-288 109q-176 0 -287.5 -116.5t-111.5 -300.5t111.5 -300.5t287.5 -116.5q203 0 314 103zM667 207v216q-51 19 -119 19q-79 0 -129 -56.5t-50 -145.5q0 -81 41.5 -130.5t107.5 -49.5
q64 0 105.5 42t43.5 105z" />
    <glyph glyph-name="A" unicode="A" horiz-adv-x="837" 
d="M377 700h84l325 -700h-81l-90 192h-392l-90 -192h-82zM419 612l-166 -351h332z" />
    <glyph glyph-name="B" unicode="B" horiz-adv-x="620" 
d="M80 0v700h262q79 0 129 -48.5t50 -125.5q0 -53 -24.5 -94t-65.5 -62q58 -16 93 -64.5t35 -115.5q0 -84 -54 -137t-140 -53h-285zM163 69h176q60 0 97.5 36.5t37.5 94.5q0 57 -37.5 94t-97.5 37h-176v-262zM318 631h-155v-232h155q54 0 87 32.5t33 83.5t-33 83.5t-87 32.5
z" />
    <glyph glyph-name="C" unicode="C" horiz-adv-x="727" 
d="M618 146l49 -50q-101 -101 -260 -101q-157 0 -255.5 98.5t-98.5 256.5t98.5 256.5t256.5 98.5t259 -101l-49 -50q-75 83 -207 83q-122 0 -199 -80t-77 -207t77 -207t199 -80q133 0 207 83z" />
    <glyph glyph-name="D" unicode="D" horiz-adv-x="742" 
d="M80 0v700h262q154 0 251 -97.5t97 -252.5t-97 -252.5t-251 -97.5h-262zM607 350q0 124 -74 202.5t-191 78.5h-179v-562h179q117 0 191 78.5t74 202.5z" />
    <glyph glyph-name="E" unicode="E" horiz-adv-x="627" 
d="M80 0v700h476v-69h-393v-239h365v-69h-365v-254h401v-69h-484z" />
    <glyph glyph-name="F" unicode="F" horiz-adv-x="620" 
d="M80 0v700h476v-69h-393v-254h363v-69h-363v-308h-83z" />
    <glyph glyph-name="G" unicode="G" horiz-adv-x="747" 
d="M392 308v69h275v-281q-101 -101 -260 -101q-158 0 -256 98.5t-98 256.5t98.5 256.5t256.5 98.5t259 -101l-49 -50q-75 83 -207 83q-122 0 -199 -80t-77 -208q0 -126 77 -206t199 -80q105 0 174 55v190h-193z" />
    <glyph glyph-name="H" unicode="H" horiz-adv-x="750" 
d="M587 0v323h-424v-323h-83v700h83v-308h424v308h82v-700h-82z" />
    <glyph glyph-name="I" unicode="I" horiz-adv-x="243" 
d="M163 0h-83v700h83v-700z" />
    <glyph glyph-name="J" unicode="J" horiz-adv-x="580" 
d="M417 250v450h83v-450q0 -113 -71.5 -184t-186.5 -71q-116 0 -189 73l48 49q49 -54 136 -54q79 0 129.5 52t50.5 135z" />
    <glyph glyph-name="K" unicode="K" horiz-adv-x="676" 
d="M163 0h-83v700h83v-341l339 341h103l-299 -303l327 -397h-95l-286 340l-89 -94v-246z" />
    <glyph glyph-name="L" unicode="L" horiz-adv-x="642" 
d="M80 0v700h83v-631h416v-69h-499z" />
    <glyph glyph-name="M" unicode="M" horiz-adv-x="939" 
d="M80 0v700h109l280 -586l281 586h108v-700h-82v575l-275 -575h-63l-275 575v-575h-83z" />
    <glyph glyph-name="N" unicode="N" horiz-adv-x="762" 
d="M599 0l-436 571v-571h-83v700h83l436 -571v571h83v-700h-83z" />
    <glyph glyph-name="O" unicode="O" horiz-adv-x="811" 
d="M53 350q0 157 98 256t254 99q157 0 255 -98.5t98 -256.5t-98 -256.5t-255 -98.5q-156 0 -254 99t-98 256zM135 350q0 -126 75.5 -206.5t194.5 -80.5q120 0 195.5 80.5t75.5 206.5t-75.5 206.5t-195.5 80.5q-119 0 -194.5 -80.5t-75.5 -206.5z" />
    <glyph glyph-name="P" unicode="P" horiz-adv-x="597" 
d="M80 0v700h248q95 0 155.5 -61t60.5 -158t-60.5 -157.5t-155.5 -60.5h-165v-263h-83zM319 631h-156v-299h156q63 0 103 41.5t40 107.5t-39.5 108t-103.5 42z" />
    <glyph glyph-name="Q" unicode="Q" horiz-adv-x="838" 
d="M707 -10l-78 77q-92 -72 -224 -72q-156 0 -254 99t-98 256t98 256t254 99q157 0 255 -98.5t98 -256.5q0 -140 -79 -235l77 -75zM455 242l48 50l119 -117q54 73 54 175q0 126 -75.5 206.5t-195.5 80.5q-119 0 -194.5 -80.5t-75.5 -206.5t75.5 -206.5t194.5 -80.5
q103 0 172 58z" />
    <glyph glyph-name="R" unicode="R" horiz-adv-x="618" 
d="M484 0l-224 298h-97v-298h-83v700h269q88 0 143.5 -56t55.5 -145q0 -88 -54.5 -144t-141.5 -57l224 -298h-92zM163 367h177q55 0 90.5 37t35.5 95t-35.5 95t-90.5 37h-177v-264z" />
    <glyph glyph-name="S" unicode="S" horiz-adv-x="572" 
d="M511 199q0 -91 -68 -147.5t-170 -56.5q-132 0 -225 101l43 44q70 -77 180 -77q69 0 113.5 36.5t44.5 94.5q0 41 -38 69.5t-92 46.5t-107.5 39t-91.5 62.5t-38 102.5q0 86 60.5 138.5t154.5 52.5q131 0 222 -101l-42 -45q-69 78 -173 78q-64 0 -102 -33t-38 -86
q0 -33 20 -58.5t52.5 -41.5t72 -30t78.5 -29.5t71.5 -35t52.5 -51t20 -73.5z" />
    <glyph glyph-name="T" unicode="T" horiz-adv-x="743" 
d="M58 631v69h627v-69h-272v-631h-83v631h-272z" />
    <glyph glyph-name="U" unicode="U" horiz-adv-x="773" 
d="M610 305v395h82v-395q0 -142 -83.5 -226t-222.5 -84t-222.5 84t-83.5 226v395h83v-395q0 -108 62 -175t161 -67q100 0 162 67t62 175z" />
    <glyph glyph-name="V" unicode="V" horiz-adv-x="837" 
d="M418 87l281 613h87l-326 -700h-84l-325 700h86z" />
    <glyph glyph-name="W" unicode="W" horiz-adv-x="1190" 
d="M386 0h-88l-248 700h80l210 -591l210 591h88l209 -591l210 591h80l-248 -700h-88l-207 591z" />
    <glyph glyph-name="X" unicode="X" horiz-adv-x="757" 
d="M139 0h-93l283 357l-271 343h94l226 -285l227 285h93l-271 -343l284 -357h-94l-239 298z" />
    <glyph glyph-name="Y" unicode="Y" horiz-adv-x="743" 
d="M330 0v261l-279 439h86l234 -363l235 363h85l-279 -439v-261h-82z" />
    <glyph glyph-name="Z" unicode="Z" horiz-adv-x="749" 
d="M81 631v69h598v-44l-491 -587h497v-69h-612v44l491 587h-483z" />
    <glyph glyph-name="bracketleft" unicode="[" horiz-adv-x="332" 
d="M100 -125v875h157v-63h-79v-749h79v-63h-157z" />
    <glyph glyph-name="backslash" unicode="\" horiz-adv-x="359" 
d="M369 -100h-78l-300 825h77z" />
    <glyph glyph-name="bracketright" unicode="]" horiz-adv-x="332" 
d="M232 750v-875h-157v63h80v749h-80v63h157z" />
    <glyph glyph-name="asciicircum" unicode="^" horiz-adv-x="509" 
d="M57 578l203 154l203 -154l-39 -41l-164 123l-163 -123z" />
    <glyph glyph-name="underscore" unicode="_" horiz-adv-x="581" 
d="M580 -95h-579v63h579v-63z" />
    <glyph glyph-name="grave" unicode="`" horiz-adv-x="324" 
d="M67 701l48 49l146 -146l-32 -33z" />
    <glyph glyph-name="a" unicode="a" horiz-adv-x="557" 
d="M116 397l-39 40q76 68 191 68q94 0 152.5 -51.5t58.5 -133.5v-320h-77v112q-25 -54 -72 -85t-109 -31q-74 0 -121 39.5t-47 102.5q0 72 65.5 116.5t170.5 44.5q62 0 113 -10v29q0 55 -36.5 89.5t-93.5 34.5q-97 0 -156 -45zM402 236q-46 14 -108 14q-73 0 -118.5 -29.5
t-45.5 -76.5q0 -39 33 -62.5t85 -23.5q67 0 110.5 51.5t43.5 126.5z" />
    <glyph glyph-name="b" unicode="b" horiz-adv-x="599" 
d="M80 29v696h78v-338q25 54 74 85.5t114 31.5q89 0 144.5 -70.5t55.5 -183.5t-78 -184t-202 -71q-108 0 -186 34zM314 440q-66 0 -110 -41.5t-46 -103.5v-219q56 -18 126 -18q82 0 133.5 53t51.5 138q0 87 -43 139t-112 52z" />
    <glyph glyph-name="c" unicode="c" horiz-adv-x="539" 
d="M451 111l42 -43q-70 -73 -186 -73q-113 0 -183.5 71t-70.5 184t71 184t184 71q114 0 185 -73l-42 -43q-51 53 -139 53q-81 0 -131.5 -53.5t-50.5 -138.5t50.5 -138.5t131.5 -53.5q88 0 139 53z" />
    <glyph glyph-name="d" unicode="d" horiz-adv-x="604" 
d="M447 466v259h77v-725h-77v130q-25 -62 -75 -98t-116 -36q-90 0 -146.5 67.5t-56.5 176.5q0 117 69 190.5t180 73.5q83 0 145 -38zM289 60q67 0 111.5 52t46.5 127v167q-55 34 -138 34q-79 0 -129 -55.5t-50 -144.5q0 -81 44 -130.5t115 -49.5z" />
    <glyph glyph-name="e" unicode="e" horiz-adv-x="579" 
d="M527 228h-397q5 -76 56 -123.5t130 -47.5q90 0 142 54l43 -44q-72 -72 -189 -72q-115 0 -187.5 70.5t-72.5 184.5q0 113 66.5 184t171.5 71t171 -71t66 -184v-22zM131 283h318q-2 71 -46.5 115t-110.5 44t-110 -44t-51 -115z" />
    <glyph glyph-name="f" unicode="f" horiz-adv-x="463" 
d="M434 677l-41 -41q-34 31 -84 31q-47 0 -77 -29t-30 -75v-63h189v-63h-189v-437h-77v437h-75v63h75v55q0 78 49.5 126.5t127.5 48.5q82 0 132 -53z" />
    <glyph glyph-name="g" unicode="g" horiz-adv-x="599" 
d="M73 -157l41 42q58 -52 154 -52q77 0 125.5 46.5t48.5 120.5v112q-25 -54 -74.5 -85t-113.5 -31q-89 0 -145 67.5t-56 176.5q0 118 78 191.5t202 73.5q109 0 186 -35v-470q0 -102 -70 -166t-181 -64q-119 0 -195 73zM442 207v216q-55 19 -124 19q-83 0 -135.5 -56.5
t-52.5 -145.5q0 -81 43.5 -130.5t113.5 -49.5q67 0 110 42.5t45 104.5z" />
    <glyph glyph-name="h" unicode="h" 
d="M454 0v301q0 63 -38 102t-98 39q-70 0 -115 -56.5t-45 -138.5v-247h-78v725h78v-351q27 60 77.5 95.5t115.5 35.5q80 0 130.5 -53t50.5 -137v-315h-78z" />
    <glyph glyph-name="i" unicode="i" horiz-adv-x="238" 
d="M158 0h-78v500h78v-500zM80 606v94h78v-94h-78z" />
    <glyph glyph-name="j" unicode="j" horiz-adv-x="278" 
d="M-91 -181l41 42q26 -28 76 -28q41 0 67.5 29.5t26.5 75.5v562h78v-559q0 -76 -46.5 -123.5t-120.5 -47.5q-75 0 -122 49zM120 606v94h78v-94h-78z" />
    <glyph glyph-name="k" unicode="k" horiz-adv-x="556" 
d="M158 0h-78v725h78v-468l236 243h93l-213 -222l246 -278h-90l-205 227l-67 -72v-155z" />
    <glyph glyph-name="l" unicode="l" horiz-adv-x="326" 
d="M248 73l41 -42q-33 -36 -88 -36q-53 0 -87 34.5t-34 89.5v606h78v-611q0 -25 14 -40.5t36 -15.5q26 0 40 15z" />
    <glyph glyph-name="m" unicode="m" horiz-adv-x="882" 
d="M402 0v317q0 56 -30 90.5t-78 34.5q-58 0 -96 -43.5t-40 -111.5v-287h-78v500h78v-96q53 101 167 101q48 0 84 -26.5t54 -73.5q27 47 72.5 73.5t103.5 26.5q72 0 117 -52t45 -136v-317h-77v317q0 56 -30 90.5t-78 34.5q-59 0 -97 -43.5t-40 -111.5v-287h-77z" />
    <glyph glyph-name="n" unicode="n" 
d="M454 0v301q0 64 -37.5 102.5t-98.5 38.5q-70 0 -115 -56.5t-45 -138.5v-247h-78v500h78v-126q27 60 77.5 95.5t115.5 35.5q80 0 130.5 -53t50.5 -137v-315h-78z" />
    <glyph glyph-name="o" unicode="o" horiz-adv-x="616" 
d="M53 250q0 113 71 184t184 71t184.5 -71t71.5 -184t-71.5 -184t-184.5 -71t-184 71t-71 184zM130 250q0 -85 49.5 -138.5t128.5 -53.5t128.5 53.5t49.5 138.5t-49.5 138.5t-128.5 53.5t-128.5 -53.5t-49.5 -138.5z" />
    <glyph glyph-name="p" unicode="p" horiz-adv-x="604" 
d="M80 -225v725h77v-131q25 62 75 98t115 36q90 0 146.5 -70.5t56.5 -182.5q0 -113 -69 -183t-179 -70q-86 0 -145 36v-258h-77zM157 255v-161q59 -35 138 -35t128.5 53t49.5 138q0 86 -44 138t-114 52q-69 0 -113.5 -53.5t-44.5 -131.5z" />
    <glyph glyph-name="q" unicode="q" horiz-adv-x="599" 
d="M442 -225v337q-25 -54 -74.5 -85t-113.5 -31q-89 0 -145 67.5t-56 176.5q0 118 78 191.5t202 73.5q109 0 186 -35v-695h-77zM442 207v215q-54 20 -124 20q-84 0 -136 -56t-52 -146q0 -81 43.5 -130.5t112.5 -49.5q67 0 110.5 42t45.5 105z" />
    <glyph glyph-name="r" unicode="r" horiz-adv-x="415" 
d="M352 505v-68q-82 0 -136.5 -56t-57.5 -137v-244h-78v500h78v-143q25 68 76.5 108t117.5 40z" />
    <glyph glyph-name="s" unicode="s" horiz-adv-x="453" 
d="M399 144q0 -66 -52 -107.5t-128 -41.5q-102 0 -170 73l41 42q47 -52 129 -52q44 0 73.5 23.5t29.5 59.5q0 27 -27 46t-65.5 32t-77 28t-65.5 45t-27 73q0 62 46.5 101.5t115.5 39.5q100 0 165 -73l-41 -42q-46 51 -120 51q-40 0 -64.5 -21t-24.5 -54q0 -29 27 -49
t65.5 -33t77 -28t65.5 -43.5t27 -69.5z" />
    <glyph glyph-name="t" unicode="t" horiz-adv-x="468" 
d="M50 437v63h75v115h77v-115h187v-63h-187v-263q0 -51 30.5 -83.5t78.5 -32.5t82 32l41 -42q-50 -53 -132 -53q-78 0 -127.5 50.5t-49.5 131.5v260h-75z" />
    <glyph glyph-name="u" unicode="u" 
d="M158 500v-295q0 -66 38 -106.5t98 -40.5q68 0 113 54t47 133v255h78v-500h-78v125q-28 -60 -78 -95t-115 -35q-80 0 -130.5 55.5t-50.5 144.5v305h78z" />
    <glyph glyph-name="v" unicode="v" horiz-adv-x="632" 
d="M354 0h-78l-225 500h76l188 -416l188 416h77z" />
    <glyph glyph-name="w" unicode="w" horiz-adv-x="901" 
d="M307 0h-73l-182 500h75l145 -397l143 397h71l142 -397l147 397h74l-183 -500h-72l-143 392z" />
    <glyph glyph-name="x" unicode="x" horiz-adv-x="591" 
d="M132 0h-89l206 256l-195 244h88l153 -192l153 192h89l-196 -244l206 -256h-89l-163 203z" />
    <glyph glyph-name="y" unicode="y" horiz-adv-x="630" 
d="M580 500l-273 -596q-29 -64 -65 -99t-87 -35q-71 0 -113 43l40 41q22 -21 68 -21q30 0 51 25t43 73l33 70l-226 499h76l187 -411l189 411h77z" />
    <glyph glyph-name="z" unicode="z" horiz-adv-x="577" 
d="M76 437v63h426v-42l-332 -395h336v-63h-435v42l326 395h-321z" />
    <glyph glyph-name="braceleft" unicode="{" horiz-adv-x="393" 
d="M75 278v64q33 0 50 42t25.5 102t21 120t49 102t96.5 42v-63q-33 0 -52.5 -35.5t-27.5 -88t-16 -106.5t-27 -96t-52 -51q33 -9 52 -50.5t27 -94.5t16 -105t27.5 -87t52.5 -35v-63q-60 0 -96.5 41.5t-49 101t-21 118.5t-25.5 100.5t-50 41.5z" />
    <glyph glyph-name="bar" unicode="|" horiz-adv-x="238" 
d="M158 -100h-78v825h78v-825z" />
    <glyph glyph-name="braceright" unicode="}" horiz-adv-x="393" 
d="M317 342v-64q-27 0 -44 -30t-23 -74.5t-16.5 -97t-24.5 -97t-48.5 -74.5t-85.5 -30v63q34 0 53.5 35t27.5 87t16 105t27 94.5t52 50.5q-33 9 -52 51t-27 96t-16 106.5t-27.5 88t-53.5 35.5v63q51 0 85.5 -30t48.5 -75.5t24.5 -98.5t16.5 -98.5t23 -75.5t44 -30z" />
    <glyph glyph-name="asciitilde" unicode="~" horiz-adv-x="472" 
d="M92 254l-41 42q55 56 112 56q28 0 76.5 -18t71.5 -18q38 0 69 31l41 -42q-53 -56 -110 -56q-28 0 -76 18t-72 18q-39 0 -71 -31z" />
    <glyph glyph-name="exclamdown" unicode="&#xa1;" horiz-adv-x="238" 
d="M80 364h78v-492h-78v492zM158 577v-112h-78v112h78z" />
    <glyph glyph-name="cent" unicode="&#xa2;" horiz-adv-x="539" 
d="M276 0v96q-101 11 -162 80t-61 174t61 174t162 79v97h51v-96q100 -6 166 -72l-42 -43q-46 47 -124 52v-382q80 5 124 52l42 -43q-64 -66 -166 -72v-96h-51zM276 163v373q-66 -11 -106 -61.5t-40 -124.5t40 -125t106 -62z" />
    <glyph glyph-name="sterling" unicode="&#xa3;" horiz-adv-x="621" 
d="M63 303v63h55v137q0 90 61.5 146t156.5 56q132 0 225 -99l-43 -44q-71 77 -176 77q-67 0 -106 -40t-39 -104v-129h289v-63h-289v-237h363v-66h-497v66h55v237h-55z" />
    <glyph glyph-name="currency" unicode="&#xa4;" horiz-adv-x="548" 
d="M95 350q0 60 29 101l-78 79l47 49l79 -80q44 30 102 30t101 -30l80 80l48 -48l-80 -80q30 -44 30 -101q0 -58 -30 -102l80 -79l-48 -48l-80 79q-43 -29 -101 -29q-57 0 -102 29l-79 -79l-47 49l78 78q-29 43 -29 102zM155 350q0 -57 33 -92.5t86 -35.5t86 35.5t33 92.5
t-33 92.5t-86 35.5t-86 -35.5t-33 -92.5z" />
    <glyph glyph-name="yen" unicode="&#xa5;" horiz-adv-x="743" 
d="M134 73v47h196v68h-196v47h196v26l-279 439h86l234 -363l235 363h85l-279 -439v-26h195v-47h-195v-68h195v-47h-195v-73h-82v73h-196z" />
    <glyph glyph-name="brokenbar" unicode="&#xa6;" horiz-adv-x="238" 
d="M158 725v-380h-78v380h78zM158 -100h-78v380h78v-380z" />
    <glyph glyph-name="section" unicode="&#xa7;" horiz-adv-x="572" 
d="M511 224q0 -83 -57 -137q57 -47 57 -113q0 -91 -68 -147.5t-170 -56.5q-132 0 -225 101l43 44q70 -77 180 -77q69 0 113.5 36.5t44.5 94.5q0 41 -38 69.5t-92 46.5t-107.5 39t-91.5 62.5t-38 102.5q0 82 54 131q-54 46 -54 119q0 86 60.5 138.5t154.5 52.5
q131 0 222 -101l-42 -45q-69 78 -173 78q-64 0 -102 -33t-38 -86q0 -33 20 -58.5t52.5 -41.5t72 -30t78.5 -29.5t71.5 -35t52.5 -51t20 -73.5zM429 219q0 33 -26 58t-57.5 37.5t-83 31t-79.5 32.5q-39 -33 -39 -85q0 -28 14.5 -50.5t42.5 -38.5t55 -27t66.5 -25.5
t62.5 -25.5q44 36 44 93z" />
    <glyph glyph-name="dieresis" unicode="&#xa8;" horiz-adv-x="468" 
d="M80 606v94h78v-94h-78zM310 606v94h77v-94h-77z" />
    <glyph glyph-name="copyright" unicode="&#xa9;" horiz-adv-x="811" 
d="M53 350q0 157 98 256t254 99q157 0 255 -98.5t98 -256.5t-98 -256.5t-255 -98.5q-156 0 -254 99t-98 256zM115 350q0 -133 81 -218t209 -85q129 0 210 84.5t81 218.5t-81 218.5t-210 84.5q-128 0 -209 -85t-81 -218zM528 252l33 -31q-58 -61 -151 -61q-84 0 -136.5 53
t-52.5 138q0 84 53 137t137 53q91 0 150 -61l-33 -32q-42 45 -114 45q-60 0 -97 -39.5t-37 -102.5t37 -103t97 -40q72 0 114 44z" />
    <glyph glyph-name="ordfeminine" unicode="&#xaa;" horiz-adv-x="477" 
d="M291 350v73q-38 -76 -123 -76q-51 0 -83 28t-32 73q0 49 45.5 80t116.5 31q36 0 76 -5v6q0 45 -28 71t-73 26q-57 0 -98 -32l-29 29q48 50 125 50q71 0 115.5 -40t44.5 -104v-210h-57zM291 511q-28 11 -72 11q-48 0 -79 -19.5t-31 -50.5q0 -26 22.5 -42.5t56.5 -16.5
q44 0 73.5 34.5t29.5 83.5z" />
    <glyph glyph-name="guillemotleft" unicode="&#xab;" horiz-adv-x="619" 
d="M271 71l-203 204l203 204l47 -48l-156 -156l156 -156zM494 71l-204 204l204 204l47 -48l-156 -156l156 -156z" />
    <glyph glyph-name="logicalnot" unicode="&#xac;" horiz-adv-x="661" 
d="M580 179h-77v154h-423v64h500v-218z" />
    <glyph glyph-name="uni00AD" unicode="&#xad;" horiz-adv-x="397" 
d="M316 258h-236v64h236v-64z" />
    <glyph glyph-name="registered" unicode="&#xae;" horiz-adv-x="465" 
d="M53 525q0 80 49.5 130t129.5 50t130 -50t50 -130t-50 -130t-130 -50t-129.5 50t-49.5 130zM89 525q0 -66 40 -107.5t104 -41.5q63 0 102.5 41.5t39.5 107.5t-39.5 107.5t-102.5 41.5q-64 0 -104 -41.5t-40 -107.5zM277 431l-59 79h-24v-79h-27v190h77q25 0 40.5 -15
t15.5 -40q0 -24 -14.5 -39t-37.5 -17l60 -79h-31zM194 599v-66h47q13 0 22 9t9 24t-9 24t-22 9h-47z" />
    <glyph glyph-name="macron" unicode="&#xaf;" horiz-adv-x="468" 
d="M388 648h-308v52h308v-52z" />
    <glyph glyph-name="degree" unicode="&#xb0;" horiz-adv-x="413" 
d="M53 573q0 69 43 112t111 43t110.5 -43t42.5 -112q0 -68 -42.5 -110.5t-110.5 -42.5t-111 42.5t-43 110.5zM119 573q0 -41 24.5 -67.5t63.5 -26.5t63.5 26.5t24.5 67.5q0 42 -24.5 69t-63.5 27t-63.5 -27t-24.5 -69z" />
    <glyph glyph-name="plusminus" unicode="&#xb1;" horiz-adv-x="581" 
d="M324 640v-180h177v-63h-177v-178h-67v178h-177v63h177v180h67zM501 96h-421v64h421v-64z" />
    <glyph glyph-name="uni00B2" unicode="&#xb2;" horiz-adv-x="319" 
d="M59 375v36q7 5 18 12.5t39 31.5t50 46.5t39.5 51.5t17.5 53q0 29 -17 46.5t-48 17.5q-47 0 -80 -35l-23 23q46 48 107 48q45 0 74.5 -26.5t29.5 -68.5q0 -34 -22 -71t-53.5 -65.5t-50 -43t-28.5 -20.5h159v-36h-212z" />
    <glyph glyph-name="uni00B3" unicode="&#xb3;" horiz-adv-x="320" 
d="M159 372q-66 0 -110 47l23 24q29 -35 85 -35q31 0 51 17t20 43q0 28 -20.5 46t-52.5 18h-20v32h21q28 0 45 15t17 38t-17 37t-44 14q-50 0 -80 -36l-23 24q40 48 106 48q45 0 73 -23t28 -59q0 -53 -59 -74q32 -10 50.5 -32t18.5 -52q0 -41 -31 -66.5t-81 -25.5z" />
    <glyph glyph-name="acute" unicode="&#xb4;" horiz-adv-x="323" 
d="M213 750l48 -49l-162 -130l-32 33z" />
    <glyph glyph-name="mu" unicode="&#xb5;" 
d="M158 500v-295q0 -66 38 -106.5t98 -40.5q69 0 114 55.5t46 136.5v250h78v-500h-78v130q-26 -63 -76.5 -99t-116.5 -36q-70 0 -105 51v-271h-76v725h78z" />
    <glyph glyph-name="paragraph" unicode="&#xb6;" horiz-adv-x="632" 
d="M572 700v-69h-85v-806h-77v806h-124v-806h-77v525q-76 0 -124.5 49t-48.5 126t48.5 126t124.5 49h363z" />
    <glyph glyph-name="periodcentered" unicode="&#xb7;" horiz-adv-x="238" 
d="M80 244v112h78v-112h-78z" />
    <glyph glyph-name="cedilla" unicode="&#xb8;" horiz-adv-x="302" 
d="M57 -159l30 29q29 -29 57 -29q21 0 32.5 9.5t11.5 24.5q0 14 -11 24t-24.5 17t-24.5 28t-11 56h45q0 -31 11 -48t24.5 -22t24.5 -19.5t11 -40.5q0 -32 -24.5 -52t-62.5 -20q-51 0 -89 43z" />
    <glyph glyph-name="uni00B9" unicode="&#xb9;" horiz-adv-x="274" 
d="M51 636l108 64h42v-325h-42v279l-90 -51z" />
    <glyph glyph-name="ordmasculine" unicode="&#xba;" horiz-adv-x="463" 
d="M53 525q0 79 49.5 129t128.5 50t129 -50t50 -129t-50 -129t-129 -50t-128.5 50t-49.5 129zM110 525q0 -58 34 -95t88 -37t87.5 37t33.5 95t-33.5 95t-87.5 37t-88 -37t-34 -95z" />
    <glyph glyph-name="guillemotright" unicode="&#xbb;" horiz-adv-x="621" 
d="M124 479l204 -204l-204 -204l-47 48l156 156l-156 156zM347 479l203 -204l-203 -204l-47 48l156 156l-156 156z" />
    <glyph glyph-name="questiondown" unicode="&#xbf;" horiz-adv-x="520" 
d="M306 577v-112h-78v112h78zM228 364h78q0 -62 -18 -103.5t-43.5 -62.5t-51.5 -38t-44 -43t-18 -65q0 -50 37 -83t101 -33q97 0 169 80l40 -42q-90 -101 -217 -101q-92 0 -149.5 49t-57.5 128q0 43 13 75t32 48.5t42 34.5t42 34.5t32 48t13 73.5z" />
    <glyph glyph-name="Agrave" unicode="&#xc0;" horiz-adv-x="837" 
d="M377 700h84l325 -700h-81l-90 192h-392l-90 -192h-82zM419 612l-166 -351h332zM321 901l48 49l146 -146l-32 -33z" />
    <glyph glyph-name="Aacute" unicode="&#xc1;" horiz-adv-x="837" 
d="M377 700h84l325 -700h-81l-90 192h-392l-90 -192h-82zM419 612l-166 -351h332zM467 950l48 -49l-162 -130l-32 33z" />
    <glyph glyph-name="Acircumflex" unicode="&#xc2;" horiz-adv-x="837" 
d="M377 700h84l325 -700h-81l-90 192h-392l-90 -192h-82zM419 612l-166 -351h332zM257 837l161 113l160 -113l-40 -41l-120 86l-121 -86z" />
    <glyph glyph-name="Atilde" unicode="&#xc3;" horiz-adv-x="837" 
d="M377 700h84l325 -700h-81l-90 192h-392l-90 -192h-82zM419 612l-166 -351h332zM269 825l-10.5 10.5l-12.5 12.5l-11 11q55 56 112 56q28 0 77 -18.5t72 -18.5q35 0 69 31l34 -34q-55 -56 -110 -56q-28 0 -76.5 18.5t-72.5 18.5q-37 0 -71 -31z" />
    <glyph glyph-name="Adieresis" unicode="&#xc4;" horiz-adv-x="837" 
d="M377 700h84l325 -700h-81l-90 192h-392l-90 -192h-82zM419 612l-166 -351h332zM264 806v94h78v-94h-78zM494 806v94h77v-94h-77z" />
    <glyph glyph-name="Aring" unicode="&#xc5;" horiz-adv-x="837" 
d="M377 700h84l325 -700h-81l-90 192h-392l-90 -192h-82zM419 612l-166 -351h332zM339 872q0 36 21.5 58t56.5 22t56.5 -22t21.5 -58q0 -35 -21.5 -57t-56.5 -22t-56.5 22t-21.5 57zM372 872q0 -20 12.5 -32.5t32.5 -12.5t32.5 12.5t12.5 32.5q0 21 -12.5 33.5t-32.5 12.5
t-32.5 -12.5t-12.5 -33.5z" />
    <glyph glyph-name="AE" unicode="&#xc6;" horiz-adv-x="906" 
d="M51 0l326 700h463v-69h-344v-239h316v-69h-316v-254h351v-69h-433v192h-191l-90 -192h-82zM253 261h161v341z" />
    <glyph glyph-name="Ccedilla" unicode="&#xc7;" horiz-adv-x="727" 
d="M305 -159l30 29q29 -29 57 -29q21 0 32.5 9.5t11.5 24.5q0 12 -7 20t-17.5 14.5t-21 15t-18 27t-7.5 45.5q-141 14 -226.5 110t-85.5 243q0 158 98.5 256.5t256.5 98.5t259 -101l-49 -50q-75 83 -207 83q-122 0 -199 -80t-77 -207t77 -207t199 -80q133 0 207 83l49 -50
q-99 -100 -257 -101q1 -28 12 -44.5t24 -21t24 -19t11 -40.5q0 -32 -24.5 -52t-62.5 -20q-51 0 -89 43z" />
    <glyph glyph-name="Egrave" unicode="&#xc8;" horiz-adv-x="627" 
d="M80 0v700h476v-69h-393v-239h365v-69h-365v-254h401v-69h-484zM221 901l48 49l146 -146l-32 -33z" />
    <glyph glyph-name="Eacute" unicode="&#xc9;" horiz-adv-x="627" 
d="M80 0v700h476v-69h-393v-239h365v-69h-365v-254h401v-69h-484zM367 950l48 -49l-162 -130l-32 33z" />
    <glyph glyph-name="Ecircumflex" unicode="&#xca;" horiz-adv-x="627" 
d="M157 837l161 113l160 -113l-40 -41l-120 86l-121 -86zM80 0v700h476v-69h-393v-239h365v-69h-365v-254h401v-69h-484z" />
    <glyph glyph-name="Edieresis" unicode="&#xcb;" horiz-adv-x="627" 
d="M80 0v700h476v-69h-393v-239h365v-69h-365v-254h401v-69h-484zM164 806v94h78v-94h-78zM394 806v94h77v-94h-77z" />
    <glyph glyph-name="Igrave" unicode="&#xcc;" horiz-adv-x="243" 
d="M163 0h-83v700h83v-700zM25 901l48 49l146 -146l-32 -33z" />
    <glyph glyph-name="Iacute" unicode="&#xcd;" horiz-adv-x="243" 
d="M163 0h-83v700h83v-700zM172 950l48 -49l-162 -130l-32 33z" />
    <glyph glyph-name="Icircumflex" unicode="&#xce;" horiz-adv-x="243" 
d="M-38 837l161 113l160 -113l-40 -41l-120 86l-121 -86zM163 0h-83v700h83v-700z" />
    <glyph glyph-name="Idieresis" unicode="&#xcf;" horiz-adv-x="243" 
d="M-31 806v94h78v-94h-78zM199 806v94h77v-94h-77zM163 0h-83v700h83v-700z" />
    <glyph glyph-name="Eth" unicode="&#xd0;" horiz-adv-x="842" 
d="M180 0v323h-100v69h100v308h262q154 0 251 -97.5t97 -252.5t-97 -252.5t-251 -97.5h-262zM501 323h-238v-254h179q117 0 191 78.5t74 202.5t-74 202.5t-191 78.5h-179v-239h238v-69z" />
    <glyph glyph-name="Ntilde" unicode="&#xd1;" horiz-adv-x="762" 
d="M599 0l-436 571v-571h-83v700h83l436 -571v571h83v-700h-83zM232 825l-10.5 10.5l-12.5 12.5l-11 11q55 56 112 56q28 0 77 -18.5t72 -18.5q35 0 69 31l34 -34q-55 -56 -110 -56q-28 0 -76.5 18.5t-72.5 18.5q-37 0 -71 -31z" />
    <glyph glyph-name="Ograve" unicode="&#xd2;" horiz-adv-x="811" 
d="M53 350q0 157 98 256t254 99q157 0 255 -98.5t98 -256.5t-98 -256.5t-255 -98.5q-156 0 -254 99t-98 256zM135 350q0 -126 75.5 -206.5t194.5 -80.5q120 0 195.5 80.5t75.5 206.5t-75.5 206.5t-195.5 80.5q-119 0 -194.5 -80.5t-75.5 -206.5zM307 901l48 49l146 -146
l-32 -33z" />
    <glyph glyph-name="Oacute" unicode="&#xd3;" horiz-adv-x="811" 
d="M53 350q0 157 98 256t254 99q157 0 255 -98.5t98 -256.5t-98 -256.5t-255 -98.5q-156 0 -254 99t-98 256zM135 350q0 -126 75.5 -206.5t194.5 -80.5q120 0 195.5 80.5t75.5 206.5t-75.5 206.5t-195.5 80.5q-119 0 -194.5 -80.5t-75.5 -206.5zM454 950l48 -49l-162 -130
l-32 33z" />
    <glyph glyph-name="Ocircumflex" unicode="&#xd4;" horiz-adv-x="811" 
d="M244 837l161 113l160 -113l-40 -41l-120 86l-121 -86zM53 350q0 157 98 256t254 99q157 0 255 -98.5t98 -256.5t-98 -256.5t-255 -98.5q-156 0 -254 99t-98 256zM135 350q0 -126 75.5 -206.5t194.5 -80.5q120 0 195.5 80.5t75.5 206.5t-75.5 206.5t-195.5 80.5
q-119 0 -194.5 -80.5t-75.5 -206.5z" />
    <glyph glyph-name="Otilde" unicode="&#xd5;" horiz-adv-x="811" 
d="M53 350q0 157 98 256t254 99q157 0 255 -98.5t98 -256.5t-98 -256.5t-255 -98.5q-156 0 -254 99t-98 256zM135 350q0 -126 75.5 -206.5t194.5 -80.5q120 0 195.5 80.5t75.5 206.5t-75.5 206.5t-195.5 80.5q-119 0 -194.5 -80.5t-75.5 -206.5zM257 825l-10.5 10.5
l-12.5 12.5l-11 11q55 56 112 56q28 0 77 -18.5t72 -18.5q35 0 69 31l34 -34q-55 -56 -110 -56q-28 0 -76.5 18.5t-72.5 18.5q-37 0 -71 -31z" />
    <glyph glyph-name="Odieresis" unicode="&#xd6;" horiz-adv-x="811" 
d="M53 350q0 157 98 256t254 99q157 0 255 -98.5t98 -256.5t-98 -256.5t-255 -98.5q-156 0 -254 99t-98 256zM135 350q0 -126 75.5 -206.5t194.5 -80.5q120 0 195.5 80.5t75.5 206.5t-75.5 206.5t-195.5 80.5q-119 0 -194.5 -80.5t-75.5 -206.5zM251 806v94h78v-94h-78z
M481 806v94h77v-94h-77z" />
    <glyph glyph-name="multiply" unicode="&#xd7;" horiz-adv-x="581" 
d="M489 511l-151 -151l151 -151l-47 -48l-152 150l-151 -150l-47 49l151 150l-151 150l47 49l151 -150l152 150z" />
    <glyph glyph-name="Oslash" unicode="&#xd8;" horiz-adv-x="811" 
d="M214 -50h-78l60 106q-68 46 -105.5 122.5t-37.5 171.5q0 157 98 256t254 99q82 0 149 -29l43 74h78l-61 -107q68 -46 106 -122t38 -171q0 -158 -98 -256.5t-255 -98.5q-82 0 -148 29zM676 350q0 147 -100 225l-284 -489q51 -23 113 -23q120 0 195.5 80.5t75.5 206.5z
M135 350q0 -145 101 -225l283 488q-53 24 -114 24q-119 0 -194.5 -80.5t-75.5 -206.5z" />
    <glyph glyph-name="Ugrave" unicode="&#xd9;" horiz-adv-x="773" 
d="M610 305v395h82v-395q0 -142 -83.5 -226t-222.5 -84t-222.5 84t-83.5 226v395h83v-395q0 -108 62 -175t161 -67q100 0 162 67t62 175zM288 901l48 49l146 -146l-32 -33z" />
    <glyph glyph-name="Uacute" unicode="&#xda;" horiz-adv-x="773" 
d="M610 305v395h82v-395q0 -142 -83.5 -226t-222.5 -84t-222.5 84t-83.5 226v395h83v-395q0 -108 62 -175t161 -67q100 0 162 67t62 175zM435 950l48 -49l-162 -130l-32 33z" />
    <glyph glyph-name="Ucircumflex" unicode="&#xdb;" horiz-adv-x="773" 
d="M225 837l161 113l160 -113l-40 -41l-120 86l-121 -86zM610 305v395h82v-395q0 -142 -83.5 -226t-222.5 -84t-222.5 84t-83.5 226v395h83v-395q0 -108 62 -175t161 -67q100 0 162 67t62 175z" />
    <glyph glyph-name="Udieresis" unicode="&#xdc;" horiz-adv-x="773" 
d="M610 305v395h82v-395q0 -142 -83.5 -226t-222.5 -84t-222.5 84t-83.5 226v395h83v-395q0 -108 62 -175t161 -67q100 0 162 67t62 175zM232 806v94h78v-94h-78zM462 806v94h77v-94h-77z" />
    <glyph glyph-name="Yacute" unicode="&#xdd;" horiz-adv-x="743" 
d="M330 0v261l-279 439h86l234 -363l235 363h85l-279 -439v-261h-82zM420 950l48 -49l-162 -130l-32 33z" />
    <glyph glyph-name="Thorn" unicode="&#xde;" horiz-adv-x="597" 
d="M80 0v700h83v-117h165q95 0 155.5 -60.5t60.5 -157.5t-60.5 -158t-155.5 -61h-165v-146h-83zM319 514h-156v-299h156q64 0 103.5 42t39.5 108t-39.5 107.5t-103.5 41.5z" />
    <glyph glyph-name="germandbls" unicode="&#xdf;" horiz-adv-x="633" 
d="M579 144q0 -65 -51.5 -107t-125.5 -42q-100 0 -168 73l41 42q47 -52 126 -52q43 0 72 23.5t29 59.5q0 27 -26.5 46.5t-64 33.5t-75.5 30.5t-64.5 46.5t-26.5 73q0 33 19 63t42 48t42 41.5t19 44.5q0 44 -29 71.5t-74 27.5q-47 0 -76.5 -29t-29.5 -75v-563h-78v555
q0 78 50 126.5t131 48.5q80 0 132 -46.5t52 -117.5q0 -26 -12.5 -48t-30.5 -37.5t-36.5 -31t-31 -35.5t-12.5 -43q0 -29 26.5 -49.5t64.5 -34.5t75.5 -29.5t64 -44t26.5 -69.5z" />
    <glyph glyph-name="agrave" unicode="&#xe0;" horiz-adv-x="552" 
d="M114 397l-40 40q76 68 191 68q94 0 152.5 -51.5t58.5 -133.5v-320h-77v112q-24 -54 -71 -85t-110 -31q-74 0 -121 39.5t-47 102.5q0 72 65.5 116.5t170.5 44.5q62 0 113 -10v29q0 55 -36 89.5t-93 34.5q-98 0 -156 -45zM399 236q-46 14 -108 14q-73 0 -118 -29.5
t-45 -76.5q0 -39 33 -62.5t85 -23.5q67 0 110 51.5t43 126.5zM169 701l47 49l147 -146l-32 -33z" />
    <glyph glyph-name="aacute" unicode="&#xe1;" horiz-adv-x="552" 
d="M114 397l-39 40q76 68 191 68q94 0 152.5 -51.5t58.5 -133.5v-320h-77v112q-25 -54 -72 -85t-109 -31q-74 0 -121 39.5t-47 102.5q0 72 65.5 116.5t170.5 44.5q62 0 113 -10v29q0 55 -36.5 89.5t-93.5 34.5q-97 0 -156 -45zM400 236q-46 14 -108 14q-73 0 -118.5 -29.5
t-45.5 -76.5q0 -39 33 -62.5t85 -23.5q67 0 110.5 51.5t43.5 126.5zM315 750l48 -49l-162 -130l-32 33z" />
    <glyph glyph-name="acircumflex" unicode="&#xe2;" horiz-adv-x="552" 
d="M114 397l-39 40q76 68 191 68q94 0 152.5 -51.5t58.5 -133.5v-320h-77v112q-25 -54 -72 -85t-109 -31q-74 0 -121 39.5t-47 102.5q0 72 65.5 116.5t170.5 44.5q62 0 113 -10v29q0 55 -36.5 89.5t-93.5 34.5q-97 0 -156 -45zM400 236q-46 14 -108 14q-73 0 -118.5 -29.5
t-45.5 -76.5q0 -39 33 -62.5t85 -23.5q67 0 110.5 51.5t43.5 126.5zM104 637l161 113l160 -113l-40 -41l-120 86l-121 -86z" />
    <glyph glyph-name="atilde" unicode="&#xe3;" horiz-adv-x="552" 
d="M114 397l-39 40q76 68 191 68q94 0 152.5 -51.5t58.5 -133.5v-320h-77v112q-25 -54 -72 -85t-109 -31q-74 0 -121 39.5t-47 102.5q0 72 65.5 116.5t170.5 44.5q62 0 113 -10v29q0 55 -36.5 89.5t-93.5 34.5q-97 0 -156 -45zM400 236q-46 14 -108 14q-73 0 -118.5 -29.5
t-45.5 -76.5q0 -39 33 -62.5t85 -23.5q67 0 110.5 51.5t43.5 126.5zM118 625l-10.5 10.5l-12.5 12.5l-11 11q55 56 112 56q28 0 77 -18.5t72 -18.5q35 0 69 31l34 -34q-55 -56 -110 -56q-28 0 -76.5 18.5t-72.5 18.5q-37 0 -71 -31z" />
    <glyph glyph-name="adieresis" unicode="&#xe4;" horiz-adv-x="552" 
d="M114 397l-39 40q76 68 191 68q94 0 152.5 -51.5t58.5 -133.5v-320h-77v112q-25 -54 -72 -85t-109 -31q-74 0 -121 39.5t-47 102.5q0 72 65.5 116.5t170.5 44.5q62 0 113 -10v29q0 55 -36.5 89.5t-93.5 34.5q-97 0 -156 -45zM400 236q-46 14 -108 14q-73 0 -118.5 -29.5
t-45.5 -76.5q0 -39 33 -62.5t85 -23.5q67 0 110.5 51.5t43.5 126.5zM112 606v94h78v-94h-78zM342 606v94h77v-94h-77z" />
    <glyph glyph-name="aring" unicode="&#xe5;" horiz-adv-x="552" 
d="M114 397l-39 40q76 68 191 68q94 0 152.5 -51.5t58.5 -133.5v-320h-77v112q-25 -54 -72 -85t-109 -31q-74 0 -121 39.5t-47 102.5q0 72 65.5 116.5t170.5 44.5q62 0 113 -10v29q0 55 -36.5 89.5t-93.5 34.5q-97 0 -156 -45zM400 236q-46 14 -108 14q-73 0 -118.5 -29.5
t-45.5 -76.5q0 -39 33 -62.5t85 -23.5q67 0 110.5 51.5t43.5 126.5zM187 672q0 36 21.5 58t56.5 22t56.5 -22t21.5 -58q0 -35 -21.5 -57t-56.5 -22t-56.5 22t-21.5 57zM220 672q0 -20 12.5 -32.5t32.5 -12.5t32.5 12.5t12.5 32.5q0 21 -12.5 33.5t-32.5 12.5t-32.5 -12.5
t-12.5 -33.5z" />
    <glyph glyph-name="ae" unicode="&#xe6;" horiz-adv-x="924" 
d="M873 228h-397q5 -76 56 -123.5t130 -47.5q91 0 142 54l44 -44q-74 -72 -190 -72q-75 0 -133 32.5t-87 90.5q-55 -121 -209 -121q-78 0 -127.5 38.5t-49.5 101.5q0 72 65 116.5t169 44.5q60 0 113 -11v13q0 70 -40.5 105t-107.5 35q-79 0 -137 -44l-39 41q71 68 188 68
q62 0 110 -29t71 -79q29 51 79 79.5t114 28.5q105 0 170.5 -71t65.5 -184v-22zM477 283h319q-3 71 -47.5 115t-110.5 44q-65 0 -109 -44t-52 -115zM399 233q-44 16 -107 16q-72 0 -117 -29t-45 -76q0 -39 32.5 -63t84.5 -24q65 0 107.5 50.5t44.5 125.5z" />
    <glyph glyph-name="ccedilla" unicode="&#xe7;" horiz-adv-x="539" 
d="M205 -159l30 29q29 -29 57 -29q21 0 32.5 9.5t11.5 24.5q0 14 -11 24t-24 17t-24.5 27.5t-11.5 54.5q-96 13 -154 81.5t-58 170.5q0 113 71 184t184 71q114 0 185 -73l-42 -43q-51 53 -139 53q-81 0 -131.5 -53.5t-50.5 -138.5t50.5 -138.5t131.5 -53.5q88 0 139 53
l42 -43q-68 -71 -183 -73q1 -28 12 -44.5t24 -21t24 -19t11 -40.5q0 -32 -24.5 -52t-62.5 -20q-51 0 -89 43z" />
    <glyph glyph-name="egrave" unicode="&#xe8;" horiz-adv-x="579" 
d="M527 228h-397q5 -76 56 -123.5t130 -47.5q90 0 142 54l43 -44q-72 -72 -189 -72q-115 0 -187.5 70.5t-72.5 184.5q0 113 66.5 184t171.5 71t171 -71t66 -184v-22zM131 283h318q-2 71 -46.5 115t-110.5 44t-110 -44t-51 -115zM191 701l48 49l146 -146l-32 -33z" />
    <glyph glyph-name="eacute" unicode="&#xe9;" horiz-adv-x="579" 
d="M527 228h-397q5 -76 56 -123.5t130 -47.5q90 0 142 54l43 -44q-72 -72 -189 -72q-115 0 -187.5 70.5t-72.5 184.5q0 113 66.5 184t171.5 71t171 -71t66 -184v-22zM131 283h318q-2 71 -46.5 115t-110.5 44t-110 -44t-51 -115zM338 750l48 -49l-162 -130l-32 33z" />
    <glyph glyph-name="ecircumflex" unicode="&#xea;" horiz-adv-x="579" 
d="M527 228h-397q5 -76 56 -123.5t130 -47.5q90 0 142 54l43 -44q-72 -72 -189 -72q-115 0 -187.5 70.5t-72.5 184.5q0 113 66.5 184t171.5 71t171 -71t66 -184v-22zM131 283h318q-2 71 -46.5 115t-110.5 44t-110 -44t-51 -115zM128 637l161 113l160 -113l-40 -41l-120 86
l-121 -86z" />
    <glyph glyph-name="edieresis" unicode="&#xeb;" horiz-adv-x="579" 
d="M527 228h-397q5 -76 56 -123.5t130 -47.5q90 0 142 54l43 -44q-72 -72 -189 -72q-115 0 -187.5 70.5t-72.5 184.5q0 113 66.5 184t171.5 71t171 -71t66 -184v-22zM131 283h318q-2 71 -46.5 115t-110.5 44t-110 -44t-51 -115zM135 606v94h78v-94h-78zM365 606v94h77v-94
h-77z" />
    <glyph glyph-name="igrave" unicode="&#xec;" horiz-adv-x="238" 
d="M158 0h-78v500h78v-500zM23 701l48 49l146 -146l-32 -33z" />
    <glyph glyph-name="iacute" unicode="&#xed;" horiz-adv-x="238" 
d="M158 0h-78v500h78v-500zM169 750l48 -49l-162 -130l-32 33z" />
    <glyph glyph-name="icircumflex" unicode="&#xee;" horiz-adv-x="238" 
d="M-41 637l161 113l160 -113l-40 -41l-120 86l-121 -86zM158 0h-78v500h78v-500z" />
    <glyph glyph-name="idieresis" unicode="&#xef;" horiz-adv-x="238" 
d="M-34 606v94h78v-94h-78zM196 606v94h77v-94h-77zM158 0h-78v500h78v-500z" />
    <glyph glyph-name="eth" unicode="&#xf0;" horiz-adv-x="615" 
d="M353 549h-59l57 77q-43 26 -95 41.5t-82 17.5l-31 2l44 45q12 0 31.5 -1.5t72 -15.5t95.5 -38l37 48h58l-54 -74q135 -100 135 -301v-100q0 -113 -68 -184t-176 -71q-110 0 -178.5 71t-68.5 184t62.5 183.5t159.5 70.5q63 0 114.5 -33t77.5 -90q0 137 -95 218zM485 249
q0 85 -47 138t-121 53q-75 0 -122 -53t-47 -138t47 -138t122 -53q75 1 121.5 54t46.5 137z" />
    <glyph glyph-name="ntilde" unicode="&#xf1;" 
d="M454 0v301q0 64 -37.5 102.5t-98.5 38.5q-68 0 -113 -54t-47 -133v-255h-78v500h78v-126q27 60 77.5 95.5t115.5 35.5q80 0 130.5 -53t50.5 -137v-315h-78zM157 625l-10.5 10.5l-12.5 12.5l-11 11q55 56 112 56q28 0 77 -18.5t72 -18.5q35 0 69 31l34 -34
q-55 -56 -110 -56q-28 0 -76.5 18.5t-72.5 18.5q-37 0 -71 -31z" />
    <glyph glyph-name="ograve" unicode="&#xf2;" horiz-adv-x="616" 
d="M53 250q0 113 71 184t184 71t184.5 -71t71.5 -184t-71.5 -184t-184.5 -71t-184 71t-71 184zM130 250q0 -85 49.5 -138.5t128.5 -53.5t128.5 53.5t49.5 138.5t-49.5 138.5t-128.5 53.5t-128.5 -53.5t-49.5 -138.5zM210 701l48 49l146 -146l-32 -33z" />
    <glyph glyph-name="oacute" unicode="&#xf3;" horiz-adv-x="616" 
d="M53 250q0 113 71 184t184 71t184.5 -71t71.5 -184t-71.5 -184t-184.5 -71t-184 71t-71 184zM130 250q0 -85 49.5 -138.5t128.5 -53.5t128.5 53.5t49.5 138.5t-49.5 138.5t-128.5 53.5t-128.5 -53.5t-49.5 -138.5zM356 750l48 -49l-162 -130l-32 33z" />
    <glyph glyph-name="ocircumflex" unicode="&#xf4;" horiz-adv-x="616" 
d="M147 637l161 113l160 -113l-40 -41l-120 86l-121 -86zM53 250q0 113 71 184t184 71t184.5 -71t71.5 -184t-71.5 -184t-184.5 -71t-184 71t-71 184zM130 250q0 -85 49.5 -138.5t128.5 -53.5t128.5 53.5t49.5 138.5t-49.5 138.5t-128.5 53.5t-128.5 -53.5t-49.5 -138.5z
" />
    <glyph glyph-name="otilde" unicode="&#xf5;" horiz-adv-x="616" 
d="M53 250q0 113 71 184t184 71t184.5 -71t71.5 -184t-71.5 -184t-184.5 -71t-184 71t-71 184zM130 250q0 -85 49.5 -138.5t128.5 -53.5t128.5 53.5t49.5 138.5t-49.5 138.5t-128.5 53.5t-128.5 -53.5t-49.5 -138.5zM159 625l-10.5 10.5l-12.5 12.5l-11 11q55 56 112 56
q28 0 77 -18.5t72 -18.5q35 0 69 31l34 -34q-55 -56 -110 -56q-28 0 -76.5 18.5t-72.5 18.5q-37 0 -71 -31z" />
    <glyph glyph-name="odieresis" unicode="&#xf6;" horiz-adv-x="616" 
d="M53 250q0 113 71 184t184 71t184.5 -71t71.5 -184t-71.5 -184t-184.5 -71t-184 71t-71 184zM130 250q0 -85 49.5 -138.5t128.5 -53.5t128.5 53.5t49.5 138.5t-49.5 138.5t-128.5 53.5t-128.5 -53.5t-49.5 -138.5zM153 606v94h78v-94h-78zM383 606v94h77v-94h-77z" />
    <glyph glyph-name="divide" unicode="&#xf7;" horiz-adv-x="581" 
d="M501 328h-421v64h421v-64zM252 141v104h77v-104h-77zM252 475v104h77v-104h-77z" />
    <glyph glyph-name="oslash" unicode="&#xf8;" horiz-adv-x="616" 
d="M169 -50h-68l53 91q-101 69 -101 209q0 113 71 184t184 71q54 0 103 -19l36 64h68l-53 -92q102 -70 102 -208q0 -113 -71.5 -184t-184.5 -71q-58 0 -102 19zM486 250q0 91 -61 142l-187 -321q30 -13 70 -13q79 0 128.5 53.5t49.5 138.5zM130 250q0 -92 61 -142l187 320
q-33 14 -70 14q-79 0 -128.5 -53.5t-49.5 -138.5z" />
    <glyph glyph-name="ugrave" unicode="&#xf9;" 
d="M158 500v-295q0 -66 38 -106.5t98 -40.5q68 0 113 54t47 133v255h78v-500h-78v125q-28 -60 -78 -95t-115 -35q-80 0 -130.5 55.5t-50.5 144.5v305h78zM208 701l48 49l146 -146l-32 -33z" />
    <glyph glyph-name="uacute" unicode="&#xfa;" 
d="M158 500v-295q0 -66 38 -106.5t98 -40.5q70 0 115 56.5t45 138.5v247h78v-500h-78v125q-28 -60 -78 -95t-115 -35q-80 0 -130.5 55.5t-50.5 144.5v305h78zM354 750l48 -49l-162 -130l-32 33z" />
    <glyph glyph-name="ucircumflex" unicode="&#xfb;" 
d="M145 637l161 113l160 -113l-40 -41l-120 86l-121 -86zM158 500v-295q0 -66 38 -106.5t98 -40.5q68 0 113 54t47 133v255h78v-500h-78v125q-28 -60 -78 -95t-115 -35q-80 0 -130.5 55.5t-50.5 144.5v305h78z" />
    <glyph glyph-name="udieresis" unicode="&#xfc;" 
d="M158 500v-295q0 -66 38 -106.5t98 -40.5q70 0 115 56.5t45 138.5v247h78v-500h-78v125q-28 -60 -78 -95t-115 -35q-80 0 -130.5 55.5t-50.5 144.5v305h78zM151 606v94h78v-94h-78zM381 606v94h77v-94h-77z" />
    <glyph glyph-name="yacute" unicode="&#xfd;" horiz-adv-x="630" 
d="M580 500l-273 -596q-29 -64 -65 -99t-87 -35q-71 0 -113 43l40 41q22 -21 68 -21q30 0 51 25t43 73l33 70l-226 499h76l187 -411l189 411h77zM363 750l48 -49l-162 -130l-32 33z" />
    <glyph glyph-name="thorn" unicode="&#xfe;" horiz-adv-x="604" 
d="M80 -225v950h77v-356q25 62 75 98t115 36q90 0 146.5 -70.5t56.5 -182.5q0 -113 -69 -183t-179 -70q-86 0 -145 36v-258h-77zM157 255v-161q59 -35 138 -35t128.5 53t49.5 138q0 86 -44 138t-114 52q-69 0 -113.5 -53.5t-44.5 -131.5z" />
    <glyph glyph-name="ydieresis" unicode="&#xff;" horiz-adv-x="630" 
d="M580 500l-273 -596q-29 -64 -65 -99t-87 -35q-71 0 -113 43l40 41q22 -21 68 -21q30 0 51 25t43 73l33 70l-226 499h76l187 -411l189 411h77zM160 606v94h78v-94h-78zM390 606v94h77v-94h-77z" />
    <glyph glyph-name="Amacron" unicode="&#x100;" horiz-adv-x="837" 
d="M377 700h84l325 -700h-81l-90 192h-392l-90 -192h-82zM419 612l-166 -351h332zM572 848h-308v52h308v-52z" />
    <glyph glyph-name="amacron" unicode="&#x101;" horiz-adv-x="552" 
d="M114 397l-39 40q76 68 191 68q94 0 152.5 -51.5t58.5 -133.5v-320h-77v112q-25 -54 -72 -85t-109 -31q-74 0 -121 39.5t-47 102.5q0 72 65.5 116.5t170.5 44.5q62 0 113 -10v29q0 55 -36.5 89.5t-93.5 34.5q-97 0 -156 -45zM400 236q-46 14 -108 14q-73 0 -118.5 -29.5
t-45.5 -76.5q0 -39 33 -62.5t85 -23.5q67 0 110.5 51.5t43.5 126.5zM424 648h-308v52h308v-52z" />
    <glyph glyph-name="Abreve" unicode="&#x102;" horiz-adv-x="837" 
d="M377 700h84l325 -700h-81l-90 192h-392l-90 -192h-82zM419 612l-166 -351h332zM248 884l38 40q53 -53 132 -53q81 0 132 53l39 -40q-68 -71 -171 -71q-102 0 -170 71z" />
    <glyph glyph-name="abreve" unicode="&#x103;" horiz-adv-x="552" 
d="M114 397l-39 40q76 68 191 68q94 0 152.5 -51.5t58.5 -133.5v-320h-77v112q-25 -54 -72 -85t-109 -31q-74 0 -121 39.5t-47 102.5q0 72 65.5 116.5t170.5 44.5q62 0 113 -10v29q0 55 -36.5 89.5t-93.5 34.5q-97 0 -156 -45zM400 236q-46 14 -108 14q-73 0 -118.5 -29.5
t-45.5 -76.5q0 -39 33 -62.5t85 -23.5q67 0 110.5 51.5t43.5 126.5zM100 684l38 40q53 -53 132 -53q81 0 132 53l39 -40q-68 -71 -171 -71q-102 0 -170 71z" />
    <glyph glyph-name="Aogonek" unicode="&#x104;" horiz-adv-x="837" 
d="M731 0h-26l-90 192h-392l-90 -192h-82l326 700h84l325 -700q-9 -11 -23 -29.5t-37 -61.5t-23 -70q0 -43 44 -43q34 0 58 25l31 -33q-39 -41 -91 -41q-39 0 -64 23t-25 59q0 38 19 80.5t37 66.5zM419 612l-166 -351h332z" />
    <glyph glyph-name="aogonek" unicode="&#x105;" horiz-adv-x="552" 
d="M114 397l-39 40q76 68 191 68q94 0 152.5 -51.5t58.5 -133.5v-320h-4q-9 -11 -23 -29.5t-37 -61.5t-23 -70q0 -43 44 -43q34 0 58 25l31 -33q-39 -41 -91 -41q-39 0 -64 23t-25 59q0 38 18.5 80.5t37.5 66.5l19 24h-18v112q-25 -54 -72 -85t-109 -31q-74 0 -121 39.5
t-47 102.5q0 72 65.5 116.5t170.5 44.5q62 0 113 -10v29q0 55 -36.5 89.5t-93.5 34.5q-97 0 -156 -45zM400 236q-46 14 -108 14q-73 0 -118.5 -29.5t-45.5 -76.5q0 -39 33 -62.5t85 -23.5q67 0 110.5 51.5t43.5 126.5z" />
    <glyph glyph-name="Cacute" unicode="&#x106;" horiz-adv-x="727" 
d="M618 146l49 -50q-101 -101 -260 -101q-157 0 -255.5 98.5t-98.5 256.5t98.5 256.5t256.5 98.5t259 -101l-49 -50q-75 83 -207 83q-122 0 -199 -80t-77 -207t77 -207t199 -80q133 0 207 83zM442 950l48 -49l-162 -130l-32 33z" />
    <glyph glyph-name="cacute" unicode="&#x107;" horiz-adv-x="539" 
d="M451 111l42 -43q-70 -73 -186 -73q-113 0 -183.5 71t-70.5 184t71 184t184 71q114 0 185 -73l-42 -43q-51 53 -139 53q-81 0 -131.5 -53.5t-50.5 -138.5t50.5 -138.5t131.5 -53.5q88 0 139 53zM348 750l48 -49l-162 -130l-32 33z" />
    <glyph glyph-name="Ccircumflex" unicode="&#x108;" horiz-adv-x="727" 
d="M232 837l161 113l160 -113l-40 -41l-120 86l-121 -86zM618 146l49 -50q-101 -101 -260 -101q-157 0 -255.5 98.5t-98.5 256.5t98.5 256.5t256.5 98.5t259 -101l-49 -50q-75 83 -207 83q-122 0 -199 -80t-77 -207t77 -207t199 -80q133 0 207 83z" />
    <glyph glyph-name="ccircumflex" unicode="&#x109;" horiz-adv-x="539" 
d="M138 637l161 113l160 -113l-40 -41l-120 86l-121 -86zM451 111l42 -43q-70 -73 -186 -73q-113 0 -183.5 71t-70.5 184t71 184t184 71q114 0 185 -73l-42 -43q-51 53 -139 53q-81 0 -131.5 -53.5t-50.5 -138.5t50.5 -138.5t131.5 -53.5q88 0 139 53z" />
    <glyph glyph-name="Cdotaccent" unicode="&#x10a;" horiz-adv-x="727" 
d="M618 146l49 -50q-101 -101 -260 -101q-157 0 -255.5 98.5t-98.5 256.5t98.5 256.5t256.5 98.5t259 -101l-49 -50q-75 83 -207 83q-122 0 -199 -80t-77 -207t77 -207t199 -80q133 0 207 83zM354 806v94h78v-94h-78z" />
    <glyph glyph-name="cdotaccent" unicode="&#x10b;" horiz-adv-x="539" 
d="M451 111l42 -43q-70 -73 -186 -73q-113 0 -183.5 71t-70.5 184t71 184t184 71q114 0 185 -73l-42 -43q-51 53 -139 53q-81 0 -131.5 -53.5t-50.5 -138.5t50.5 -138.5t131.5 -53.5q88 0 139 53zM260 606v94h78v-94h-78z" />
    <glyph glyph-name="Ccaron" unicode="&#x10c;" horiz-adv-x="727" 
d="M553 910l-159 -115l-161 115l40 40l121 -86l120 86zM618 146l49 -50q-101 -101 -260 -101q-157 0 -255.5 98.5t-98.5 256.5t98.5 256.5t256.5 98.5t259 -101l-49 -50q-75 83 -207 83q-122 0 -199 -80t-77 -207t77 -207t199 -80q133 0 207 83z" />
    <glyph glyph-name="ccaron" unicode="&#x10d;" horiz-adv-x="539" 
d="M459 710l-159 -115l-161 115l40 40l121 -86l120 86zM451 111l42 -43q-70 -73 -186 -73q-113 0 -183.5 71t-70.5 184t71 184t184 71q114 0 185 -73l-42 -43q-51 53 -139 53q-81 0 -131.5 -53.5t-50.5 -138.5t50.5 -138.5t131.5 -53.5q88 0 139 53z" />
    <glyph glyph-name="Dcaron" unicode="&#x10e;" horiz-adv-x="742" 
d="M510 910l-159 -115l-161 115l40 40l121 -86l120 86zM80 0v700h262q154 0 251 -97.5t97 -252.5t-97 -252.5t-251 -97.5h-262zM607 350q0 124 -74 202.5t-191 78.5h-179v-562h179q117 0 191 78.5t74 202.5z" />
    <glyph glyph-name="dcaron" unicode="&#x10f;" horiz-adv-x="836" 
d="M447 466v259h77v-725h-77v130q-25 -62 -75 -98t-116 -36q-90 0 -146.5 67.5t-56.5 176.5q0 117 69 190.5t180 73.5q83 0 145 -38zM289 60q67 0 111.5 52t46.5 127v167q-55 34 -138 34q-79 0 -129 -55.5t-50 -144.5q0 -81 44 -130.5t115 -49.5zM646 499l-29 30
q55 55 55 199h67q0 -136 -93 -229z" />
    <glyph glyph-name="Dcroat" unicode="&#x110;" horiz-adv-x="842" 
d="M180 0v323h-100v69h100v308h262q154 0 251 -97.5t97 -252.5t-97 -252.5t-251 -97.5h-262zM501 323h-238v-254h179q117 0 191 78.5t74 202.5t-74 202.5t-191 78.5h-179v-239h238v-69z" />
    <glyph glyph-name="dcroat" unicode="&#x111;" horiz-adv-x="674" 
d="M610 588h-87v-588h-77v130q-24 -62 -74 -97.5t-116 -35.5q-90 0 -147 67.5t-57 175.5q0 117 69.5 190t179.5 73q84 0 145 -37v122h-273v50h273v87h77v-87h87v-50zM446 242v164q-57 34 -137 34t-129.5 -55.5t-49.5 -144.5q0 -82 43.5 -131.5t114.5 -49.5q68 0 113 53
t45 130z" />
    <glyph glyph-name="Emacron" unicode="&#x112;" horiz-adv-x="627" 
d="M80 0v700h476v-69h-393v-239h365v-69h-365v-254h401v-69h-484zM467 848h-308v52h308v-52z" />
    <glyph glyph-name="emacron" unicode="&#x113;" horiz-adv-x="579" 
d="M527 228h-397q5 -76 56 -123.5t130 -47.5q90 0 142 54l43 -44q-72 -72 -189 -72q-115 0 -187.5 70.5t-72.5 184.5q0 113 66.5 184t171.5 71t171 -71t66 -184v-22zM131 283h318q-2 71 -46.5 115t-110.5 44t-110 -44t-51 -115zM443 648h-308v52h308v-52z" />
    <glyph glyph-name="Ebreve" unicode="&#x114;" horiz-adv-x="627" 
d="M80 0v700h476v-69h-393v-239h365v-69h-365v-254h401v-69h-484zM142 884l38 40q53 -53 132 -53q81 0 132 53l39 -40q-68 -71 -171 -71q-102 0 -170 71z" />
    <glyph glyph-name="ebreve" unicode="&#x115;" horiz-adv-x="579" 
d="M527 228h-397q5 -76 56 -123.5t130 -47.5q90 0 142 54l43 -44q-72 -72 -189 -72q-115 0 -187.5 70.5t-72.5 184.5q0 113 66.5 184t171.5 71t171 -71t66 -184v-22zM131 283h318q-2 71 -46.5 115t-110.5 44t-110 -44t-51 -115zM118 684l38 40q53 -53 132 -53q81 0 132 53
l39 -40q-68 -71 -171 -71q-102 0 -170 71z" />
    <glyph glyph-name="Edotaccent" unicode="&#x116;" horiz-adv-x="627" 
d="M80 0v700h476v-69h-393v-239h365v-69h-365v-254h401v-69h-484zM274 806v94h78v-94h-78z" />
    <glyph glyph-name="edotaccent" unicode="&#x117;" horiz-adv-x="579" 
d="M527 228h-397q5 -76 56 -123.5t130 -47.5q90 0 142 54l43 -44q-72 -72 -189 -72q-115 0 -187.5 70.5t-72.5 184.5q0 113 66.5 184t171.5 71t171 -71t66 -184v-22zM131 283h318q-2 71 -46.5 115t-110.5 44t-110 -44t-51 -115zM250 606v94h78v-94h-78z" />
    <glyph glyph-name="Eogonek" unicode="&#x118;" horiz-adv-x="627" 
d="M80 0v700h476v-69h-393v-239h365v-69h-365v-254h401v-69h-1q-9 -11 -23 -29.5t-37 -61.5t-23 -70q0 -43 44 -43q34 0 58 25l31 -33q-39 -41 -91 -41q-39 0 -64 23t-25 59q0 38 18.5 80.5t37.5 66.5l19 24h-428z" />
    <glyph glyph-name="eogonek" unicode="&#x119;" horiz-adv-x="579" 
d="M527 228h-397q5 -76 56 -123.5t130 -47.5q90 0 142 54l43 -44q-9 -11 -23 -29.5t-37 -61.5t-23 -70q0 -43 44 -43q34 0 58 25l31 -33q-39 -41 -91 -41q-39 0 -64 23t-25 59q0 53 35 113q-45 -14 -94 -14q-115 0 -187.5 70.5t-72.5 184.5q0 113 66.5 184t171.5 71t171 -71
t66 -184v-22zM131 283h318q-2 71 -46.5 115t-110.5 44t-110 -44t-51 -115z" />
    <glyph glyph-name="Ecaron" unicode="&#x11a;" horiz-adv-x="627" 
d="M473 910l-159 -115l-161 115l40 40l121 -86l120 86zM80 0v700h476v-69h-393v-239h365v-69h-365v-254h401v-69h-484z" />
    <glyph glyph-name="ecaron" unicode="&#x11b;" horiz-adv-x="579" 
d="M527 228h-397q5 -76 56 -123.5t130 -47.5q90 0 142 54l43 -44q-72 -72 -189 -72q-115 0 -187.5 70.5t-72.5 184.5q0 113 66.5 184t171.5 71t171 -71t66 -184v-22zM131 283h318q-2 71 -46.5 115t-110.5 44t-110 -44t-51 -115zM449 710l-159 -115l-161 115l40 40l121 -86
l120 86z" />
    <glyph glyph-name="Gcircumflex" unicode="&#x11c;" horiz-adv-x="747" 
d="M392 308v69h275v-281q-101 -101 -260 -101q-158 0 -256 98.5t-98 256.5t98.5 256.5t256.5 98.5t259 -101l-49 -50q-75 83 -207 83q-122 0 -199 -80t-77 -208q0 -126 77 -206t199 -80q105 0 174 55v190h-193zM213 837l161 113l160 -113l-40 -41l-120 86l-121 -86z" />
    <glyph glyph-name="gcircumflex" unicode="&#x11d;" horiz-adv-x="599" 
d="M73 -157l41 42q58 -52 154 -52q77 0 125.5 46.5t48.5 120.5v112q-25 -54 -74.5 -85t-113.5 -31q-89 0 -145 67.5t-56 176.5q0 118 78 191.5t202 73.5q109 0 186 -35v-470q0 -102 -70 -166t-181 -64q-119 0 -195 73zM442 207v216q-55 19 -124 19q-83 0 -135.5 -56.5
t-52.5 -145.5q0 -81 43.5 -130.5t113.5 -49.5q67 0 110 42.5t45 104.5zM138 637l161 113l160 -113l-40 -41l-120 86l-121 -86z" />
    <glyph glyph-name="Gbreve" unicode="&#x11e;" horiz-adv-x="747" 
d="M392 308v69h275v-281q-101 -101 -260 -101q-158 0 -256 98.5t-98 256.5t98.5 256.5t256.5 98.5t259 -101l-49 -50q-75 83 -207 83q-122 0 -199 -80t-77 -208q0 -126 77 -206t199 -80q105 0 174 55v190h-193zM203 884l38 40q53 -53 132 -53q81 0 132 53l39 -40
q-68 -71 -171 -71q-102 0 -170 71z" />
    <glyph glyph-name="gbreve" unicode="&#x11f;" horiz-adv-x="599" 
d="M73 -157l41 42q58 -52 154 -52q77 0 125.5 46.5t48.5 120.5v112q-25 -54 -74.5 -85t-113.5 -31q-89 0 -145 67.5t-56 176.5q0 118 78 191.5t202 73.5q109 0 186 -35v-470q0 -102 -70 -166t-181 -64q-119 0 -195 73zM442 207v216q-55 19 -124 19q-83 0 -135.5 -56.5
t-52.5 -145.5q0 -81 43.5 -130.5t113.5 -49.5q67 0 110 42.5t45 104.5zM128 684l38 40q53 -53 132 -53q81 0 132 53l39 -40q-68 -71 -171 -71q-102 0 -170 71z" />
    <glyph glyph-name="Gdotaccent" unicode="&#x120;" horiz-adv-x="747" 
d="M392 308v69h275v-281q-101 -101 -260 -101q-158 0 -256 98.5t-98 256.5t98.5 256.5t256.5 98.5t259 -101l-49 -50q-75 83 -207 83q-122 0 -199 -80t-77 -208q0 -126 77 -206t199 -80q105 0 174 55v190h-193zM334 806v94h78v-94h-78z" />
    <glyph glyph-name="gdotaccent" unicode="&#x121;" horiz-adv-x="599" 
d="M73 -157l41 42q58 -52 154 -52q77 0 125.5 46.5t48.5 120.5v112q-25 -54 -74.5 -85t-113.5 -31q-89 0 -145 67.5t-56 176.5q0 118 78 191.5t202 73.5q109 0 186 -35v-470q0 -102 -70 -166t-181 -64q-119 0 -195 73zM442 207v216q-55 19 -124 19q-83 0 -135.5 -56.5
t-52.5 -145.5q0 -81 43.5 -130.5t113.5 -49.5q67 0 110 42.5t45 104.5zM260 606v94h78v-94h-78z" />
    <glyph glyph-name="uni0122" unicode="&#x122;" horiz-adv-x="747" 
d="M392 308v69h275v-281q-101 -101 -260 -101q-158 0 -256 98.5t-98 256.5t98.5 256.5t256.5 98.5t259 -101l-49 -50q-75 83 -207 83q-122 0 -199 -80t-77 -208q0 -126 77 -206t199 -80q105 0 174 55v190h-193zM343 -287l-27 28q54 54 54 179h60q0 -118 -87 -207z" />
    <glyph glyph-name="uni0123" unicode="&#x123;" horiz-adv-x="599" 
d="M73 -157l41 42q58 -52 154 -52q77 0 125.5 46.5t48.5 120.5v112q-25 -54 -74.5 -85t-113.5 -31q-89 0 -145 67.5t-56 176.5q0 118 78 191.5t202 73.5q109 0 186 -35v-470q0 -102 -70 -166t-181 -64q-119 0 -195 73zM442 207v216q-55 19 -124 19q-83 0 -135.5 -56.5
t-52.5 -145.5q0 -81 43.5 -130.5t113.5 -49.5q67 0 110 42.5t45 104.5zM362 811l29 -30q-56 -56 -56 -198h-67q0 134 94 228z" />
    <glyph glyph-name="Hcircumflex" unicode="&#x124;" horiz-adv-x="750" 
d="M214 837l161 113l160 -113l-40 -41l-120 86l-121 -86zM587 0v323h-424v-323h-83v700h83v-308h424v308h82v-700h-82z" />
    <glyph glyph-name="hcircumflex" unicode="&#x125;" 
d="M145 837l161 113l160 -113l-40 -41l-120 86l-121 -86zM454 0v301q0 63 -38 102t-98 39q-70 0 -115 -56.5t-45 -138.5v-247h-78v725h78v-351q27 60 77.5 95.5t115.5 35.5q80 0 130.5 -53t50.5 -137v-315h-78z" />
    <glyph glyph-name="Hbar" unicode="&#x126;" horiz-adv-x="909" 
d="M849 514h-100v-514h-83v323h-424v-323h-82v514h-100v63h100v123h82v-123h424v123h83v-123h100v-63zM242 392h424v122h-424v-122z" />
    <glyph glyph-name="hbar" unicode="&#x127;" horiz-adv-x="676" 
d="M519 0v301q0 63 -38 102t-98 39q-68 0 -113.5 -54t-47.5 -133v-255h-77v589h-87v49h87v87h77v-87h273v-49h-273v-220q26 63 77 99.5t117 36.5q80 0 130 -53t50 -137v-315h-77z" />
    <glyph glyph-name="Itilde" unicode="&#x128;" horiz-adv-x="243" 
d="M-26 825l-10.5 10.5l-12.5 12.5l-11 11q55 56 112 56q28 0 77 -18.5t72 -18.5q35 0 69 31l34 -34q-55 -56 -110 -56q-28 0 -76.5 18.5t-72.5 18.5q-37 0 -71 -31zM163 0h-83v700h83v-700z" />
    <glyph glyph-name="itilde" unicode="&#x129;" horiz-adv-x="238" 
d="M-29 625l-10.5 10.5l-12.5 12.5l-11 11q55 56 112 56q28 0 77 -18.5t72 -18.5q35 0 69 31l34 -34q-55 -56 -110 -56q-28 0 -76.5 18.5t-72.5 18.5q-37 0 -71 -31zM158 0h-78v500h78v-500z" />
    <glyph glyph-name="Imacron" unicode="&#x12a;" horiz-adv-x="243" 
d="M276 848h-308v52h308v-52zM163 0h-83v700h83v-700z" />
    <glyph glyph-name="imacron" unicode="&#x12b;" horiz-adv-x="238" 
d="M273 648h-308v52h308v-52zM158 0h-78v500h78v-500z" />
    <glyph glyph-name="Ibreve" unicode="&#x12c;" horiz-adv-x="243" 
d="M-48 884l38 40q53 -53 132 -53q81 0 132 53l39 -40q-68 -71 -171 -71q-102 0 -170 71zM163 0h-83v700h83v-700z" />
    <glyph glyph-name="ibreve" unicode="&#x12d;" horiz-adv-x="238" 
d="M-51 684l38 40q53 -53 132 -53q81 0 132 53l39 -40q-68 -71 -171 -71q-102 0 -170 71zM158 0h-78v500h78v-500z" />
    <glyph glyph-name="Iogonek" unicode="&#x12e;" horiz-adv-x="243" 
d="M108 0h-28v700h83v-700q-9 -11 -23 -29.5t-37 -61.5t-23 -70q0 -43 44 -43q34 0 58 25l31 -33q-39 -41 -91 -41q-39 0 -64 23t-25 59q0 38 18.5 80.5t37.5 66.5z" />
    <glyph glyph-name="iogonek" unicode="&#x12f;" horiz-adv-x="238" 
d="M103 0h-23v500h78v-500q-9 -11 -23 -29.5t-37 -61.5t-23 -70q0 -43 44 -43q34 0 58 25l31 -33q-39 -41 -91 -41q-39 0 -64 23t-25 59q0 38 18.5 80.5t37.5 66.5zM80 606v94h78v-94h-78z" />
    <glyph glyph-name="Idotaccent" unicode="&#x130;" horiz-adv-x="243" 
d="M82 806v94h78v-94h-78zM163 0h-83v700h83v-700z" />
    <glyph glyph-name="dotlessi" unicode="&#x131;" horiz-adv-x="238" 
d="M158 0h-78v500h78v-500z" />
    <glyph glyph-name="IJ" unicode="&#x132;" horiz-adv-x="821" 
d="M658 250v450h83v-450q0 -113 -71.5 -184t-186.5 -71q-116 0 -189 73l48 49q49 -54 136 -54q79 0 129.5 52t50.5 135zM163 0h-83v700h83v-700z" />
    <glyph glyph-name="ij" unicode="&#x133;" horiz-adv-x="476" 
d="M107 -181l41 42q26 -28 76 -28q41 0 67.5 29.5t26.5 75.5v562h78v-559q0 -76 -46.5 -123.5t-120.5 -47.5q-75 0 -122 49zM318 606v94h78v-94h-78zM158 0h-78v500h78v-500zM80 606v94h78v-94h-78z" />
    <glyph glyph-name="Jcircumflex" unicode="&#x134;" horiz-adv-x="580" 
d="M298 837l161 113l160 -113l-40 -41l-120 86l-121 -86zM417 250v450h83v-450q0 -113 -71.5 -184t-186.5 -71q-116 0 -189 73l48 49q49 -54 136 -54q79 0 129.5 52t50.5 135z" />
    <glyph glyph-name="jcircumflex" unicode="&#x135;" horiz-adv-x="278" 
d="M-1 637l161 113l160 -113l-40 -41l-120 86l-121 -86zM-91 -181l41 42q26 -28 76 -28q41 0 67.5 29.5t26.5 75.5v562h78v-559q0 -76 -46.5 -123.5t-120.5 -47.5q-75 0 -122 49z" />
    <glyph glyph-name="uni0136" unicode="&#x136;" horiz-adv-x="676" 
d="M163 0h-83v700h83v-341l339 341h103l-299 -303l327 -397h-95l-286 340l-89 -94v-246zM307 -287l-27 28q54 54 54 179h60q0 -118 -87 -207z" />
    <glyph glyph-name="uni0137" unicode="&#x137;" horiz-adv-x="556" 
d="M158 0h-78v725h78v-468l236 243h93l-213 -222l246 -278h-90l-205 227l-67 -72v-155zM247 -287l-27 28q54 54 54 179h60q0 -118 -87 -207z" />
    <glyph glyph-name="kgreenlandic" unicode="&#x138;" horiz-adv-x="548" 
d="M158 0h-78v500h78v-248l238 248h92l-204 -213l228 -287h-87l-190 235l-77 -80v-155z" />
    <glyph glyph-name="Lacute" unicode="&#x139;" horiz-adv-x="642" 
d="M80 0v700h83v-631h416v-69h-499zM394 950l48 -49l-162 -130l-32 33z" />
    <glyph glyph-name="lacute" unicode="&#x13a;" horiz-adv-x="326" 
d="M248 73l41 -42q-33 -36 -88 -36q-53 0 -87 34.5t-34 89.5v606h78v-611q0 -25 14 -40.5t36 -15.5q26 0 40 15zM170 975l48 -49l-162 -130l-32 33z" />
    <glyph glyph-name="uni013B" unicode="&#x13b;" horiz-adv-x="642" 
d="M80 0v700h83v-631h416v-69h-499zM290 -287l-27 28q54 54 54 179h60q0 -118 -87 -207z" />
    <glyph glyph-name="uni013C" unicode="&#x13c;" horiz-adv-x="326" 
d="M248 73l41 -42q-33 -36 -88 -36q-53 0 -87 34.5t-34 89.5v606h78v-611q0 -25 14 -40.5t36 -15.5q26 0 40 15zM132 -287l-27 28q54 54 54 179h60q0 -118 -87 -207z" />
    <glyph glyph-name="Lcaron" unicode="&#x13d;" horiz-adv-x="642" 
d="M282 910l-159 -115l-161 115l40 40l121 -86l120 86zM80 0v700h83v-631h416v-69h-499z" />
    <glyph glyph-name="lcaron" unicode="&#x13e;" horiz-adv-x="503" 
d="M248 73l41 -42q-33 -36 -88 -36q-53 0 -87 34.5t-34 89.5v606h78v-611q0 -25 14 -40.5t36 -15.5q26 0 40 15zM313 499l-29 30q55 55 55 199h67q0 -136 -93 -229z" />
    <glyph glyph-name="Ldot" unicode="&#x13f;" horiz-adv-x="642" 
d="M80 0v700h83v-631h416v-69h-499zM501 244v112h78v-112h-78z" />
    <glyph glyph-name="ldot" unicode="&#x140;" horiz-adv-x="494" 
d="M248 73l41 -42q-33 -36 -88 -36q-53 0 -87 34.5t-34 89.5v606h78v-611q0 -25 14 -40.5t36 -15.5q26 0 40 15zM336 244v112h78v-112h-78z" />
    <glyph glyph-name="Lslash" unicode="&#x141;" horiz-adv-x="774" 
d="M452 453l-157 -90v-294h416v-69h-498v313l-125 -71l-31 55l156 89v314h82v-264l126 72z" />
    <glyph glyph-name="lslash" unicode="&#x142;" horiz-adv-x="484" 
d="M443 453l-160 -92v-247q0 -25 14.5 -40.5t36.5 -15.5q26 0 40 15l41 -42q-34 -36 -89 -36q-53 0 -86.5 34.5t-33.5 89.5v196l-128 -73l-30 55l158 91v337h77v-291l129 74z" />
    <glyph glyph-name="Nacute" unicode="&#x143;" horiz-adv-x="762" 
d="M599 0l-436 571v-571h-83v700h83l436 -571v571h83v-700h-83zM430 950l48 -49l-162 -130l-32 33z" />
    <glyph glyph-name="nacute" unicode="&#x144;" 
d="M454 0v301q0 64 -37.5 102.5t-98.5 38.5q-70 0 -115 -56.5t-45 -138.5v-247h-78v500h78v-126q27 60 77.5 95.5t115.5 35.5q80 0 130.5 -53t50.5 -137v-315h-78zM354 750l48 -49l-162 -130l-32 33z" />
    <glyph glyph-name="uni0145" unicode="&#x145;" horiz-adv-x="762" 
d="M599 0l-436 571v-571h-83v700h83l436 -571v571h83v-700h-83zM345 -287l-27 28q54 54 54 179h60q0 -118 -87 -207z" />
    <glyph glyph-name="uni0146" unicode="&#x146;" 
d="M454 0v301q0 64 -37.5 102.5t-98.5 38.5q-70 0 -115 -56.5t-45 -138.5v-247h-78v500h78v-126q27 60 77.5 95.5t115.5 35.5q80 0 130.5 -53t50.5 -137v-315h-78zM268 -287l-27 28q54 54 54 179h60q0 -118 -87 -207z" />
    <glyph glyph-name="Ncaron" unicode="&#x147;" horiz-adv-x="762" 
d="M540 910l-159 -115l-161 115l40 40l121 -86l120 86zM599 0l-436 571v-571h-83v700h83l436 -571v571h83v-700h-83z" />
    <glyph glyph-name="ncaron" unicode="&#x148;" 
d="M465 710l-159 -115l-161 115l40 40l121 -86l120 86zM454 0v301q0 64 -37.5 102.5t-98.5 38.5q-70 0 -115 -56.5t-45 -138.5v-247h-78v500h78v-126q27 60 77.5 95.5t115.5 35.5q80 0 130.5 -53t50.5 -137v-315h-78z" />
    <glyph glyph-name="Eng" unicode="&#x14a;" horiz-adv-x="762" 
d="M574 -242l-33 35q58 59 58 207l-436 571v-571h-83v700h83l436 -571v571h83v-700q0 -132 -108 -242z" />
    <glyph glyph-name="eng" unicode="&#x14b;" 
d="M424 -242l-34 35q64 64 64 207v301q0 64 -37.5 102.5t-98.5 38.5q-68 0 -113 -55t-47 -135v-252h-78v500h78v-131q25 63 76 99.5t117 36.5q80 0 130.5 -53t50.5 -137v-315q0 -132 -108 -242z" />
    <glyph glyph-name="Omacron" unicode="&#x14c;" horiz-adv-x="811" 
d="M53 350q0 157 98 256t254 99q157 0 255 -98.5t98 -256.5t-98 -256.5t-255 -98.5q-156 0 -254 99t-98 256zM135 350q0 -126 75.5 -206.5t194.5 -80.5q120 0 195.5 80.5t75.5 206.5t-75.5 206.5t-195.5 80.5q-119 0 -194.5 -80.5t-75.5 -206.5zM559 848h-308v52h308v-52z
" />
    <glyph glyph-name="omacron" unicode="&#x14d;" horiz-adv-x="616" 
d="M53 250q0 113 71 184t184 71t184.5 -71t71.5 -184t-71.5 -184t-184.5 -71t-184 71t-71 184zM130 250q0 -85 49.5 -138.5t128.5 -53.5t128.5 53.5t49.5 138.5t-49.5 138.5t-128.5 53.5t-128.5 -53.5t-49.5 -138.5zM462 648h-308v52h308v-52z" />
    <glyph glyph-name="Obreve" unicode="&#x14e;" horiz-adv-x="811" 
d="M53 350q0 157 98 256t254 99q157 0 255 -98.5t98 -256.5t-98 -256.5t-255 -98.5q-156 0 -254 99t-98 256zM135 350q0 -126 75.5 -206.5t194.5 -80.5q120 0 195.5 80.5t75.5 206.5t-75.5 206.5t-195.5 80.5q-119 0 -194.5 -80.5t-75.5 -206.5zM234 884l38 40
q53 -53 132 -53q81 0 132 53l39 -40q-68 -71 -171 -71q-102 0 -170 71z" />
    <glyph glyph-name="obreve" unicode="&#x14f;" horiz-adv-x="616" 
d="M53 250q0 113 71 184t184 71t184.5 -71t71.5 -184t-71.5 -184t-184.5 -71t-184 71t-71 184zM130 250q0 -85 49.5 -138.5t128.5 -53.5t128.5 53.5t49.5 138.5t-49.5 138.5t-128.5 53.5t-128.5 -53.5t-49.5 -138.5zM137 684l38 40q53 -53 132 -53q81 0 132 53l39 -40
q-68 -71 -171 -71q-102 0 -170 71z" />
    <glyph glyph-name="Ohungarumlaut" unicode="&#x150;" horiz-adv-x="811" 
d="M53 350q0 157 98 256t254 99q157 0 255 -98.5t98 -256.5t-98 -256.5t-255 -98.5q-156 0 -254 99t-98 256zM135 350q0 -126 75.5 -206.5t194.5 -80.5q120 0 195.5 80.5t75.5 206.5t-75.5 206.5t-195.5 80.5q-119 0 -194.5 -80.5t-75.5 -206.5zM364 950l48 -49l-162 -130
l-32 33zM594 950l47 -49l-161 -130l-32 33z" />
    <glyph glyph-name="ohungarumlaut" unicode="&#x151;" horiz-adv-x="616" 
d="M53 250q0 113 71 184t184 71t184.5 -71t71.5 -184t-71.5 -184t-184.5 -71t-184 71t-71 184zM130 250q0 -85 49.5 -138.5t128.5 -53.5t128.5 53.5t49.5 138.5t-49.5 138.5t-128.5 53.5t-128.5 -53.5t-49.5 -138.5zM267 750l48 -49l-162 -130l-32 33zM497 750l47 -49
l-161 -130l-32 33z" />
    <glyph glyph-name="OE" unicode="&#x152;" horiz-adv-x="1223" 
d="M678 0v136q-40 -67 -111 -104t-162 -37q-157 0 -255 98.5t-98 256.5t98 256.5t255 98.5q90 0 161.5 -38t111.5 -105v138h473v-69h-393v-240h365v-68h-365v-255h401v-68h-481zM135 350q0 -127 75.5 -207t194.5 -80q120 0 195 80t75 207q0 126 -75 206t-195 80
q-119 0 -194.5 -80t-75.5 -206z" />
    <glyph glyph-name="oe" unicode="&#x153;" horiz-adv-x="1013" 
d="M960 228h-397q5 -76 56.5 -123.5t130.5 -47.5q90 0 142 54l43 -44q-72 -72 -190 -72q-75 0 -132.5 32.5t-87.5 90.5q-29 -58 -86 -90.5t-131 -32.5q-114 0 -185 70.5t-71 184.5q0 113 71.5 184t184.5 71q73 0 129.5 -32.5t85.5 -89.5q27 57 79.5 89.5t121.5 32.5
q105 0 170.5 -71t65.5 -184v-22zM130 250q0 -85 49.5 -139t128.5 -54t128.5 53t49.5 140q0 85 -49.5 138.5t-128.5 53.5t-128.5 -53.5t-49.5 -138.5zM564 283h319q-3 71 -47.5 115t-110.5 44q-65 0 -109 -44t-52 -115z" />
    <glyph glyph-name="Racute" unicode="&#x154;" horiz-adv-x="618" 
d="M484 0l-224 298h-97v-298h-83v700h269q88 0 143.5 -56t55.5 -145q0 -88 -54.5 -144t-141.5 -57l224 -298h-92zM163 367h177q55 0 90.5 37t35.5 95t-35.5 95t-90.5 37h-177v-264zM357 950l48 -49l-162 -130l-32 33z" />
    <glyph glyph-name="racute" unicode="&#x155;" horiz-adv-x="415" 
d="M352 505v-68q-82 0 -136.5 -56t-57.5 -137v-244h-78v500h78v-143q25 68 76.5 108t117.5 40zM256 750l48 -49l-162 -130l-32 33z" />
    <glyph glyph-name="uni0156" unicode="&#x156;" horiz-adv-x="618" 
d="M484 0l-224 298h-97v-298h-83v700h269q88 0 143.5 -56t55.5 -145q0 -88 -54.5 -144t-141.5 -57l224 -298h-92zM163 367h177q55 0 90.5 37t35.5 95t-35.5 95t-90.5 37h-177v-264zM278 -287l-27 28q54 54 54 179h60q0 -118 -87 -207z" />
    <glyph glyph-name="uni0157" unicode="&#x157;" horiz-adv-x="415" 
d="M352 505v-68q-85 0 -139.5 -58.5t-54.5 -142.5v-236h-78v500h78v-143q25 68 76.5 108t117.5 40zM63 -287l-27 28q54 54 54 179h60q0 -118 -87 -207z" />
    <glyph glyph-name="Rcaron" unicode="&#x158;" horiz-adv-x="618" 
d="M484 0l-224 298h-97v-298h-83v700h269q88 0 143.5 -56t55.5 -145q0 -88 -54.5 -144t-141.5 -57l224 -298h-92zM163 367h177q55 0 90.5 37t35.5 95t-35.5 95t-90.5 37h-177v-264zM468 910l-159 -115l-161 115l40 40l121 -86l120 86z" />
    <glyph glyph-name="rcaron" unicode="&#x159;" horiz-adv-x="415" 
d="M368 710l-159 -115l-161 115l40 40l121 -86l120 86zM352 505v-68q-82 0 -136.5 -56t-57.5 -137v-244h-78v500h78v-143q25 68 76.5 108t117.5 40z" />
    <glyph glyph-name="Sacute" unicode="&#x15a;" horiz-adv-x="572" 
d="M511 199q0 -91 -68 -147.5t-170 -56.5q-132 0 -225 101l43 44q70 -77 180 -77q69 0 113.5 36.5t44.5 94.5q0 41 -38 69.5t-92 46.5t-107.5 39t-91.5 62.5t-38 102.5q0 86 60.5 138.5t154.5 52.5q131 0 222 -101l-42 -45q-69 78 -173 78q-64 0 -102 -33t-38 -86
q0 -33 20 -58.5t52.5 -41.5t72 -30t78.5 -29.5t71.5 -35t52.5 -51t20 -73.5zM334 950l48 -49l-162 -130l-32 33z" />
    <glyph glyph-name="sacute" unicode="&#x15b;" horiz-adv-x="448" 
d="M399 144q0 -66 -52 -107.5t-128 -41.5q-102 0 -170 73l41 42q47 -52 129 -52q44 0 73.5 23.5t29.5 59.5q0 27 -27 46t-65.5 32t-77 28t-65.5 45t-27 73q0 62 46.5 101.5t115.5 39.5q100 0 165 -73l-41 -42q-46 51 -120 51q-40 0 -64.5 -21t-24.5 -54q0 -29 27 -49
t65.5 -33t77 -28t65.5 -43.5t27 -69.5zM273 750l48 -49l-162 -130l-32 33z" />
    <glyph glyph-name="Scircumflex" unicode="&#x15c;" horiz-adv-x="572" 
d="M511 199q0 -91 -68 -147.5t-170 -56.5q-132 0 -225 101l43 44q70 -77 180 -77q69 0 113.5 36.5t44.5 94.5q0 41 -38 69.5t-92 46.5t-107.5 39t-91.5 62.5t-38 102.5q0 86 60.5 138.5t154.5 52.5q131 0 222 -101l-42 -45q-69 78 -173 78q-64 0 -102 -33t-38 -86
q0 -33 20 -58.5t52.5 -41.5t72 -30t78.5 -29.5t71.5 -35t52.5 -51t20 -73.5zM124 837l161 113l160 -113l-40 -41l-120 86l-121 -86z" />
    <glyph glyph-name="scircumflex" unicode="&#x15d;" horiz-adv-x="448" 
d="M399 144q0 -66 -52 -107.5t-128 -41.5q-102 0 -170 73l41 42q47 -52 129 -52q44 0 73.5 23.5t29.5 59.5q0 27 -27 46t-65.5 32t-77 28t-65.5 45t-27 73q0 62 46.5 101.5t115.5 39.5q100 0 165 -73l-41 -42q-46 51 -120 51q-40 0 -64.5 -21t-24.5 -54q0 -29 27 -49
t65.5 -33t77 -28t65.5 -43.5t27 -69.5zM63 637l161 113l160 -113l-40 -41l-120 86l-121 -86z" />
    <glyph glyph-name="Scedilla" unicode="&#x15e;" horiz-adv-x="572" 
d="M197 -159l30 29q29 -29 57 -29q21 0 32.5 9.5t11.5 24.5q0 12 -7 20t-17.5 14.5t-20.5 15t-17.5 26.5t-8.5 45q-124 6 -209 100l43 44q70 -77 180 -77q69 0 113.5 36.5t44.5 94.5q0 41 -38 69.5t-92 46.5t-107.5 39t-91.5 62.5t-38 102.5q0 86 60.5 138.5t154.5 52.5
q131 0 222 -101l-42 -45q-69 78 -173 78q-64 0 -102 -33t-38 -86q0 -33 20 -58.5t52.5 -41.5t72 -30t78.5 -29.5t71.5 -35t52.5 -51t20 -73.5q0 -85 -59 -139.5t-150 -62.5q1 -24 8.5 -39t17.5 -22t20.5 -13t17.5 -19t7 -34q0 -32 -24.5 -52t-62.5 -20q-51 0 -89 43z" />
    <glyph glyph-name="scedilla" unicode="&#x15f;" horiz-adv-x="448" 
d="M135 -159l30 29q29 -29 57 -29q21 0 32.5 9.5t11.5 24.5q0 12 -7 20t-17.5 14.5t-21 15t-18 27t-7.5 45.5q-87 7 -146 71l41 42q47 -52 129 -52q44 0 73.5 23.5t29.5 59.5q0 27 -27 46t-65.5 32t-77 28t-65.5 45t-27 73q0 62 46.5 101.5t115.5 39.5q100 0 165 -73
l-41 -42q-46 51 -120 51q-40 0 -64.5 -21t-24.5 -54q0 -29 27 -49t65.5 -33t77 -28t65.5 -43.5t27 -69.5q0 -61 -45 -101.5t-114 -46.5q1 -29 12 -45t24 -21t24 -19.5t11 -40.5q0 -32 -24.5 -52t-62.5 -20q-51 0 -89 43z" />
    <glyph glyph-name="Scaron" unicode="&#x160;" horiz-adv-x="572" 
d="M511 199q0 -91 -68 -147.5t-170 -56.5q-132 0 -225 101l43 44q70 -77 180 -77q69 0 113.5 36.5t44.5 94.5q0 41 -38 69.5t-92 46.5t-107.5 39t-91.5 62.5t-38 102.5q0 86 60.5 138.5t154.5 52.5q131 0 222 -101l-42 -45q-69 78 -173 78q-64 0 -102 -33t-38 -86
q0 -33 20 -58.5t52.5 -41.5t72 -30t78.5 -29.5t71.5 -35t52.5 -51t20 -73.5zM445 910l-159 -115l-161 115l40 40l121 -86l120 86z" />
    <glyph glyph-name="scaron" unicode="&#x161;" horiz-adv-x="448" 
d="M399 144q0 -66 -52 -107.5t-128 -41.5q-102 0 -170 73l41 42q47 -52 129 -52q44 0 73.5 23.5t29.5 59.5q0 27 -27 46t-65.5 32t-77 28t-65.5 45t-27 73q0 62 46.5 101.5t115.5 39.5q100 0 165 -73l-41 -42q-46 51 -120 51q-40 0 -64.5 -21t-24.5 -54q0 -29 27 -49
t65.5 -33t77 -28t65.5 -43.5t27 -69.5zM384 710l-159 -115l-161 115l40 40l121 -86l120 86z" />
    <glyph glyph-name="uni0162" unicode="&#x162;" horiz-adv-x="743" 
d="M58 631v69h627v-69h-272v-631h-83v631h-272zM315 -287l-27 28q54 54 54 179h60q0 -118 -87 -207z" />
    <glyph glyph-name="uni0163" unicode="&#x163;" horiz-adv-x="468" 
d="M50 437v63h75v115h77v-115h187v-63h-187v-263q0 -51 30.5 -83.5t78.5 -32.5t82 32l41 -42q-50 -53 -132 -53q-78 0 -127.5 50.5t-49.5 131.5v260h-75zM208 -287l-27 28q54 54 54 179h60q0 -118 -87 -207z" />
    <glyph glyph-name="Tcaron" unicode="&#x164;" horiz-adv-x="743" 
d="M531 910l-159 -115l-161 115l40 40l121 -86l120 86zM58 631v69h627v-69h-272v-631h-83v631h-272z" />
    <glyph glyph-name="tcaron" unicode="&#x165;" horiz-adv-x="690" 
d="M50 437v63h75v115h77v-115h187v-63h-187v-263q0 -51 30.5 -83.5t78.5 -32.5t82 32l41 -42q-50 -53 -132 -53q-78 0 -127.5 50.5t-49.5 131.5v260h-75zM507 385l-29 30q55 55 55 199h67q0 -136 -93 -229z" />
    <glyph glyph-name="Tbar" unicode="&#x166;" horiz-adv-x="743" 
d="M612 387h-199v-387h-83v387h-199v63h199v181h-272v69h627v-69h-272v-181h199v-63z" />
    <glyph glyph-name="tbar" unicode="&#x167;" horiz-adv-x="473" 
d="M394 273h-186v-99q0 -52 30.5 -84t77.5 -32q48 0 82 32l41 -42q-48 -53 -131 -53q-79 0 -128.5 50.5t-49.5 131.5v96h-75v58h75v106h-75v63h75v115h78v-115h186v-63h-186v-106h186v-58z" />
    <glyph glyph-name="Utilde" unicode="&#x168;" horiz-adv-x="773" 
d="M610 305v395h82v-395q0 -142 -83.5 -226t-222.5 -84t-222.5 84t-83.5 226v395h83v-395q0 -108 62 -175t161 -67q100 0 162 67t62 175zM237 825l-10.5 10.5l-12.5 12.5l-11 11q55 56 112 56q28 0 77 -18.5t72 -18.5q35 0 69 31l34 -34q-55 -56 -110 -56q-28 0 -76.5 18.5
t-72.5 18.5q-37 0 -71 -31z" />
    <glyph glyph-name="utilde" unicode="&#x169;" 
d="M158 500v-295q0 -66 38 -106.5t98 -40.5q68 0 113 54t47 133v255h78v-500h-78v125q-28 -60 -78 -95t-115 -35q-80 0 -130.5 55.5t-50.5 144.5v305h78zM157 625l-10.5 10.5l-12.5 12.5l-11 11q55 56 112 56q28 0 77 -18.5t72 -18.5q35 0 69 31l34 -34q-55 -56 -110 -56
q-28 0 -76.5 18.5t-72.5 18.5q-37 0 -71 -31z" />
    <glyph glyph-name="Umacron" unicode="&#x16a;" horiz-adv-x="773" 
d="M610 305v395h82v-395q0 -142 -83.5 -226t-222.5 -84t-222.5 84t-83.5 226v395h83v-395q0 -108 62 -175t161 -67q100 0 162 67t62 175zM539 848h-308v52h308v-52z" />
    <glyph glyph-name="umacron" unicode="&#x16b;" 
d="M158 500v-295q0 -66 38 -106.5t98 -40.5q70 0 115 56.5t45 138.5v247h78v-500h-78v125q-28 -60 -78 -95t-115 -35q-80 0 -130.5 55.5t-50.5 144.5v305h78zM459 648h-308v52h308v-52z" />
    <glyph glyph-name="Ubreve" unicode="&#x16c;" horiz-adv-x="773" 
d="M610 305v395h82v-395q0 -142 -83.5 -226t-222.5 -84t-222.5 84t-83.5 226v395h83v-395q0 -108 62 -175t161 -67q100 0 162 67t62 175zM215 884l38 40q53 -53 132 -53q81 0 132 53l39 -40q-68 -71 -171 -71q-102 0 -170 71z" />
    <glyph glyph-name="ubreve" unicode="&#x16d;" 
d="M158 500v-295q0 -66 38 -106.5t98 -40.5q70 0 115 56.5t45 138.5v247h78v-500h-78v125q-28 -60 -78 -95t-115 -35q-80 0 -130.5 55.5t-50.5 144.5v305h78zM135 684l38 40q53 -53 132 -53q81 0 132 53l39 -40q-68 -71 -171 -71q-102 0 -170 71z" />
    <glyph glyph-name="Uring" unicode="&#x16e;" horiz-adv-x="773" 
d="M308 872q0 36 21.5 58t56.5 22t56.5 -22t21.5 -58q0 -35 -21.5 -57t-56.5 -22t-56.5 22t-21.5 57zM341 872q0 -20 12.5 -32.5t32.5 -12.5t32.5 12.5t12.5 32.5q0 21 -12.5 33.5t-32.5 12.5t-32.5 -12.5t-12.5 -33.5zM610 305v395h82v-395q0 -142 -83.5 -226t-222.5 -84
t-222.5 84t-83.5 226v395h83v-395q0 -108 62 -175t161 -67q100 0 162 67t62 175z" />
    <glyph glyph-name="uring" unicode="&#x16f;" 
d="M227 672q0 36 21.5 58t56.5 22t56.5 -22t21.5 -58q0 -35 -21.5 -57t-56.5 -22t-56.5 22t-21.5 57zM260 672q0 -20 12.5 -32.5t32.5 -12.5t32.5 12.5t12.5 32.5q0 21 -12.5 33.5t-32.5 12.5t-32.5 -12.5t-12.5 -33.5zM158 500v-295q0 -66 38 -106.5t98 -40.5q68 0 113 54
t47 133v255h78v-500h-78v125q-28 -60 -78 -95t-115 -35q-80 0 -130.5 55.5t-50.5 144.5v305h78z" />
    <glyph glyph-name="Uhungarumlaut" unicode="&#x170;" horiz-adv-x="773" 
d="M610 305v395h82v-395q0 -142 -83.5 -226t-222.5 -84t-222.5 84t-83.5 226v395h83v-395q0 -108 62 -175t161 -67q100 0 162 67t62 175zM345 950l48 -49l-162 -130l-32 33zM575 950l47 -49l-161 -130l-32 33z" />
    <glyph glyph-name="uhungarumlaut" unicode="&#x171;" 
d="M158 500v-295q0 -66 38 -106.5t98 -40.5q68 0 113 54t47 133v255h78v-500h-78v125q-28 -60 -78 -95t-115 -35q-80 0 -130.5 55.5t-50.5 144.5v305h78zM265 750l48 -49l-162 -130l-32 33zM495 750l47 -49l-161 -130l-32 33z" />
    <glyph glyph-name="Uogonek" unicode="&#x172;" horiz-adv-x="773" 
d="M610 305v395h82v-395q0 -126 -66 -207t-180 -98l-9 -12q-9 -12 -21 -29.5t-24 -38t-20 -42.5t-8 -39q0 -43 44 -43q34 0 58 25l31 -33q-39 -41 -91 -41q-39 0 -64 23t-25 59q0 33 15.5 71.5t29.5 59t26 35.5h-2q-139 0 -222.5 84t-83.5 226v395h83v-395q0 -108 62 -175
t161 -67q100 0 162 67t62 175z" />
    <glyph glyph-name="uogonek" unicode="&#x173;" 
d="M158 500v-295q0 -66 38 -106.5t98 -40.5q70 0 115 56.5t45 138.5v247h78v-500h-1q-9 -11 -23 -29.5t-37 -61.5t-23 -70q0 -43 44 -43q34 0 58 25l31 -33q-39 -41 -91 -41q-39 0 -64 23t-25 59q0 38 18.5 80.5t37.5 66.5l19 24h-22v125q-28 -60 -78 -95t-115 -35
q-80 0 -130.5 55.5t-50.5 144.5v305h78z" />
    <glyph glyph-name="Wcircumflex" unicode="&#x174;" horiz-adv-x="1190" 
d="M386 0h-88l-248 700h80l210 -591l210 591h88l209 -591l210 591h80l-248 -700h-88l-207 591zM434 837l161 113l160 -113l-40 -41l-120 86l-121 -86z" />
    <glyph glyph-name="wcircumflex" unicode="&#x175;" horiz-adv-x="901" 
d="M307 0h-73l-182 500h75l145 -397l143 397h71l142 -397l147 397h74l-183 -500h-72l-143 392zM290 637l161 113l160 -113l-40 -41l-120 86l-121 -86z" />
    <glyph glyph-name="Ycircumflex" unicode="&#x176;" horiz-adv-x="743" 
d="M330 0v261l-279 439h86l234 -363l235 363h85l-279 -439v-261h-82zM210 837l161 113l160 -113l-40 -41l-120 86l-121 -86z" />
    <glyph glyph-name="ycircumflex" unicode="&#x177;" horiz-adv-x="630" 
d="M580 500l-273 -596q-29 -64 -65 -99t-87 -35q-71 0 -113 43l40 41q22 -21 68 -21q30 0 51 25t43 73l33 70l-226 499h76l187 -411l189 411h77zM154 637l161 113l160 -113l-40 -41l-120 86l-121 -86z" />
    <glyph glyph-name="Ydieresis" unicode="&#x178;" horiz-adv-x="743" 
d="M330 0v261l-279 439h86l234 -363l235 363h85l-279 -439v-261h-82zM217 806v94h78v-94h-78zM447 806v94h77v-94h-77z" />
    <glyph glyph-name="Zacute" unicode="&#x179;" horiz-adv-x="749" 
d="M81 631v69h598v-44l-491 -587h497v-69h-612v44l491 587h-483zM423 950l48 -49l-162 -130l-32 33z" />
    <glyph glyph-name="zacute" unicode="&#x17a;" horiz-adv-x="581" 
d="M78 437v63h426v-42l-332 -395h336v-63h-435v42l326 395h-321zM339 750l48 -49l-162 -130l-32 33z" />
    <glyph glyph-name="Zdotaccent" unicode="&#x17b;" horiz-adv-x="749" 
d="M81 631v69h598v-44l-491 -587h497v-69h-612v44l491 587h-483zM335 806v94h78v-94h-78z" />
    <glyph glyph-name="zdotaccent" unicode="&#x17c;" horiz-adv-x="581" 
d="M78 437v63h426v-42l-332 -395h336v-63h-435v42l326 395h-321zM251 606v94h78v-94h-78z" />
    <glyph glyph-name="Zcaron" unicode="&#x17d;" horiz-adv-x="749" 
d="M533 910l-159 -115l-161 115l40 40l121 -86l120 86zM81 631v69h598v-44l-491 -587h497v-69h-612v44l491 587h-483z" />
    <glyph glyph-name="zcaron" unicode="&#x17e;" horiz-adv-x="581" 
d="M450 710l-159 -115l-161 115l40 40l121 -86l120 86zM78 437v63h426v-42l-332 -395h336v-63h-435v42l326 395h-321z" />
    <glyph glyph-name="longs" unicode="&#x17f;" horiz-adv-x="418" 
d="M389 677l-41 -41q-34 31 -84 31q-47 0 -76.5 -29t-29.5 -75v-563h-78v555q0 78 49.5 126.5t128.5 48.5q83 0 131 -53z" />
    <glyph glyph-name="uni018F" unicode="&#x18f;" horiz-adv-x="792" 
d="M73 377h581q-8 116 -84.5 187.5t-194.5 71.5q-141 0 -220 -82l-48 49q100 102 266 102q162 0 264 -99t102 -256q0 -158 -93 -256.5t-240 -98.5q-148 0 -240.5 98.5t-92.5 256.5v27zM654 314h-497q10 -113 78 -182t171 -69q102 0 170 69t78 182z" />
    <glyph glyph-name="florin" unicode="&#x192;" horiz-adv-x="577" 
d="M165 437v63h75v55q0 79 49 127t128 48q83 0 131 -53l-40 -41q-36 31 -85 31q-46 0 -76 -29t-30 -75v-63h189v-63h-189v-496q0 -76 -46.5 -123.5t-120.5 -47.5q-75 0 -122 49l41 42q28 -28 76 -28q42 0 68.5 29.5t26.5 75.5v499h-75z" />
    <glyph glyph-name="uni01DD" unicode="&#x1dd;" horiz-adv-x="579" 
d="M52 271h397q-5 76 -59.5 123.5t-137.5 47.5q-96 0 -150 -54l-43 44q76 73 197 73q119 0 194.5 -71t75.5 -184q0 -114 -66 -184.5t-172 -70.5q-105 0 -170.5 70.5t-65.5 183.5v22zM448 216h-319q3 -71 47.5 -115t110.5 -44q65 0 109 44t52 115z" />
    <glyph glyph-name="AEacute" unicode="&#x1fc;" horiz-adv-x="906" 
d="M51 0l326 700h463v-69h-344v-239h316v-69h-316v-254h351v-69h-433v192h-191l-90 -192h-82zM253 261h161v341zM561 950l48 -49l-162 -130l-32 33z" />
    <glyph glyph-name="aeacute" unicode="&#x1fd;" horiz-adv-x="922" 
d="M871 228h-397q5 -76 56 -123.5t130 -47.5q91 0 142 54l44 -44q-74 -72 -190 -72q-75 0 -133 32.5t-87 90.5q-55 -121 -209 -121q-78 0 -127.5 38.5t-49.5 101.5q0 72 65 116.5t169 44.5q60 0 113 -11v13q0 70 -40.5 105t-107.5 35q-79 0 -137 -44l-39 41q71 68 188 68
q62 0 110 -29t71 -79q29 51 79 79.5t114 28.5q105 0 170.5 -71t65.5 -184v-22zM475 283h319q-3 71 -47.5 115t-110.5 44q-65 0 -109 -44t-52 -115zM397 233q-44 16 -107 16q-72 0 -117 -29t-45 -76q0 -39 32.5 -63t84.5 -24q65 0 107.5 50.5t44.5 125.5zM509 750l48 -49
l-162 -130l-32 33z" />
    <glyph glyph-name="Oslashacute" unicode="&#x1fe;" horiz-adv-x="811" 
d="M214 -50h-78l60 106q-68 46 -105.5 122.5t-37.5 171.5q0 157 98 256t254 99q82 0 149 -29l43 74h78l-61 -107q68 -46 106 -122t38 -171q0 -158 -98 -256.5t-255 -98.5q-82 0 -148 29zM676 350q0 147 -100 225l-284 -489q51 -23 113 -23q120 0 195.5 80.5t75.5 206.5z
M135 350q0 -145 101 -225l283 488q-53 24 -114 24q-119 0 -194.5 -80.5t-75.5 -206.5zM454 950l48 -49l-162 -130l-32 33z" />
    <glyph glyph-name="oslashacute" unicode="&#x1ff;" horiz-adv-x="616" 
d="M169 -50h-68l53 91q-101 69 -101 209q0 113 71 184t184 71q54 0 103 -19l36 64h68l-53 -92q102 -70 102 -208q0 -113 -71.5 -184t-184.5 -71q-58 0 -102 19zM486 250q0 91 -61 142l-187 -321q30 -13 70 -13q79 0 128.5 53.5t49.5 138.5zM130 250q0 -92 61 -142l187 320
q-33 14 -70 14q-79 0 -128.5 -53.5t-49.5 -138.5zM356 750l48 -49l-162 -130l-32 33z" />
    <glyph glyph-name="uni0218" unicode="&#x218;" horiz-adv-x="572" 
d="M511 199q0 -91 -68 -147.5t-170 -56.5q-132 0 -225 101l43 44q70 -77 180 -77q69 0 113.5 36.5t44.5 94.5q0 41 -38 69.5t-92 46.5t-107.5 39t-91.5 62.5t-38 102.5q0 86 60.5 138.5t154.5 52.5q131 0 222 -101l-42 -45q-69 78 -173 78q-64 0 -102 -33t-38 -86
q0 -33 20 -58.5t52.5 -41.5t72 -30t78.5 -29.5t71.5 -35t52.5 -51t20 -73.5zM240 -287l-27 28q54 54 54 179h60q0 -118 -87 -207z" />
    <glyph glyph-name="uni0219" unicode="&#x219;" horiz-adv-x="448" 
d="M399 144q0 -66 -52 -107.5t-128 -41.5q-102 0 -170 73l41 42q47 -52 129 -52q44 0 73.5 23.5t29.5 59.5q0 27 -27 46t-65.5 32t-77 28t-65.5 45t-27 73q0 62 46.5 101.5t115.5 39.5q100 0 165 -73l-41 -42q-46 51 -120 51q-40 0 -64.5 -21t-24.5 -54q0 -29 27 -49
t65.5 -33t77 -28t65.5 -43.5t27 -69.5zM188 -287l-27 28q54 54 54 179h60q0 -118 -87 -207z" />
    <glyph glyph-name="uni0237" unicode="&#x237;" horiz-adv-x="278" 
d="M-91 -181l41 42q26 -28 76 -28q41 0 67.5 29.5t26.5 75.5v562h78v-559q0 -76 -46.5 -123.5t-120.5 -47.5q-75 0 -122 49z" />
    <glyph glyph-name="circumflex" unicode="&#x2c6;" horiz-adv-x="426" 
d="M57 637l161 113l160 -113l-40 -41l-120 86l-121 -86z" />
    <glyph glyph-name="caron" unicode="&#x2c7;" horiz-adv-x="426" 
d="M377 710l-159 -115l-161 115l40 40l121 -86l120 86z" />
    <glyph glyph-name="breve" unicode="&#x2d8;" horiz-adv-x="451" 
d="M55 684l38 40q53 -53 132 -53q81 0 132 53l39 -40q-68 -71 -171 -71q-102 0 -170 71z" />
    <glyph glyph-name="dotaccent" unicode="&#x2d9;" horiz-adv-x="238" 
d="M80 606v94h78v-94h-78z" />
    <glyph glyph-name="ring" unicode="&#x2da;" horiz-adv-x="289" 
d="M69 672q0 36 21.5 58t56.5 22t56.5 -22t21.5 -58q0 -35 -21.5 -57t-56.5 -22t-56.5 22t-21.5 57zM102 672q0 -20 12.5 -32.5t32.5 -12.5t32.5 12.5t12.5 32.5q0 21 -12.5 33.5t-32.5 12.5t-32.5 -12.5t-12.5 -33.5z" />
    <glyph glyph-name="ogonek" unicode="&#x2db;" horiz-adv-x="303" 
d="M169 0h55q-9 -11 -23 -29.5t-37 -61.5t-23 -70q0 -43 44 -43q34 0 58 25l31 -33q-39 -41 -91 -41q-39 0 -64 23t-25 59q0 38 19 80.5t37 66.5z" />
    <glyph glyph-name="tilde" unicode="&#x2dc;" horiz-adv-x="472" 
d="M89 625l-10.5 10.5l-12.5 12.5l-11 11q55 56 112 56q28 0 77 -18.5t72 -18.5q35 0 69 31l34 -34q-55 -56 -110 -56q-28 0 -76.5 18.5t-72.5 18.5q-37 0 -71 -31z" />
    <glyph glyph-name="hungarumlaut" unicode="&#x2dd;" horiz-adv-x="553" 
d="M238 750l48 -49l-162 -130l-32 33zM468 750l47 -49l-161 -130l-32 33z" />
    <glyph glyph-name="tonos" unicode="&#x384;" horiz-adv-x="323" 
d="M189 756l47 -49l-102 -132l-32 33z" />
    <glyph glyph-name="dieresistonos" unicode="&#x385;" horiz-adv-x="509" 
d="M58 606v94h77v-94h-77zM366 606v94h78v-94h-78zM289 822l47 -49l-102 -131l-32 32z" />
    <glyph glyph-name="Alphatonos" unicode="&#x386;" horiz-adv-x="837" 
d="M377 700h84l325 -700h-81l-90 192h-392l-90 -192h-82zM419 612l-166 -351h332zM225 709l47 -49l-102 -132l-32 33z" />
    <glyph glyph-name="Epsilontonos" unicode="&#x388;" horiz-adv-x="806" 
d="M258 0v700h476v-69h-393v-239h365v-69h-365v-254h401v-69h-484zM150 703l47 -49l-102 -132l-32 33z" />
    <glyph glyph-name="Etatonos" unicode="&#x389;" horiz-adv-x="928" 
d="M150 708l47 -49l-102 -132l-32 33zM765 0v323h-424v-323h-82v700h82v-308h424v308h83v-700h-83z" />
    <glyph glyph-name="Iotatonos" unicode="&#x38a;" horiz-adv-x="422" 
d="M150 708l47 -49l-102 -132l-32 33zM341 0h-82v700h82v-700z" />
    <glyph glyph-name="Omicrontonos" unicode="&#x38c;" horiz-adv-x="914" 
d="M155 350q0 157 98 256t254 99q157 0 255 -98.5t98 -256.5t-98 -256.5t-255 -98.5q-156 0 -254 99t-98 256zM237 350q0 -126 75.5 -206.5t194.5 -80.5q120 0 195.5 80.5t75.5 206.5t-75.5 206.5t-195.5 80.5q-119 0 -194.5 -80.5t-75.5 -206.5zM151 709l47 -49l-102 -132
l-32 33z" />
    <glyph glyph-name="Upsilontonos" unicode="&#x38e;" horiz-adv-x="926" 
d="M513 0v261l-279 439h86l234 -363l235 363h85l-279 -439v-261h-82zM150 709l47 -49l-102 -132l-32 33z" />
    <glyph glyph-name="Omegatonos" unicode="&#x38f;" horiz-adv-x="926" 
d="M152 708l47 -49l-102 -132l-32 33zM591 0v69q89 24 142 99.5t53 181.5q0 126 -75.5 206.5t-195.5 80.5q-119 0 -194.5 -80.5t-75.5 -206.5q0 -106 53 -181.5t143 -99.5v-69h-278v69h140q-66 43 -103 115.5t-37 165.5q0 158 97.5 256.5t254.5 98.5t255 -98.5t98 -256.5
q0 -92 -37.5 -165t-103.5 -116h141v-69h-277z" />
    <glyph glyph-name="iotadieresistonos" unicode="&#x390;" horiz-adv-x="326" 
d="M-74 606v94h77v-94h-77zM234 606v94h78v-94h-78zM157 822l47 -49l-102 -131l-32 32zM248 73l41 -42q-33 -36 -88 -36q-53 0 -87 34.5t-34 89.5v381h78v-386q0 -25 14 -40.5t36 -15.5q26 0 40 15z" />
    <glyph glyph-name="Alpha" unicode="&#x391;" horiz-adv-x="837" 
d="M377 700h84l325 -700h-81l-90 192h-392l-90 -192h-82zM419 612l-166 -351h332z" />
    <glyph glyph-name="Beta" unicode="&#x392;" horiz-adv-x="620" 
d="M80 0v700h262q79 0 129 -48.5t50 -125.5q0 -53 -24.5 -94t-65.5 -62q58 -16 93 -64.5t35 -115.5q0 -84 -54 -137t-140 -53h-285zM163 69h176q60 0 97.5 36.5t37.5 94.5q0 57 -37.5 94t-97.5 37h-176v-262zM318 631h-155v-232h155q54 0 87 32.5t33 83.5t-33 83.5t-87 32.5
z" />
    <glyph glyph-name="Gamma" unicode="&#x393;" horiz-adv-x="602" 
d="M80 0v700h459v-69h-376v-631h-83z" />
    <glyph glyph-name="uni0394" unicode="&#x394;" horiz-adv-x="837" 
d="M786 0h-735l326 700h84zM419 610l-251 -541h501z" />
    <glyph glyph-name="Epsilon" unicode="&#x395;" horiz-adv-x="627" 
d="M80 0v700h476v-69h-393v-239h365v-69h-365v-254h401v-69h-484z" />
    <glyph glyph-name="Zeta" unicode="&#x396;" horiz-adv-x="749" 
d="M81 631v69h598v-44l-491 -587h497v-69h-612v44l491 587h-483z" />
    <glyph glyph-name="Eta" unicode="&#x397;" horiz-adv-x="750" 
d="M587 0v323h-424v-323h-83v700h83v-308h424v308h82v-700h-82z" />
    <glyph glyph-name="Theta" unicode="&#x398;" horiz-adv-x="811" 
d="M53 350q0 157 98 256t254 99q157 0 255 -98.5t98 -256.5t-98 -256.5t-255 -98.5q-156 0 -254 99t-98 256zM135 350q0 -126 75.5 -206.5t194.5 -80.5q120 0 195.5 80.5t75.5 206.5t-75.5 206.5t-195.5 80.5q-119 0 -194.5 -80.5t-75.5 -206.5zM201 326v58h409v-58h-409z
" />
    <glyph glyph-name="Iota" unicode="&#x399;" horiz-adv-x="243" 
d="M163 0h-83v700h83v-700z" />
    <glyph glyph-name="Kappa" unicode="&#x39a;" horiz-adv-x="676" 
d="M163 0h-83v700h83v-341l339 341h103l-299 -303l327 -397h-95l-286 340l-89 -94v-246z" />
    <glyph glyph-name="Lambda" unicode="&#x39b;" horiz-adv-x="837" 
d="M419 607l-277 -607h-91l326 700h84l325 -700h-90z" />
    <glyph glyph-name="Mu" unicode="&#x39c;" horiz-adv-x="939" 
d="M80 0v700h109l280 -586l281 586h108v-700h-82v575l-275 -575h-63l-275 575v-575h-83z" />
    <glyph glyph-name="Nu" unicode="&#x39d;" horiz-adv-x="762" 
d="M599 0l-436 571v-571h-83v700h83l436 -571v571h83v-700h-83z" />
    <glyph glyph-name="Xi" unicode="&#x39e;" horiz-adv-x="670" 
d="M68 0v69h534v-69h-534zM594 631h-518v69h518v-69zM567 323h-464v69h464v-69z" />
    <glyph glyph-name="Omicron" unicode="&#x39f;" horiz-adv-x="811" 
d="M53 350q0 157 98 256t254 99q157 0 255 -98.5t98 -256.5t-98 -256.5t-255 -98.5q-156 0 -254 99t-98 256zM135 350q0 -126 75.5 -206.5t194.5 -80.5q120 0 195.5 80.5t75.5 206.5t-75.5 206.5t-195.5 80.5q-119 0 -194.5 -80.5t-75.5 -206.5z" />
    <glyph glyph-name="Pi" unicode="&#x3a0;" horiz-adv-x="749" 
d="M587 0v631h-424v-631h-83v700h589v-700h-82z" />
    <glyph glyph-name="Rho" unicode="&#x3a1;" horiz-adv-x="597" 
d="M80 0v700h248q95 0 155.5 -61t60.5 -158t-60.5 -157.5t-155.5 -60.5h-165v-263h-83zM319 631h-156v-299h156q63 0 103 41.5t40 107.5t-39.5 108t-103.5 42z" />
    <glyph glyph-name="Sigma" unicode="&#x3a3;" horiz-adv-x="670" 
d="M594 631h-394l229 -274l-240 -288h413v-69h-534v36l265 321l-257 307v36h518v-69z" />
    <glyph glyph-name="Tau" unicode="&#x3a4;" horiz-adv-x="743" 
d="M58 631v69h627v-69h-272v-631h-83v631h-272z" />
    <glyph glyph-name="Upsilon" unicode="&#x3a5;" horiz-adv-x="743" 
d="M330 0v261l-279 439h86l234 -363l235 363h85l-279 -439v-261h-82z" />
    <glyph glyph-name="Phi" unicode="&#x3a6;" horiz-adv-x="791" 
d="M354 0v69q-134 0 -218.5 78t-84.5 203t84.5 203t218.5 78v69h83v-69q134 -1 218.5 -79t84.5 -202q0 -125 -84.5 -203t-218.5 -78v-69h-83zM437 562v-424q98 0 159.5 58.5t61.5 152.5t-61.5 153.5t-159.5 59.5zM354 138v424q-97 0 -159 -59t-62 -153t62 -153t159 -59z" />
    <glyph glyph-name="Chi" unicode="&#x3a7;" horiz-adv-x="757" 
d="M139 0h-93l283 357l-271 343h94l226 -285l227 285h93l-271 -343l284 -357h-94l-239 298z" />
    <glyph glyph-name="Psi" unicode="&#x3a8;" horiz-adv-x="775" 
d="M346 0v189q-118 0 -192 64t-74 167v280h83v-275q0 -74 51 -120.5t132 -46.5v442h82v-442q84 0 136.5 46.5t52.5 120.5v48q0 141 -66 203l39 40q109 -109 109 -243v-53q0 -103 -75 -167t-196 -64v-189h-82z" />
    <glyph glyph-name="uni03A9" unicode="&#x3a9;" horiz-adv-x="822" 
d="M486 0v69q89 24 142 99.5t53 181.5q0 126 -75 206.5t-195 80.5q-119 0 -194.5 -80.5t-75.5 -206.5q0 -106 53 -181.5t142 -99.5v-69h-283v69h145q-66 43 -103 115.5t-37 165.5q0 158 98 256.5t255 98.5q156 0 254 -99t98 -256q0 -93 -37 -165.5t-103 -115.5h146v-69h-283
z" />
    <glyph glyph-name="Iotadieresis" unicode="&#x3aa;" horiz-adv-x="238" 
d="M163 0h-83v700h83v-700zM-13 775v94h77v-94h-77zM179 775v94h77v-94h-77z" />
    <glyph glyph-name="Upsilondieresis" unicode="&#x3ab;" horiz-adv-x="743" 
d="M330 0v261l-279 439h86l234 -363l235 363h85l-279 -439v-261h-82zM217 806v94h78v-94h-78zM447 806v94h77v-94h-77z" />
    <glyph glyph-name="alphatonos" unicode="&#x3ac;" horiz-adv-x="597" 
d="M442 0v112q-25 -54 -74.5 -85t-113.5 -31q-89 0 -145 67.5t-56 176.5q0 118 78 191.5t202 73.5q109 0 186 -35v-470h-77zM442 207v216q-55 19 -124 19q-83 0 -135.5 -56.5t-52.5 -145.5q0 -81 43.5 -130.5t113.5 -49.5q67 0 110 42.5t45 104.5zM323 756l47 -49l-102 -132
l-32 33z" />
    <glyph glyph-name="epsilontonos" unicode="&#x3ad;" horiz-adv-x="484" 
d="M259 58q88 0 134 49l36 -37q-75 -75 -189 -75q-86 0 -139 37t-53 96q0 45 28 79.5t75 47.5q-44 14 -68 45t-24 71q0 60 47.5 97t125.5 37q115 0 187 -72l-35 -36q-47 45 -130 45q-52 0 -85 -23t-33 -59q0 -35 27.5 -57t72.5 -22h78v-58h-92q-44 0 -70.5 -22.5
t-26.5 -59.5q0 -36 37.5 -59.5t96.5 -23.5zM272 756l47 -49l-102 -132l-32 33z" />
    <glyph glyph-name="etatonos" unicode="&#x3ae;" 
d="M454 0v301q0 64 -37.5 102.5t-98.5 38.5q-70 0 -115 -56.5t-45 -138.5v-247h-78v500h78v-126q27 60 77.5 95.5t115.5 35.5q80 0 130.5 -53t50.5 -137v-315h-78zM330 756l47 -49l-102 -132l-32 33z" />
    <glyph glyph-name="iotatonos" unicode="&#x3af;" horiz-adv-x="326" 
d="M248 73l41 -42q-33 -36 -88 -36q-53 0 -87 34.5t-34 89.5v381h78v-386q0 -25 14 -40.5t36 -15.5q26 0 40 15zM140 756l47 -49l-102 -132l-32 33z" />
    <glyph glyph-name="upsilondieresistonos" unicode="&#x3b0;" horiz-adv-x="618" 
d="M416 470l44 45q38 -35 61.5 -92.5t23.5 -119.5v-78q0 -102 -64.5 -166t-167.5 -64t-168 64t-65 166v275h78v-275q0 -74 43 -120.5t112 -46.5t112 46.5t43 120.5v78q0 113 -52 167zM113 606v94h77v-94h-77zM421 606v94h78v-94h-78zM344 822l47 -49l-102 -131l-32 32z" />
    <glyph glyph-name="alpha" unicode="&#x3b1;" horiz-adv-x="597" 
d="M442 0v112q-25 -54 -74.5 -85t-113.5 -31q-89 0 -145 67.5t-56 176.5q0 118 78 191.5t202 73.5q109 0 186 -35v-470h-77zM442 207v216q-55 19 -124 19q-83 0 -135.5 -56.5t-52.5 -145.5q0 -81 43.5 -130.5t113.5 -49.5q67 0 110 42.5t45 104.5z" />
    <glyph glyph-name="beta" unicode="&#x3b2;" horiz-adv-x="573" 
d="M80 548q0 81 57 131.5t149 50.5t149.5 -48.5t57.5 -125.5q0 -57 -32 -99t-89 -61q68 -16 108 -69t40 -128q0 -90 -64 -146.5t-166 -56.5q-74 0 -132 29v-175h-78v698zM245 363v58h25q64 0 105 34.5t41 88.5t-36 88.5t-94 34.5q-57 0 -92.5 -36.5t-35.5 -94.5v-452
q50 -24 124 -24q72 0 116.5 42t44.5 108q0 68 -40 110.5t-104 42.5h-54z" />
    <glyph glyph-name="gamma" unicode="&#x3b3;" horiz-adv-x="632" 
d="M276 -225v225l-225 500h76l188 -416l188 416h77l-227 -500v-225h-77z" />
    <glyph glyph-name="delta" unicode="&#x3b4;" horiz-adv-x="615" 
d="M110 662v63h409v-63h-299q7 -3 19.5 -9.5t48 -28t68 -45.5t72 -61.5t68 -76t48 -89.5t19.5 -102q0 -113 -71 -184t-184 -71t-184 71t-71 184t69.5 184t180.5 71q33 0 60 -9q-48 47 -111.5 88.5t-102.5 59.5zM486 250q0 67 -52 145q-48 47 -126 47q-79 0 -128.5 -53.5
t-49.5 -138.5t49.5 -138.5t128.5 -53.5t128.5 53.5t49.5 138.5z" />
    <glyph glyph-name="epsilon" unicode="&#x3b5;" horiz-adv-x="484" 
d="M259 58q88 0 134 49l36 -37q-75 -75 -189 -75q-86 0 -139 37t-53 96q0 45 28 79.5t75 47.5q-44 14 -68 45t-24 71q0 60 47.5 97t125.5 37q115 0 187 -72l-35 -36q-47 45 -130 45q-52 0 -85 -23t-33 -59q0 -35 27.5 -57t72.5 -22h78v-58h-92q-44 0 -70.5 -22.5
t-26.5 -59.5q0 -36 37.5 -59.5t96.5 -23.5z" />
    <glyph glyph-name="zeta" unicode="&#x3b6;" horiz-adv-x="528" 
d="M485 725v-63q-14 -11 -38 -30t-85.5 -74.5t-108 -107.5t-85 -119t-38.5 -119q0 -79 82 -116t226 -37v-59q0 -39 -25 -84.5t-60 -80.5l-30 30q52 52 54 133q-152 9 -238 62t-86 152q0 59 34 127t82.5 123t97.5 101.5t83 72.5l34 26h-289v63h390z" />
    <glyph glyph-name="eta" unicode="&#x3b7;" 
d="M454 0v301q0 64 -37.5 102.5t-98.5 38.5q-70 0 -115 -56.5t-45 -138.5v-247h-78v500h78v-126q27 60 77.5 95.5t115.5 35.5q80 0 130.5 -53t50.5 -137v-315h-78z" />
    <glyph glyph-name="theta" unicode="&#x3b8;" horiz-adv-x="596" 
d="M53 362q0 163 68 265.5t177 102.5t177.5 -102.5t68.5 -265.5t-68.5 -265t-177.5 -102t-177 102t-68 265zM298 58q72 0 118 76.5t50 199.5h-336q5 -123 51 -199.5t117 -76.5zM298 667q-70 0 -116.5 -75t-51.5 -197h336q-5 122 -51 197t-117 75z" />
    <glyph glyph-name="iota" unicode="&#x3b9;" horiz-adv-x="326" 
d="M248 73l41 -42q-33 -36 -88 -36q-53 0 -87 34.5t-34 89.5v381h78v-386q0 -25 14 -40.5t36 -15.5q26 0 40 15z" />
    <glyph glyph-name="kappa" unicode="&#x3ba;" horiz-adv-x="560" 
d="M158 0h-78v500h78v-248l238 248h92l-195 -205l222 -295h-87l-184 244l-86 -89v-155z" />
    <glyph glyph-name="lambda" unicode="&#x3bb;" horiz-adv-x="630" 
d="M296 649l284 -649h-77l-180 411l-205 -411h-76l244 499l-52 122q-18 46 -71 46q-39 0 -62 -23l-42 43q43 43 107 43q96 0 130 -81z" />
    <glyph glyph-name="uni03BC" unicode="&#x3bc;" 
d="M158 500v-295q0 -66 38 -106.5t98 -40.5q69 0 114 55.5t46 136.5v250h78v-500h-78v130q-26 -63 -76.5 -99t-116.5 -36q-70 0 -105 51v-271h-76v725h78z" />
    <glyph glyph-name="nu" unicode="&#x3bd;" horiz-adv-x="632" 
d="M354 0h-78l-225 500h76l188 -416l188 416h77z" />
    <glyph glyph-name="xi" unicode="&#x3be;" horiz-adv-x="502" 
d="M281 667q-55 0 -89.5 -34.5t-34.5 -88.5t41 -88.5t105 -34.5h87v-58h-117q-64 0 -103.5 -42.5t-39.5 -110.5q0 -77 82 -114t226 -37v-59q0 -39 -25 -84.5t-60 -80.5l-30 30q52 52 54 133q-152 8 -238 57.5t-86 143.5q0 75 40 128t107 69q-56 19 -88 61t-32 99
q0 77 55.5 125.5t144.5 48.5q103 0 176 -73l-43 -43q-51 53 -132 53z" />
    <glyph glyph-name="omicron" unicode="&#x3bf;" horiz-adv-x="616" 
d="M53 250q0 113 71 184t184 71t184.5 -71t71.5 -184t-71.5 -184t-184.5 -71t-184 71t-71 184zM130 250q0 -85 49.5 -138.5t128.5 -53.5t128.5 53.5t49.5 138.5t-49.5 138.5t-128.5 53.5t-128.5 -53.5t-49.5 -138.5z" />
    <glyph glyph-name="pi" unicode="&#x3c0;" horiz-adv-x="602" 
d="M444 0v437h-286v-437h-78v500h442v-500h-78z" />
    <glyph glyph-name="rho" unicode="&#x3c1;" horiz-adv-x="617" 
d="M80 -225v495q0 105 68 170t176 65q107 0 173.5 -71t66.5 -184t-71 -183.5t-186 -70.5q-85 0 -149 38v-259h-78zM158 270v-177q59 -33 143 -33q82 0 134 53t52 137q0 85 -45 138.5t-118 53.5t-119.5 -48t-46.5 -124z" />
    <glyph glyph-name="sigma1" unicode="&#x3c2;" horiz-adv-x="539" 
d="M353 -165l-30 30q52 52 54 133q-152 9 -238 71.5t-86 180.5q0 113 71 184t184 71q114 0 185 -73l-42 -43q-51 53 -139 53q-81 0 -131.5 -53.5t-50.5 -138.5q0 -98 82 -144.5t226 -46.5v-59q0 -39 -25 -84.5t-60 -80.5z" />
    <glyph glyph-name="sigma" unicode="&#x3c3;" horiz-adv-x="636" 
d="M53 250q0 111 71 180.5t184 69.5h290v-63h-127q93 -64 93 -187q0 -113 -71.5 -184t-184.5 -71t-184 71t-71 184zM130 250q0 -85 49.5 -138.5t128.5 -53.5t128.5 53.5t49.5 138.5q0 83 -49.5 135t-128.5 52t-128.5 -52t-49.5 -135z" />
    <glyph glyph-name="tau" unicode="&#x3c4;" horiz-adv-x="587" 
d="M423 73l41 -42q-34 -36 -89 -36q-53 0 -86.5 34.5t-33.5 89.5v318h-197v63h471v-63h-197v-323q0 -25 14 -40.5t37 -15.5q25 0 40 15z" />
    <glyph glyph-name="upsilon" unicode="&#x3c5;" horiz-adv-x="618" 
d="M416 470l44 45q38 -35 61.5 -92.5t23.5 -119.5v-78q0 -102 -64.5 -166t-167.5 -64t-168 64t-65 166v275h78v-275q0 -74 43 -120.5t112 -46.5t112 46.5t43 120.5v78q0 113 -52 167z" />
    <glyph glyph-name="phi" unicode="&#x3c6;" horiz-adv-x="708" 
d="M132 250q0 -83 51 -135.5t133 -52.5v439h77q116 0 189.5 -69.5t73.5 -181.5t-73.5 -181.5t-189.5 -69.5v-224h-77v224q-117 0 -190 69.5t-73 181.5q0 142 116 233l51 -52q-88 -67 -88 -181zM393 438v-376q82 0 133 52.5t51 135.5t-51 135.5t-133 52.5z" />
    <glyph glyph-name="chi" unicode="&#x3c7;" horiz-adv-x="591" 
d="M132 0h-89l206 256l-195 244h88l153 -192l153 192h89l-196 -244l206 -256h-89l-163 203z" />
    <glyph glyph-name="psi" unicode="&#x3c8;" horiz-adv-x="700" 
d="M313 -225v220q-103 0 -168 64t-65 166v275h78v-275q0 -74 43 -120.5t112 -46.5v557h78v-557q70 0 114.5 46.5t44.5 120.5v81q0 110 -52 164l44 45q38 -35 61.5 -91t23.5 -118v-81q0 -102 -65.5 -166t-170.5 -64v-220h-78z" />
    <glyph glyph-name="omega" unicode="&#x3c9;" horiz-adv-x="803" 
d="M158 305v-137q0 -48 28.5 -79t74.5 -31q44 0 73 31t29 79v245h77v-245q1 -48 29.5 -79t73.5 -31t73.5 31t28.5 79v138q0 110 -52 164l44 45q39 -35 62.5 -91t23.5 -118v-138q0 -76 -49.5 -124.5t-127.5 -48.5q-101 0 -145 74q-44 -74 -143 -74q-79 0 -128.5 48t-49.5 125
v137q0 62 23.5 118t62.5 92l44 -46q-52 -52 -52 -164z" />
    <glyph glyph-name="iotadieresis" unicode="&#x3ca;" horiz-adv-x="326" 
d="M248 73l41 -42q-33 -36 -88 -36q-53 0 -87 34.5t-34 89.5v381h78v-386q0 -25 14 -40.5t36 -15.5q26 0 40 15zM-34 606v94h78v-94h-78zM196 606v94h77v-94h-77z" />
    <glyph glyph-name="upsilondieresis" unicode="&#x3cb;" horiz-adv-x="618" 
d="M416 470l44 45q38 -35 61.5 -92.5t23.5 -119.5v-78q0 -102 -64.5 -166t-167.5 -64t-168 64t-65 166v275h78v-275q0 -74 43 -120.5t112 -46.5t112 46.5t43 120.5v78q0 113 -52 167zM154 606v94h78v-94h-78zM384 606v94h77v-94h-77z" />
    <glyph glyph-name="omicrontonos" unicode="&#x3cc;" horiz-adv-x="616" 
d="M53 250q0 113 71 184t184 71t184.5 -71t71.5 -184t-71.5 -184t-184.5 -71t-184 71t-71 184zM130 250q0 -85 49.5 -138.5t128.5 -53.5t128.5 53.5t49.5 138.5t-49.5 138.5t-128.5 53.5t-128.5 -53.5t-49.5 -138.5zM332 756l47 -49l-102 -132l-32 33z" />
    <glyph glyph-name="upsilontonos" unicode="&#x3cd;" horiz-adv-x="618" 
d="M416 470l44 45q38 -35 61.5 -92.5t23.5 -119.5v-78q0 -102 -64.5 -166t-167.5 -64t-168 64t-65 166v275h78v-275q0 -74 43 -120.5t112 -46.5t112 46.5t43 120.5v78q0 113 -52 167zM333 756l47 -49l-102 -132l-32 33z" />
    <glyph glyph-name="omegatonos" unicode="&#x3ce;" horiz-adv-x="803" 
d="M158 305v-137q0 -48 28.5 -79t74.5 -31q44 0 73 31t29 79v245h77v-245q1 -48 29.5 -79t73.5 -31t73.5 31t28.5 79v138q0 110 -52 164l44 45q39 -35 62.5 -91t23.5 -118v-138q0 -76 -49.5 -124.5t-127.5 -48.5q-101 0 -145 74q-44 -74 -143 -74q-79 0 -128.5 48t-49.5 125
v137q0 62 23.5 118t62.5 92l44 -46q-52 -52 -52 -164zM426 756l47 -49l-102 -132l-32 33z" />
    <glyph glyph-name="uni0400" unicode="&#x400;" horiz-adv-x="627" 
d="M80 0v700h476v-69h-393v-239h365v-69h-365v-254h401v-69h-484zM216 901l48 49l146 -146l-32 -33z" />
    <glyph glyph-name="uni0401" unicode="&#x401;" horiz-adv-x="627" 
d="M80 0v700h476v-69h-393v-239h365v-69h-365v-254h401v-69h-484zM159 806v94h78v-94h-78zM389 806v94h77v-94h-77z" />
    <glyph glyph-name="uni0402" unicode="&#x402;" horiz-adv-x="874" 
d="M684 -242l-33 35q59 60 59 207v249q0 61 -38 98t-99 37q-68 0 -113 -52.5t-47 -129.5v-202h-83v631h-272v69h627v-69h-272v-315q25 63 76 100t117 37q83 0 134.5 -53t51.5 -138v-262q0 -132 -108 -242z" />
    <glyph glyph-name="uni0403" unicode="&#x403;" horiz-adv-x="602" 
d="M80 0v700h459v-69h-376v-631h-83zM349 950l48 -49l-162 -130l-32 33z" />
    <glyph glyph-name="uni0404" unicode="&#x404;" horiz-adv-x="727" 
d="M578 392v-69h-441q8 -117 83 -188.5t191 -71.5q133 0 207 83l49 -50q-101 -101 -260 -101q-158 0 -256 98.5t-98 256.5t98.5 256.5t256.5 98.5t259 -101l-49 -50q-75 83 -207 83q-112 0 -186.5 -67.5t-86.5 -177.5h440z" />
    <glyph glyph-name="uni0405" unicode="&#x405;" horiz-adv-x="572" 
d="M511 199q0 -91 -68 -147.5t-170 -56.5q-132 0 -225 101l43 44q70 -77 180 -77q69 0 113.5 36.5t44.5 94.5q0 35 -27 60.5t-68 39.5t-88.5 33t-88.5 39t-68 58t-27 90q0 86 60.5 138.5t154.5 52.5q131 0 222 -101l-42 -45q-69 78 -173 78q-64 0 -102 -33t-38 -86
q0 -45 38 -76t92 -50t107.5 -39.5t91.5 -59t38 -94.5z" />
    <glyph glyph-name="uni0406" unicode="&#x406;" horiz-adv-x="243" 
d="M163 0h-83v700h83v-700z" />
    <glyph glyph-name="uni0407" unicode="&#x407;" horiz-adv-x="238" 
d="M163 0h-83v700h83v-700zM-13 775v94h77v-94h-77zM179 775v94h77v-94h-77z" />
    <glyph glyph-name="uni0408" unicode="&#x408;" horiz-adv-x="580" 
d="M417 250v450h83v-450q0 -113 -71.5 -184t-186.5 -71q-116 0 -189 73l48 49q49 -54 136 -54q79 0 129.5 52t50.5 135z" />
    <glyph glyph-name="uni0409" unicode="&#x409;" horiz-adv-x="1166" 
d="M632 0v631h-314q0 -123 -3 -211.5t-10.5 -162.5t-20 -121.5t-32 -80t-46 -46.5t-62.5 -14q-59 0 -108 43l46 48q29 -23 58 -23q55 0 75.5 137t20.5 500h478v-268h185q94 0 154 -60.5t60 -155.5q0 -96 -59.5 -156t-154.5 -60h-267zM714 69h176q62 0 101 41t39 106t-39 106
t-101 41h-176v-294z" />
    <glyph glyph-name="uni040A" unicode="&#x40a;" horiz-adv-x="1121" 
d="M587 0v323h-424v-323h-83v700h83v-308h424v308h82v-268h185q94 0 154 -60.5t60 -155.5q0 -96 -59.5 -156t-154.5 -60h-267zM669 69h176q63 0 101.5 41t38.5 106t-38.5 106t-101.5 41h-176v-294z" />
    <glyph glyph-name="uni040B" unicode="&#x40b;" horiz-adv-x="874" 
d="M710 0v249q0 61 -38 98t-99 37q-68 0 -113 -52.5t-47 -129.5v-202h-83v631h-272v69h627v-69h-272v-310q27 61 77.5 96.5t115.5 35.5q83 0 134.5 -53t51.5 -138v-262h-82z" />
    <glyph glyph-name="uni040C" unicode="&#x40c;" horiz-adv-x="676" 
d="M163 0h-83v700h83v-341l339 341h103l-299 -303l327 -397h-95l-286 340l-89 -94v-246zM386 950l48 -49l-162 -130l-32 33z" />
    <glyph glyph-name="uni040D" unicode="&#x40d;" horiz-adv-x="762" 
d="M599 571l-436 -571h-83v700h83v-571l436 571h83v-700h-83v571zM283 901l48 49l146 -146l-32 -33z" />
    <glyph glyph-name="uni040E" unicode="&#x40e;" horiz-adv-x="754" 
d="M41 49l46 47q32 -33 91 -33q65 0 102 60l53 90l-282 487h86l240 -409l239 409h87l-355 -610q-53 -95 -165 -95q-86 0 -142 54zM206 884l38 40q53 -53 132 -53q81 0 132 53l39 -40q-68 -71 -171 -71q-102 0 -170 71z" />
    <glyph glyph-name="uni040F" unicode="&#x40f;" horiz-adv-x="749" 
d="M333 0h-253v700h83v-631h424v631h82v-700h-253v-175h-83v175z" />
    <glyph glyph-name="uni0410" unicode="&#x410;" horiz-adv-x="837" 
d="M377 700h84l325 -700h-81l-90 192h-392l-90 -192h-82zM419 612l-166 -351h332z" />
    <glyph glyph-name="uni0411" unicode="&#x411;" horiz-adv-x="616" 
d="M80 0v700h431v-69h-348v-229h199q88 0 143.5 -56t55.5 -145t-55.5 -145t-143.5 -56h-282zM163 69h191q56 0 91 37t35 95q0 59 -35 96t-91 37h-191v-265z" />
    <glyph glyph-name="uni0412" unicode="&#x412;" horiz-adv-x="620" 
d="M80 0v700h262q79 0 129 -48.5t50 -125.5q0 -53 -24.5 -94t-65.5 -62q58 -16 93 -64.5t35 -115.5q0 -84 -54 -137t-140 -53h-285zM163 69h176q60 0 97.5 36.5t37.5 94.5q0 57 -37.5 94t-97.5 37h-176v-262zM318 631h-155v-232h155q54 0 87 32.5t33 83.5t-33 83.5t-87 32.5
z" />
    <glyph glyph-name="uni0413" unicode="&#x413;" horiz-adv-x="602" 
d="M80 0v700h459v-69h-376v-631h-83z" />
    <glyph glyph-name="uni0414" unicode="&#x414;" horiz-adv-x="912" 
d="M80 -175v244h94q44 20 60.5 160.5t16.5 470.5h478v-631h103v-244h-83v175h-586v-175h-83zM264 69h383v562h-314q0 -244 -15 -376t-54 -186z" />
    <glyph glyph-name="uni0415" unicode="&#x415;" horiz-adv-x="627" 
d="M80 0v700h476v-69h-393v-239h365v-69h-365v-254h401v-69h-484z" />
    <glyph glyph-name="uni0416" unicode="&#x416;" horiz-adv-x="1047" 
d="M565 0h-83v246l-83 89l-258 -335h-94l298 392l-276 308h99l314 -346v346h83v-346l314 346h99l-276 -308l298 -392h-94l-258 335l-83 -89v-246z" />
    <glyph glyph-name="uni0417" unicode="&#x417;" horiz-adv-x="599" 
d="M184 331v68h114q54 0 87 32.5t33 83.5q0 54 -38 88t-98 34q-109 0 -169 -79l-44 46q85 101 222 101q92 0 150.5 -50t58.5 -129q0 -53 -24 -94t-65 -62q58 -16 93 -64.5t35 -115.5q0 -86 -67.5 -140.5t-176.5 -54.5q-149 0 -247 101l44 45q72 -78 202 -78q72 0 116 38.5
t44 98.5q0 58 -37.5 94.5t-98.5 36.5h-134z" />
    <glyph glyph-name="uni0418" unicode="&#x418;" horiz-adv-x="762" 
d="M599 571l-436 -571h-83v700h83v-571l436 571h83v-700h-83v571z" />
    <glyph glyph-name="uni0419" unicode="&#x419;" horiz-adv-x="762" 
d="M599 571l-436 -571h-83v700h83v-571l436 571h83v-700h-83v571zM201 848l39 40q51 -53 141 -53q89 0 142 53l39 -40q-68 -71 -181 -71q-112 0 -180 71z" />
    <glyph glyph-name="uni041A" unicode="&#x41a;" horiz-adv-x="676" 
d="M163 0h-83v700h83v-341l339 341h103l-299 -303l327 -397h-95l-286 340l-89 -94v-246z" />
    <glyph glyph-name="uni041B" unicode="&#x41b;" horiz-adv-x="795" 
d="M236 700h478v-700h-82v631h-314q0 -123 -3 -211.5t-10.5 -162.5t-20 -121.5t-32 -80t-46 -46.5t-62.5 -14q-59 0 -108 43l46 48q29 -23 58 -23q55 0 75.5 137t20.5 500z" />
    <glyph glyph-name="uni041C" unicode="&#x41c;" horiz-adv-x="939" 
d="M80 0v700h109l280 -586l281 586h108v-700h-82v575l-275 -575h-63l-275 575v-575h-83z" />
    <glyph glyph-name="uni041D" unicode="&#x41d;" horiz-adv-x="750" 
d="M587 0v323h-424v-323h-83v700h83v-308h424v308h82v-700h-82z" />
    <glyph glyph-name="uni041E" unicode="&#x41e;" horiz-adv-x="811" 
d="M53 350q0 157 98 256t254 99q157 0 255 -98.5t98 -256.5t-98 -256.5t-255 -98.5q-156 0 -254 99t-98 256zM135 350q0 -126 75.5 -206.5t194.5 -80.5q120 0 195.5 80.5t75.5 206.5t-75.5 206.5t-195.5 80.5q-119 0 -194.5 -80.5t-75.5 -206.5z" />
    <glyph glyph-name="uni041F" unicode="&#x41f;" horiz-adv-x="749" 
d="M587 0v631h-424v-631h-83v700h589v-700h-82z" />
    <glyph glyph-name="uni0420" unicode="&#x420;" horiz-adv-x="597" 
d="M80 0v700h248q95 0 155.5 -61t60.5 -158t-60.5 -157.5t-155.5 -60.5h-165v-263h-83zM319 631h-156v-299h156q63 0 103 41.5t40 107.5t-39.5 108t-103.5 42z" />
    <glyph glyph-name="uni0421" unicode="&#x421;" horiz-adv-x="727" 
d="M618 146l49 -50q-101 -101 -260 -101q-157 0 -255.5 98.5t-98.5 256.5t98.5 256.5t256.5 98.5t259 -101l-49 -50q-75 83 -207 83q-122 0 -199 -80t-77 -207t77 -207t199 -80q133 0 207 83z" />
    <glyph glyph-name="uni0422" unicode="&#x422;" horiz-adv-x="743" 
d="M58 631v69h627v-69h-272v-631h-83v631h-272z" />
    <glyph glyph-name="uni0423" unicode="&#x423;" horiz-adv-x="754" 
d="M41 49l46 47q32 -33 91 -33q65 0 102 60l53 90l-282 487h86l240 -409l239 409h87l-355 -610q-53 -95 -165 -95q-86 0 -142 54z" />
    <glyph glyph-name="uni0424" unicode="&#x424;" horiz-adv-x="791" 
d="M437 0h-83v69q-134 0 -218.5 78t-84.5 203t84.5 203t218.5 78v69h83v-69q134 -1 218.5 -79t84.5 -202q0 -125 -84.5 -203t-218.5 -78v-69zM437 562v-424q98 0 159.5 58.5t61.5 152.5t-61.5 153.5t-159.5 59.5zM354 138v424q-97 0 -159 -59t-62 -153t62 -153t159 -59z" />
    <glyph glyph-name="uni0425" unicode="&#x425;" horiz-adv-x="757" 
d="M139 0h-93l283 357l-271 343h94l226 -285l227 285h93l-271 -343l284 -357h-94l-239 298z" />
    <glyph glyph-name="uni0426" unicode="&#x426;" horiz-adv-x="852" 
d="M163 700v-631h401v631h83v-631h124v-244h-82v175h-609v700h83z" />
    <glyph glyph-name="uni0427" unicode="&#x427;" horiz-adv-x="690" 
d="M163 700v-236q0 -67 45 -108t117 -41q88 0 144 54t56 132v199h82v-700h-82v377q-32 -61 -94 -96t-143 -35q-93 -1 -150.5 55t-57.5 147v252h83z" />
    <glyph glyph-name="uni0428" unicode="&#x428;" horiz-adv-x="1107" 
d="M595 700v-631h349v631h83v-700h-947v700h83v-631h349v631h83z" />
    <glyph glyph-name="uni0429" unicode="&#x429;" horiz-adv-x="1232" 
d="M80 0v700h83v-631h349v631h83v-631h349v631h83v-631h125v-244h-83v175h-989z" />
    <glyph glyph-name="uni042A" unicode="&#x42a;" horiz-adv-x="801" 
d="M80 631v69h269v-268h185q94 0 154 -60.5t60 -155.5q0 -96 -59.5 -156t-154.5 -60h-267v631h-187zM349 69h176q62 0 101 41t39 106t-39 106t-101 41h-176v-294z" />
    <glyph glyph-name="uni042B" unicode="&#x42b;" horiz-adv-x="853" 
d="M80 0v700h83v-268h185q94 0 153.5 -60.5t59.5 -155.5q0 -96 -59.5 -156t-153.5 -60h-268zM163 69h176q62 0 101 41t39 106t-39 106t-101 41h-176v-294zM772 0h-82v700h82v-700z" />
    <glyph glyph-name="uni042C" unicode="&#x42c;" horiz-adv-x="614" 
d="M80 0v700h83v-268h185q94 0 153.5 -60.5t59.5 -155.5q0 -96 -59.5 -156t-153.5 -60h-268zM163 69h176q62 0 101 41t39 106t-39 106t-101 41h-176v-294z" />
    <glyph glyph-name="uni042D" unicode="&#x42d;" horiz-adv-x="727" 
d="M60 96l49 50q74 -83 206 -83q116 0 191 72t83 188h-376v68h375q-11 110 -86 178t-187 68q-132 0 -206 -83l-49 50q99 101 260 101q157 0 255.5 -98.5t98.5 -256.5t-98.5 -256.5t-256.5 -98.5t-259 101z" />
    <glyph glyph-name="uni042E" unicode="&#x42e;" horiz-adv-x="1033" 
d="M647 -5q-142 0 -232.5 90.5t-98.5 237.5h-153v-323h-83v700h83v-308h154q12 141 102.5 227t227.5 86q148 0 240.5 -98.5t92.5 -256.5t-92.5 -256.5t-240.5 -98.5zM397 350q0 -126 70 -206.5t180 -80.5q111 0 180.5 80.5t69.5 206.5t-69.5 206.5t-180.5 80.5
q-110 0 -180 -80.5t-70 -206.5z" />
    <glyph glyph-name="uni042F" unicode="&#x42f;" horiz-adv-x="618" 
d="M48 0l218 298q-87 1 -141.5 57t-54.5 144q0 89 55.5 145t143.5 56h269v-700h-83v298h-99l-218 -298h-90zM455 631h-177q-55 0 -90.5 -37t-35.5 -95t35.5 -95t90.5 -37h177v264z" />
    <glyph glyph-name="uni0430" unicode="&#x430;" horiz-adv-x="557" 
d="M402 0v112q-25 -54 -72 -85t-109 -31q-74 0 -121 39.5t-47 102.5q0 72 65.5 116.5t170.5 44.5q62 0 113 -10v29q0 55 -36.5 89.5t-93.5 34.5q-97 0 -156 -45l-39 40q76 68 191 68q94 0 152.5 -51.5t58.5 -133.5v-320h-77zM402 236q-46 14 -108 14q-73 0 -118.5 -29.5
t-45.5 -76.5q0 -39 33 -62.5t85 -23.5q67 0 110.5 51.5t43.5 126.5z" />
    <glyph glyph-name="uni0431" unicode="&#x431;" horiz-adv-x="615" 
d="M562 250q0 -113 -68.5 -184t-178.5 -71q-108 0 -176 71t-68 184v100q0 78 16 135t44 88.5t62 51.5t74 30.5t75.5 18.5t71 22t57.5 36l43 -44q-31 -31 -74.5 -49.5t-81.5 -24.5t-78 -19t-68 -32t-46 -65t-18 -117q26 57 77.5 90t114.5 33q97 0 159.5 -70.5t62.5 -183.5z
M148 249q0 -84 46.5 -137t121.5 -54q75 0 122 53t47 138t-47 138t-122 53q-74 0 -121 -53t-47 -138z" />
    <glyph glyph-name="uni0432" unicode="&#x432;" horiz-adv-x="528" 
d="M313 500q61 0 98.5 -36t37.5 -93q0 -79 -66 -111q42 -13 67 -46.5t25 -78.5q0 -60 -40 -97.5t-104 -37.5h-251v500h233zM158 228v-165h152q40 0 64 23t24 60t-25 59.5t-67 22.5h-148zM158 437v-154h129q39 0 62 21.5t23 55.5t-23.5 55.5t-61.5 21.5h-129z" />
    <glyph glyph-name="uni0433" unicode="&#x433;" horiz-adv-x="487" 
d="M429 500v-63h-271v-437h-78v500h349z" />
    <glyph glyph-name="uni0434" unicode="&#x434;" horiz-adv-x="719" 
d="M58 63h49q95 0 95 437h371v-437h88v-218h-78v155h-448v-155h-77v218zM279 437q0 -289 -66 -374h283v374h-217z" />
    <glyph glyph-name="uni0435" unicode="&#x435;" horiz-adv-x="579" 
d="M527 228h-397q5 -76 56 -123.5t130 -47.5q90 0 142 54l43 -44q-72 -72 -189 -72q-115 0 -187.5 70.5t-72.5 184.5q0 113 66.5 184t171.5 71t171 -71t66 -184v-22zM131 283h318q-2 71 -46.5 115t-110.5 44t-110 -44t-51 -115z" />
    <glyph glyph-name="uni0436" unicode="&#x436;" horiz-adv-x="823" 
d="M450 0h-77v150l-87 95l-166 -245h-82l199 298l-175 202h89l222 -250v250h77v-250l222 250h89l-176 -202l200 -298h-82l-166 245l-87 -95v-150z" />
    <glyph glyph-name="uni0437" unicode="&#x437;" horiz-adv-x="489" 
d="M223 57q60 0 98 24.5t38 62.5q0 37 -29.5 60.5t-77.5 23.5h-106v58h87q46 0 74.5 21.5t28.5 56.5q0 34 -32 56.5t-83 22.5q-81 0 -127 -46l-35 36q70 72 180 72q79 0 126.5 -36t47.5 -95q0 -38 -21 -68.5t-58 -45.5q46 -13 74 -48t28 -81q0 -61 -55 -98.5t-144 -37.5
q-114 0 -186 75l36 37q47 -50 136 -50z" />
    <glyph glyph-name="uni0438" unicode="&#x438;" horiz-adv-x="609" 
d="M80 0v500h78v-387l296 387h78v-500h-78v387l-296 -387h-78z" />
    <glyph glyph-name="uni0439" unicode="&#x439;" horiz-adv-x="609" 
d="M80 0v500h78v-387l296 387h78v-500h-78v387l-296 -387h-78zM133 673l39 40q50 -52 134 -52t134 52l39 -40q-69 -71 -173 -71t-173 71z" />
    <glyph glyph-name="uni043A" unicode="&#x43a;" horiz-adv-x="560" 
d="M158 0h-78v500h78v-248l238 248h92l-195 -205l222 -295h-87l-184 244l-86 -89v-155z" />
    <glyph glyph-name="uni043B" unicode="&#x43b;" horiz-adv-x="651" 
d="M204 500h366v-500h-77v437h-211q0 -238 -33 -340t-120 -102q-50 0 -93 43l41 42q23 -22 48 -22q45 0 62 97t17 345z" />
    <glyph glyph-name="uni043C" unicode="&#x43c;" horiz-adv-x="738" 
d="M80 0v500h89l200 -384l200 384h89v-500h-77v381l-189 -381h-46l-188 381v-381h-78z" />
    <glyph glyph-name="uni043D" unicode="&#x43d;" horiz-adv-x="607" 
d="M449 0v226h-291v-226h-78v500h78v-211h291v211h78v-500h-78z" />
    <glyph glyph-name="uni043E" unicode="&#x43e;" horiz-adv-x="616" 
d="M53 250q0 113 71 184t184 71t184.5 -71t71.5 -184t-71.5 -184t-184.5 -71t-184 71t-71 184zM130 250q0 -85 49.5 -138.5t128.5 -53.5t128.5 53.5t49.5 138.5t-49.5 138.5t-128.5 53.5t-128.5 -53.5t-49.5 -138.5z" />
    <glyph glyph-name="uni043F" unicode="&#x43f;" horiz-adv-x="602" 
d="M444 0v437h-286v-437h-78v500h442v-500h-78z" />
    <glyph glyph-name="uni0440" unicode="&#x440;" horiz-adv-x="599" 
d="M80 -225v725h77v-131q24 62 73.5 98t114.5 36q89 0 145 -70.5t56 -182.5q0 -113 -68 -183t-178 -70q-84 0 -143 36v-258h-77zM157 257v-163q57 -35 136 -35q78 0 126.5 53t48.5 138q0 86 -43 138t-112 52q-67 0 -111.5 -53t-44.5 -130z" />
    <glyph glyph-name="uni0441" unicode="&#x441;" horiz-adv-x="539" 
d="M451 111l42 -43q-70 -73 -186 -73q-113 0 -183.5 71t-70.5 184t71 184t184 71q114 0 185 -73l-42 -43q-51 53 -139 53q-81 0 -131.5 -53.5t-50.5 -138.5t50.5 -138.5t131.5 -53.5q88 0 139 53z" />
    <glyph glyph-name="uni0442" unicode="&#x442;" horiz-adv-x="587" 
d="M58 437v63h471v-63h-197v-437h-77v437h-197z" />
    <glyph glyph-name="uni0443" unicode="&#x443;" horiz-adv-x="630" 
d="M580 500l-273 -596q-29 -64 -65 -99t-87 -35q-71 0 -113 43l40 41q22 -21 68 -21q30 0 51 25t43 73l33 70l-226 499h76l187 -411l189 411h77z" />
    <glyph glyph-name="uni0444" unicode="&#x444;" horiz-adv-x="708" 
d="M393 -225h-77v224q-117 0 -190 69.5t-73 181.5t73 181.5t190 69.5v224h77v-224q116 0 189.5 -69.5t73.5 -181.5t-73.5 -181.5t-189.5 -69.5v-224zM393 438v-376q82 0 133 52.5t51 135.5t-51 135.5t-133 52.5zM316 62v376q-82 0 -133 -52.5t-51 -135.5t51 -135.5
t133 -52.5z" />
    <glyph glyph-name="uni0445" unicode="&#x445;" horiz-adv-x="591" 
d="M132 0h-89l206 256l-195 244h88l153 -192l153 192h89l-196 -244l206 -256h-89l-163 203z" />
    <glyph glyph-name="uni0446" unicode="&#x446;" horiz-adv-x="682" 
d="M80 0v500h78v-437h281v437h78v-437h107v-218h-77v155h-467z" />
    <glyph glyph-name="uni0447" unicode="&#x447;" horiz-adv-x="589" 
d="M155 500v-142q0 -60 35 -96.5t91 -36.5q63 0 104.5 45t43.5 112v118h78v-500h-78v270q-27 -51 -73 -80t-105 -29q-77 0 -125 52.5t-48 135.5v151h77z" />
    <glyph glyph-name="uni0448" unicode="&#x448;" horiz-adv-x="852" 
d="M464 500v-437h230v437h77v-500h-691v500h78v-437h229v437h77z" />
    <glyph glyph-name="uni0449" unicode="&#x449;" horiz-adv-x="927" 
d="M80 0v500h78v-437h229v437h77v-437h230v437h77v-437h98v-218h-77v155h-712z" />
    <glyph glyph-name="uni044A" unicode="&#x44a;" horiz-adv-x="672" 
d="M58 437v63h244v-183h156q72 0 116.5 -44t44.5 -115t-44.5 -114.5t-116.5 -43.5h-233v437h-167zM302 254v-191h139q45 0 73 26.5t28 68.5q0 43 -28 69.5t-73 26.5h-139z" />
    <glyph glyph-name="uni044B" unicode="&#x44b;" horiz-adv-x="743" 
d="M663 0h-77v500h77v-500zM158 500v-183h155q72 0 116.5 -44t44.5 -115t-44.5 -114.5t-116.5 -43.5h-233v500h78zM158 254v-191h138q45 0 73 26.5t28 68.5q0 43 -28 69.5t-73 26.5h-138z" />
    <glyph glyph-name="uni044C" unicode="&#x44c;" horiz-adv-x="527" 
d="M158 500v-183h155q72 0 116.5 -44t44.5 -115t-44.5 -114.5t-116.5 -43.5h-233v500h78zM158 254v-191h138q45 0 73 26.5t28 68.5q0 43 -28 69.5t-73 26.5h-138z" />
    <glyph glyph-name="uni044D" unicode="&#x44d;" horiz-adv-x="539" 
d="M148 228v58h256q-9 70 -57.5 113t-120.5 43q-88 0 -139 -53l-42 43q71 73 186 73q113 0 183.5 -71t70.5 -184q0 -114 -71 -184.5t-184 -70.5q-115 0 -185 72l42 44q52 -54 139 -54q75 0 125 47.5t55 123.5h-258z" />
    <glyph glyph-name="uni044E" unicode="&#x44e;" horiz-adv-x="795" 
d="M158 0h-78v500h78v-211h106q11 97 75.5 156.5t161.5 59.5q107 0 174 -71t67 -184t-67 -184t-174 -71q-101 0 -166 63.5t-72 167.5h-105v-226zM339 250q0 -85 45 -138.5t117 -53.5q73 0 118.5 53.5t45.5 138.5t-45.5 138.5t-118.5 53.5q-72 0 -117 -53.5t-45 -138.5z" />
    <glyph glyph-name="uni044F" unicode="&#x44f;" horiz-adv-x="538" 
d="M48 0l145 202q-60 7 -96 47t-36 97q0 69 45.5 111.5t118.5 42.5h232l1 -500h-77l-1 198h-109l-140 -198h-83zM381 256v181h-139q-46 0 -75 -25.5t-29 -65.5t29 -65t75 -25h139z" />
    <glyph glyph-name="uni0450" unicode="&#x450;" horiz-adv-x="579" 
d="M527 228h-397q5 -76 56 -123.5t130 -47.5q90 0 142 54l43 -44q-72 -72 -189 -72q-115 0 -187.5 70.5t-72.5 184.5q0 113 66.5 184t171.5 71t171 -71t66 -184v-22zM131 283h318q-2 71 -46.5 115t-110.5 44t-110 -44t-51 -115zM191 701l48 49l146 -146l-32 -33z" />
    <glyph glyph-name="uni0451" unicode="&#x451;" horiz-adv-x="579" 
d="M527 228h-397q5 -76 56 -123.5t130 -47.5q90 0 142 54l43 -44q-72 -72 -189 -72q-115 0 -187.5 70.5t-72.5 184.5q0 113 66.5 184t171.5 71t171 -71t66 -184v-22zM131 283h318q-2 71 -46.5 115t-110.5 44t-110 -44t-51 -115zM135 606v94h78v-94h-78zM365 606v94h77v-94
h-77z" />
    <glyph glyph-name="uni0452" unicode="&#x452;" horiz-adv-x="676" 
d="M488 -242l-33 35q64 65 64 207v301q0 63 -38 102t-98 39q-68 0 -113.5 -54t-47.5 -133v-255h-77v589h-87v49h87v87h77v-87h273v-49h-273v-220q26 63 77 99.5t117 36.5q80 0 130 -53t50 -137v-315q0 -132 -108 -242z" />
    <glyph glyph-name="uni0453" unicode="&#x453;" horiz-adv-x="487" 
d="M429 500v-63h-271v-437h-78v500h349zM292 750l48 -49l-162 -130l-32 33z" />
    <glyph glyph-name="uni0454" unicode="&#x454;" horiz-adv-x="536" 
d="M451 111l42 -43q-70 -73 -186 -73q-113 0 -183.5 71t-70.5 184t71 184t184 71q114 0 185 -73l-42 -43q-51 53 -139 53q-72 0 -120.5 -43t-59.5 -113h276v-58h-277q7 -76 56.5 -123t124.5 -47q88 0 139 53z" />
    <glyph glyph-name="uni0455" unicode="&#x455;" horiz-adv-x="453" 
d="M399 144q0 -66 -52 -107.5t-128 -41.5q-102 0 -170 73l41 42q47 -52 129 -52q44 0 73.5 23.5t29.5 59.5q0 27 -27 46t-65.5 32t-77 28t-65.5 45t-27 73q0 62 46.5 101.5t115.5 39.5q100 0 165 -73l-41 -42q-46 51 -120 51q-40 0 -64.5 -21t-24.5 -54q0 -29 27 -49
t65.5 -33t77 -28t65.5 -43.5t27 -69.5z" />
    <glyph glyph-name="uni0456" unicode="&#x456;" horiz-adv-x="238" 
d="M158 0h-78v500h78v-500zM80 606v94h78v-94h-78z" />
    <glyph glyph-name="uni0457" unicode="&#x457;" horiz-adv-x="238" 
d="M158 0h-78v500h78v-500zM-13 606v94h77v-94h-77zM174 606v94h77v-94h-77z" />
    <glyph glyph-name="uni0458" unicode="&#x458;" horiz-adv-x="278" 
d="M-91 -181l41 42q26 -28 76 -28q41 0 67.5 29.5t26.5 75.5v562h78v-559q0 -76 -46.5 -123.5t-120.5 -47.5q-75 0 -122 49zM120 606v94h78v-94h-78z" />
    <glyph glyph-name="uni0459" unicode="&#x459;" horiz-adv-x="956" 
d="M570 500v-183h156q71 0 116 -44t45 -115q0 -70 -45 -114t-116 -44h-233v437h-211q0 -238 -33 -340t-120 -102q-50 0 -93 43l41 42q23 -22 48 -22q45 0 62 97t17 345h366zM570 254v-191h139q45 0 73 26.5t28 68.5q0 43 -28 69.5t-73 26.5h-139z" />
    <glyph glyph-name="uni045A" unicode="&#x45a;" horiz-adv-x="912" 
d="M527 500v-183h155q72 0 116.5 -44t44.5 -115t-44.5 -114.5t-116.5 -43.5h-233v226h-291v-226h-78v500h78v-211h291v211h78zM527 254v-191h138q45 0 73 26.5t28 68.5q0 43 -28 69.5t-73 26.5h-138z" />
    <glyph glyph-name="uni045B" unicode="&#x45b;" horiz-adv-x="676" 
d="M519 0v301q0 63 -38 102t-98 39q-68 0 -113.5 -54t-47.5 -133v-255h-77v589h-87v49h87v87h77v-87h273v-49h-273v-220q26 63 77 99.5t117 36.5q80 0 130 -53t50 -137v-315h-77z" />
    <glyph glyph-name="uni045C" unicode="&#x45c;" horiz-adv-x="548" 
d="M158 0h-78v500h78v-248l238 248h92l-195 -205l222 -295h-87l-184 244l-86 -89v-155zM322 750l48 -49l-162 -130l-32 33z" />
    <glyph glyph-name="uni045D" unicode="&#x45d;" horiz-adv-x="609" 
d="M80 0v500h78v-387l296 387h78v-500h-78v387l-296 -387h-78zM207 701l48 49l146 -146l-32 -33z" />
    <glyph glyph-name="uni045E" unicode="&#x45e;" horiz-adv-x="630" 
d="M580 500l-273 -596q-29 -64 -65 -99t-87 -35q-71 0 -113 43l40 41q22 -21 68 -21q30 0 51 25t43 73l33 70l-226 499h76l187 -411l189 411h77zM144 684l38 40q53 -53 132 -53q81 0 132 53l39 -40q-68 -71 -171 -71q-102 0 -170 71z" />
    <glyph glyph-name="uni045F" unicode="&#x45f;" horiz-adv-x="602" 
d="M262 0h-182v500h78v-437h286v437h78v-500h-182v-155h-78v155z" />
    <glyph glyph-name="uni0490" unicode="&#x490;" horiz-adv-x="592" 
d="M80 0v700h359v100h82v-169h-358v-631h-83z" />
    <glyph glyph-name="uni0491" unicode="&#x491;" horiz-adv-x="477" 
d="M80 0v500h254v125h77v-189h-254v-436h-77z" />
    <glyph glyph-name="uni04D9" unicode="&#x4d9;" horiz-adv-x="579" 
d="M52 271h397q-5 76 -59.5 123.5t-137.5 47.5q-96 0 -150 -54l-43 44q73 73 197 73q119 0 194.5 -71t75.5 -184q0 -114 -66 -184.5t-172 -70.5q-105 0 -170.5 70.5t-65.5 183.5v22zM448 216h-319q3 -71 47.5 -115t110.5 -44q65 0 109 44t52 115z" />
    <glyph glyph-name="Wgrave" unicode="&#x1e80;" horiz-adv-x="1190" 
d="M386 0h-88l-248 700h80l210 -591l210 591h88l209 -591l210 591h80l-248 -700h-88l-207 591zM497 901l48 49l146 -146l-32 -33z" />
    <glyph glyph-name="wgrave" unicode="&#x1e81;" horiz-adv-x="901" 
d="M307 0h-73l-182 500h75l145 -397l143 397h71l142 -397l147 397h74l-183 -500h-72l-143 392zM353 701l48 49l146 -146l-32 -33z" />
    <glyph glyph-name="Wacute" unicode="&#x1e82;" horiz-adv-x="1190" 
d="M386 0h-88l-248 700h80l210 -591l210 591h88l209 -591l210 591h80l-248 -700h-88l-207 591zM643 950l48 -49l-162 -130l-32 33z" />
    <glyph glyph-name="wacute" unicode="&#x1e83;" horiz-adv-x="901" 
d="M307 0h-73l-182 500h75l145 -397l143 397h71l142 -397l147 397h74l-183 -500h-72l-143 392zM499 750l48 -49l-162 -130l-32 33z" />
    <glyph glyph-name="Wdieresis" unicode="&#x1e84;" horiz-adv-x="1190" 
d="M386 0h-88l-248 700h80l210 -591l210 591h88l209 -591l210 591h80l-248 -700h-88l-207 591zM440 806v94h78v-94h-78zM670 806v94h77v-94h-77z" />
    <glyph glyph-name="wdieresis" unicode="&#x1e85;" horiz-adv-x="901" 
d="M307 0h-73l-182 500h75l145 -397l143 397h71l142 -397l147 397h74l-183 -500h-72l-143 392zM296 606v94h78v-94h-78zM526 606v94h77v-94h-77z" />
    <glyph glyph-name="Ygrave" unicode="&#x1ef2;" horiz-adv-x="743" 
d="M330 0v261l-279 439h86l234 -363l235 363h85l-279 -439v-261h-82zM273 901l48 49l146 -146l-32 -33z" />
    <glyph glyph-name="ygrave" unicode="&#x1ef3;" horiz-adv-x="630" 
d="M580 500l-273 -596q-29 -64 -65 -99t-87 -35q-71 0 -113 43l40 41q22 -21 68 -21q30 0 51 25t43 73l33 70l-226 499h76l187 -411l189 411h77zM217 701l48 49l146 -146l-32 -33z" />
    <glyph glyph-name="figuredash" unicode="&#x2012;" horiz-adv-x="581" 
d="M501 328h-421v64h421v-64z" />
    <glyph glyph-name="endash" unicode="&#x2013;" horiz-adv-x="661" 
d="M580 258h-500v64h500v-64z" />
    <glyph glyph-name="emdash" unicode="&#x2014;" horiz-adv-x="1002" 
d="M922 258h-842v64h842v-64z" />
    <glyph glyph-name="quoteleft" unicode="&#x2018;" horiz-adv-x="279" 
d="M188 715l34 -35q-64 -64 -64 -229h-78q0 154 108 264z" />
    <glyph glyph-name="quoteright" unicode="&#x2019;" horiz-adv-x="279" 
d="M91 440l-34 35q64 64 64 230h77q0 -156 -107 -265z" />
    <glyph glyph-name="quotesinglbase" unicode="&#x201a;" horiz-adv-x="238" 
d="M50 -152l-34 35q64 64 64 229h78q0 -154 -108 -264z" />
    <glyph glyph-name="quotereversed" unicode="&#x201b;" horiz-adv-x="279" 
d="M217 480l-33 -35q-108 108 -108 255h77q0 -155 64 -220z" />
    <glyph glyph-name="quotedblleft" unicode="&#x201c;" horiz-adv-x="469" 
d="M188 715l34 -35q-64 -64 -64 -229h-78q0 154 108 264zM378 715l34 -35q-64 -64 -64 -229h-78q0 154 108 264z" />
    <glyph glyph-name="quotedblright" unicode="&#x201d;" horiz-adv-x="469" 
d="M91 440l-34 35q64 64 64 230h77q0 -156 -107 -265zM281 440l-34 35q64 64 64 230h77q0 -156 -107 -265z" />
    <glyph glyph-name="quotedblbase" unicode="&#x201e;" horiz-adv-x="428" 
d="M50 -152l-34 35q64 64 64 229h78q0 -154 -108 -264zM240 -152l-34 35q64 64 64 229h78q0 -154 -108 -264z" />
    <glyph glyph-name="uni201F" unicode="&#x201f;" horiz-adv-x="469" 
d="M407 480l-33 -35q-108 108 -108 255h77q0 -155 64 -220zM217 480l-33 -35q-108 108 -108 255h77q0 -155 64 -220z" />
    <glyph glyph-name="dagger" unicode="&#x2020;" horiz-adv-x="478" 
d="M51 464v63h150v198h77v-198h150v-63h-150v-564h-77v564h-150z" />
    <glyph glyph-name="daggerdbl" unicode="&#x2021;" horiz-adv-x="478" 
d="M51 98v64h150v302h-150v63h150v198h77v-198h150v-63h-150v-302h150v-64h-150v-198h-77v198h-150z" />
    <glyph glyph-name="bullet" unicode="&#x2022;" horiz-adv-x="310" 
d="M53 322q0 44 29.5 73.5t74.5 29.5q44 0 71 -29t27 -74q0 -43 -27 -71.5t-71 -28.5q-45 0 -74.5 28.5t-29.5 71.5z" />
    <glyph glyph-name="ellipsis" unicode="&#x2026;" horiz-adv-x="661" 
d="M80 0v112h78v-112h-78zM292 0v112h77v-112h-77zM504 0v112h77v-112h-77z" />
    <glyph glyph-name="perthousand" unicode="&#x2030;" horiz-adv-x="1335" 
d="M297 0h-83l418 725h83zM53 562q0 74 46 120t120 46t119.5 -46t45.5 -120t-46 -119.5t-119 -45.5q-74 0 -120 45.5t-46 119.5zM119 562q0 -47 28 -76.5t72 -29.5t72 29.5t28 76.5t-28 77t-72 30t-72 -30t-28 -77zM543 162q0 74 46 120t120 46t119.5 -46t45.5 -120
t-46 -119.5t-119 -45.5q-74 0 -120 46t-46 119zM609 162q0 -47 28 -76.5t72 -29.5t72 29.5t28 76.5t-28 77t-72 30t-72 -30t-28 -77zM951 162q0 74 46 120t120 46t119.5 -46t45.5 -120t-46 -119.5t-119 -45.5q-74 0 -120 46t-46 119zM1017 162q0 -47 28 -76.5t72 -29.5
t72 29.5t28 76.5t-28 77t-72 30t-72 -30t-28 -77z" />
    <glyph glyph-name="guilsinglleft" unicode="&#x2039;" horiz-adv-x="396" 
d="M271 71l-203 204l203 204l47 -48l-156 -156l156 -156z" />
    <glyph glyph-name="guilsinglright" unicode="&#x203a;" horiz-adv-x="396" 
d="M124 479l204 -204l-204 -204l-47 48l156 156l-156 156z" />
    <glyph glyph-name="fraction" unicode="&#x2044;" horiz-adv-x="509" 
d="M51 -100h-68l476 825h68z" />
    <glyph glyph-name="Euro" unicode="&#x20ac;" horiz-adv-x="814" 
d="M55 238v58h87q-3 27 -3 52q0 28 3 55h-87v59h99q32 111 123 177t217 66q158 0 259 -101q-32 -34 -49 -50q-74 82 -207 82q-92 0 -160 -47t-95 -127h347v-59h-364q-4 -24 -4 -54q0 -29 4 -53h364v-58h-347q27 -81 95 -128t160 -47q134 0 207 82q8 -7 16 -15.5t18 -18.5
l15 -15q-98 -101 -260 -101q-127 0 -217 65.5t-122 177.5h-99z" />
    <glyph glyph-name="uni2116" unicode="&#x2116;" horiz-adv-x="1180" 
d="M599 0l-436 571v-571h-83v700h83l436 -571v571h83v-700h-83zM782 531q0 77 48 125t124 48q77 0 125 -48t48 -125t-48 -125t-125 -48t-124.5 48t-47.5 125zM839 531q0 -56 32 -91t83 -35q52 0 84.5 35t32.5 91t-32.5 91t-84.5 35q-51 0 -83 -35t-32 -91zM1124 200h-339v50
h339v-50z" />
    <glyph glyph-name="trademark" unicode="&#x2122;" horiz-adv-x="903" 
d="M56 653v47h323v-47h-133v-303h-57v303h-133zM444 350v350h66l137 -265l138 265h66v-350h-57v261l-128 -261h-36l-129 261v-261h-57z" />
    <glyph glyph-name="Omega" unicode="&#x2126;" horiz-adv-x="811" 
d="M481 0v69q89 24 142 99.5t53 181.5q0 126 -75.5 206.5t-195.5 80.5q-119 0 -194.5 -80.5t-75.5 -206.5q0 -106 53.5 -181.5t142.5 -99.5v-69h-278v69h140q-66 43 -103 115.5t-37 165.5q0 157 98 256t254 99q157 0 255 -98.5t98 -256.5q0 -93 -37 -165.5t-103 -115.5h140
v-69h-277z" />
    <glyph glyph-name="arrowleft" unicode="&#x2190;" horiz-adv-x="1090" 
d="M404 -3l-354 354l354 353l51 -52l-267 -264h827v-74h-827l267 -265z" />
    <glyph glyph-name="arrowup" unicode="&#x2191;" horiz-adv-x="808" 
d="M368 -210v823l-267 -265l-51 53l354 354l354 -354l-51 -52l-267 264v-823h-72z" />
    <glyph glyph-name="arrowright" unicode="&#x2192;" horiz-adv-x="1090" 
d="M75 314v74h828l-267 264l50 52l354 -353l-354 -354l-51 52l268 265h-828z" />
    <glyph glyph-name="arrowdown" unicode="&#x2193;" horiz-adv-x="808" 
d="M404 -214l-354 354l51 52l267 -265v823h72v-823l267 264l51 -51z" />
    <glyph glyph-name="uni2196" unicode="&#x2196;" horiz-adv-x="833" 
d="M75 200v500h500v-74h-378l586 -581l-51 -53l-585 582v-374h-72z" />
    <glyph glyph-name="uni2197" unicode="&#x2197;" horiz-adv-x="833" 
d="M258 626v74h500v-500h-72v374l-585 -582l-51 53l585 581h-377z" />
    <glyph glyph-name="uni2198" unicode="&#x2198;" horiz-adv-x="833" 
d="M258 0v74h377l-585 581l51 53l585 -582v374h72v-500h-500z" />
    <glyph glyph-name="uni2199" unicode="&#x2199;" horiz-adv-x="833" 
d="M75 0v500h72v-374l585 582l51 -53l-586 -581h378v-74h-500z" />
    <glyph glyph-name="Delta" unicode="&#x2206;" horiz-adv-x="837" 
d="M786 0h-735l326 700h84zM419 610l-251 -541h501z" />
    <glyph glyph-name="product" unicode="&#x220f;" horiz-adv-x="749" 
d="M587 0v631h-424v-631h-83v700h589v-700h-82z" />
    <glyph glyph-name="summation" unicode="&#x2211;" horiz-adv-x="670" 
d="M594 631h-394l229 -274l-240 -288h413v-69h-534v36l265 321l-257 307v36h518v-69z" />
    <glyph glyph-name="minus" unicode="&#x2212;" horiz-adv-x="581" 
d="M501 328h-421v64h421v-64z" />
    <glyph glyph-name="CR" horiz-adv-x="255" 
 />
    <glyph glyph-name="afii10069.alt" horiz-adv-x="747" 
d="M72 63h65l199 437h78l198 -437h67v-218h-77v155h-453v-155h-77v218zM376 416l-163 -353h323z" />
    <glyph glyph-name="afii10021.alt" horiz-adv-x="969" 
d="M64 69h81l297 631h84l294 -631h83v-244h-82v175h-675v-175h-82v244zM483 610l-251 -541h502z" />
    <glyph glyph-name="afii10029.alt" horiz-adv-x="837" 
d="M419 607l-277 -607h-91l326 700h84l325 -700h-90z" />
    <glyph glyph-name="afii10058.alt" horiz-adv-x="1097" 
d="M419 607l-277 -607h-91l326 700h84l125 -268h235q94 0 154 -60.5t60 -155.5q0 -96 -59.5 -156t-154.5 -60h-125zM813 363h-196l139 -294h57q62 0 101 41t39 106t-39 106t-101 41z" />
    <glyph glyph-name="commaaccent" horiz-adv-x="257" 
d="M91 -287l-27 28q54 54 54 179h60q0 -118 -87 -207z" />
    <glyph glyph-name="afii10077.alt" horiz-adv-x="632" 
d="M277 500h77l225 -500h-77l-186 414l-187 -414h-78z" />
    <glyph glyph-name="y.alt" 
d="M454 0v125q-28 -60 -78 -95t-115 -35q-80 0 -130.5 55.5t-50.5 144.5v305h78v-295q0 -66 38 -106.5t98 -40.5q70 0 115 56.5t45 138.5v247h78v-500q0 -102 -71.5 -166t-185.5 -64q-122 0 -198 73l41 42q58 -52 158 -52q79 0 128.5 46.5t49.5 120.5z" />
    <glyph glyph-name="yacute.alt" 
d="M454 0v125q-28 -60 -78 -95t-115 -35q-80 0 -130.5 55.5t-50.5 144.5v305h78v-295q0 -66 38 -106.5t98 -40.5q68 0 113 54t47 133v255h78v-500q0 -102 -71.5 -166t-185.5 -64q-122 0 -198 73l41 42q58 -52 158 -52q79 0 128.5 46.5t49.5 120.5zM354 750l48 -49l-162 -130
l-32 33z" />
    <glyph glyph-name="afii10106.alt" horiz-adv-x="843" 
d="M51 0l226 500h77l84 -183h182q71 0 116 -44t45 -115q0 -70 -45 -114t-116 -44h-118l-186 414l-187 -414h-78zM464 254l88 -191h51q45 0 73 26.5t28 68.5q0 43 -28 69.5t-73 26.5h-139z" />
    <glyph glyph-name="ycircumflex.alt" 
d="M454 0v125q-28 -60 -78 -95t-115 -35q-80 0 -130.5 55.5t-50.5 144.5v305h78v-295q0 -66 38 -106.5t98 -40.5q68 0 113 54t47 133v255h78v-500q0 -102 -71.5 -166t-185.5 -64q-122 0 -198 73l41 42q58 -52 158 -52q79 0 128.5 46.5t49.5 120.5zM145 637l161 113l160 -113
l-40 -41l-120 86l-121 -86z" />
    <glyph glyph-name="ydieresis.alt" 
d="M454 0v125q-28 -60 -78 -95t-115 -35q-80 0 -130.5 55.5t-50.5 144.5v305h78v-295q0 -66 38 -106.5t98 -40.5q68 0 113 54t47 133v255h78v-500q0 -102 -71.5 -166t-185.5 -64q-122 0 -198 73l41 42q58 -52 158 -52q79 0 128.5 46.5t49.5 120.5zM151 606v94h78v-94h-78z
M381 606v94h77v-94h-77z" />
    <glyph glyph-name="ygrave.alt" 
d="M454 0v125q-28 -60 -78 -95t-115 -35q-80 0 -130.5 55.5t-50.5 144.5v305h78v-295q0 -66 38 -106.5t98 -40.5q68 0 113 54t47 133v255h78v-500q0 -102 -71.5 -166t-185.5 -64q-122 0 -198 73l41 42q58 -52 158 -52q79 0 128.5 46.5t49.5 120.5zM208 701l48 49l146 -146
l-32 -33z" />
    <glyph glyph-name="zero.slash" horiz-adv-x="648" 
d="M137 -25h-60l61 104q-85 99 -85 271q0 159 73.5 257t195.5 98q84 0 147 -49l41 69h60l-62 -107q84 -98 84 -268q0 -159 -74 -257t-196 -98q-83 0 -145 48zM133 349q0 -117 48 -191l253 434q-47 47 -112 47q-84 0 -136.5 -80.5t-52.5 -209.5zM512 349q0 117 -48 190
l-252 -433q47 -45 110 -45q86 0 138 80t52 208z" />
    <glyph glyph-name="Asmall" horiz-adv-x="714" 
d="M317 539h81l258 -539h-77l-68 141h-307l-68 -141h-78zM357 459l-124 -256h250z" />
    <glyph glyph-name="Bsmall" horiz-adv-x="562" 
d="M96 0v539h218q64 0 104.5 -37.5t40.5 -96.5q0 -40 -18.5 -71.5t-49.5 -48.5q45 -12 72 -49.5t27 -89.5q0 -65 -43.5 -105.5t-113.5 -40.5h-237zM175 62h133q45 0 73 26.5t28 67.5t-28 67.5t-73 26.5h-133v-188zM291 477h-116v-165h116q39 0 64 23.5t25 59.5t-25 59
t-64 23z" />
    <glyph glyph-name="Csmall" horiz-adv-x="631" 
d="M517 118l46 -45q-79 -79 -209 -79q-127 0 -206 76t-79 198t79.5 198t206.5 76q128 0 208 -78l-46 -45q-56 61 -159 61q-94 0 -152 -59t-58 -153t58 -153t152 -59q103 0 159 62z" />
    <glyph glyph-name="Dsmall" horiz-adv-x="664" 
d="M96 0v539h217q124 0 201.5 -75t77.5 -195q0 -119 -77.5 -194t-201.5 -75h-217zM514 269q0 91 -56.5 149.5t-144.5 58.5h-138v-415h138q88 0 144.5 58t56.5 149z" />
    <glyph glyph-name="Esmall" horiz-adv-x="575" 
d="M96 0v539h386v-62h-307v-172h284v-62h-284v-181h314v-62h-393z" />
    <glyph glyph-name="Fsmall" horiz-adv-x="570" 
d="M96 0v539h386v-62h-307v-181h283v-62h-283v-234h-79z" />
    <glyph glyph-name="Gsmall" horiz-adv-x="663" 
d="M338 232v62h225v-221q-79 -79 -209 -79q-127 0 -206 76t-79 198q0 121 79.5 197.5t206.5 76.5q128 0 208 -78l-46 -45q-56 61 -159 61q-94 0 -152 -59t-58 -153t58 -153t152 -59q74 0 127 36v140h-147z" />
    <glyph glyph-name="Hsmall" horiz-adv-x="675" 
d="M497 0v243h-322v-243h-79v539h79v-234h322v234h79v-539h-79z" />
    <glyph glyph-name="Ismall" horiz-adv-x="275" 
d="M175 0h-79v539h79v-539z" />
    <glyph glyph-name="Jsmall" horiz-adv-x="530" 
d="M351 191v347h79v-347q0 -88 -58 -142.5t-150 -54.5t-153 56l46 46q37 -40 102 -40q59 0 96.5 38t37.5 97z" />
    <glyph glyph-name="Ksmall" horiz-adv-x="617" 
d="M175 0h-79v539h79v-251l259 251h97l-236 -231l257 -308h-90l-218 255l-69 -71v-184z" />
    <glyph glyph-name="Lsmall" horiz-adv-x="574" 
d="M96 0v539h79v-477h324v-62h-403z" />
    <glyph glyph-name="Msmall" horiz-adv-x="829" 
d="M96 0v539h104l213 -434l212 434h105v-539h-79v426l-208 -426h-58l-210 426v-426h-79z" />
    <glyph glyph-name="Nsmall" horiz-adv-x="684" 
d="M506 0l-331 421v-421h-79v539h79l331 -421v421h79v-539h-79z" />
    <glyph glyph-name="Osmall" horiz-adv-x="710" 
d="M69 268q0 122 78.5 198t205.5 76q126 0 205.5 -76.5t79.5 -197.5t-79.5 -197.5t-205.5 -76.5q-127 0 -205.5 76t-78.5 198zM148 268q0 -93 57.5 -152.5t147.5 -59.5q91 0 148 59.5t57 152.5t-57 152.5t-148 59.5q-90 0 -147.5 -59.5t-57.5 -152.5z" />
    <glyph glyph-name="Psmall" horiz-adv-x="552" 
d="M96 0v539h207q78 0 127.5 -47.5t49.5 -123.5t-49.5 -123.5t-127.5 -47.5h-128v-197h-79zM294 477h-119v-218h119q47 0 77 30.5t30 78.5t-30 78.5t-77 30.5z" />
    <glyph glyph-name="Qsmall" horiz-adv-x="709" 
d="M68 267q0 122 79 198t205 76q127 0 206 -76t79 -198q0 -104 -62 -179l59 -54l-23 -23l-22 -22q-11 9 -60 56q-72 -52 -177 -52q-126 0 -205 76t-79 198zM386 184q21 22 45 45l90 -86q37 53 37 124q0 93 -57 152t-149 59q-90 0 -147.5 -59t-57.5 -152t57.5 -152.5
t147.5 -59.5q76 0 127 39z" />
    <glyph glyph-name="Rsmall" horiz-adv-x="566" 
d="M481 382q0 -67 -41.5 -110t-109.5 -47l175 -225h-88l-174 225h-68v-225h-79v539h223q72 0 117 -43.5t45 -113.5zM309 476h-134v-188h134q41 0 67.5 26.5t26.5 67.5t-26.5 67.5t-67.5 26.5z" />
    <glyph glyph-name="Ssmall" horiz-adv-x="511" 
d="M440 154q0 -71 -56.5 -115.5t-138.5 -44.5q-104 0 -180 79l41 39q51 -56 137 -56q52 0 85 26t33 67q0 30 -29.5 50.5t-71 34.5t-83.5 30t-71.5 48.5t-29.5 80.5q0 67 49.5 108t125.5 41q105 0 178 -78l-39 -40q-54 56 -131 56q-49 0 -76.5 -23t-27.5 -61q0 -33 29.5 -56
t71.5 -36.5t83.5 -29.5t71 -46t29.5 -74z" />
    <glyph glyph-name="Tsmall" horiz-adv-x="665" 
d="M76 477v62h511v-62h-216v-477h-79v477h-216z" />
    <glyph glyph-name="Usmall" horiz-adv-x="691" 
d="M513 235v303h78v-303q0 -112 -67 -176.5t-180 -64.5t-180.5 64.5t-67.5 176.5v303h79v-303q0 -80 47 -129.5t122 -49.5q76 0 122.5 49.5t46.5 129.5z" />
    <glyph glyph-name="Vsmall" horiz-adv-x="706" 
d="M393 0h-81l-258 539h83l216 -460q15 36 107.5 229t108.5 231h84z" />
    <glyph glyph-name="Wsmall" horiz-adv-x="986" 
d="M337 0h-84l-195 539h75l160 -440l159 440h85l158 -440l161 440h76l-196 -539h-85l-157 440z" />
    <glyph glyph-name="Xsmall" horiz-adv-x="670" 
d="M153 0h-89l224 275l-213 264h89l170 -211l172 211h89l-214 -264l224 -275h-89l-182 221z" />
    <glyph glyph-name="Ysmall" horiz-adv-x="630" 
d="M275 0v199l-220 340h82l178 -271l179 271h81l-220 -340v-199h-80z" />
    <glyph glyph-name="Zsmall" horiz-adv-x="660" 
d="M96 477v62h481v-39l-377 -438h382v-62h-493v39l377 438h-370z" />
    <glyph glyph-name="Aacutesmall" horiz-adv-x="714" 
d="M317 539h81l258 -539h-77l-68 141h-307l-68 -141h-78zM357 459l-124 -256h250zM407 770l48 -49l-162 -130l-32 33z" />
    <glyph glyph-name="Cacute.small" horiz-adv-x="631" 
d="M517 118l46 -45q-79 -79 -209 -79q-127 0 -206 76t-79 198t79.5 198t206.5 76q128 0 208 -78l-46 -45q-56 61 -159 61q-94 0 -152 -59t-58 -153t58 -153t152 -59q103 0 159 62zM380 770l48 -49l-162 -130l-32 33z" />
    <glyph glyph-name="Dcaron.small" horiz-adv-x="664" 
d="M477 730l-159 -115l-161 115l40 40l121 -86l120 86zM96 0v539h217q124 0 201.5 -75t77.5 -195q0 -119 -77.5 -194t-201.5 -75h-217zM514 269q0 91 -56.5 149.5t-144.5 58.5h-138v-415h138q88 0 144.5 58t56.5 149z" />
    <glyph glyph-name="Eacutesmall" horiz-adv-x="575" 
d="M96 0v539h386v-62h-307v-172h284v-62h-284v-181h314v-62h-393zM347 770l48 -49l-162 -130l-32 33z" />
    <glyph glyph-name="Gbreve.small" horiz-adv-x="663" 
d="M338 232v62h225v-221q-79 -79 -209 -79q-127 0 -206 76t-79 198q0 121 79.5 197.5t206.5 76.5q128 0 208 -78l-46 -45q-56 61 -159 61q-94 0 -152 -59t-58 -153t58 -153t152 -59q74 0 127 36v140h-147zM165 704l38 40q53 -53 132 -53q81 0 132 53l39 -40
q-68 -71 -171 -71q-102 0 -170 71z" />
    <glyph glyph-name="Hcircumflex.small" horiz-adv-x="675" 
d="M174 657l161 113l160 -113l-40 -41l-120 86l-121 -86zM497 0v243h-322v-243h-79v539h79v-234h322v234h79v-539h-79z" />
    <glyph glyph-name="Iacutesmall" horiz-adv-x="275" 
d="M175 0h-79v539h79v-539zM187 770l48 -49l-162 -130l-32 33z" />
    <glyph glyph-name="Jcircumflex.small" horiz-adv-x="530" 
d="M230 657l161 113l160 -113l-40 -41l-120 86l-121 -86zM351 191v347h79v-347q0 -88 -58 -142.5t-150 -54.5t-153 56l46 46q37 -40 102 -40q59 0 96.5 38t37.5 97z" />
    <glyph glyph-name="Kcommaaccent.small" horiz-adv-x="617" 
d="M175 0h-79v539h79v-251l259 251h97l-236 -231l257 -308h-90l-218 255l-69 -71v-184zM261 -287l-27 28q54 54 54 179h60q0 -118 -87 -207z" />
    <glyph glyph-name="Lacute.small" horiz-adv-x="574" 
d="M96 0v539h79v-477h324v-62h-403zM355 770l48 -49l-162 -130l-32 33z" />
    <glyph glyph-name="Nacute.small" horiz-adv-x="684" 
d="M506 0l-331 421v-421h-79v539h79l331 -421v421h79v-539h-79zM390 770l48 -49l-162 -130l-32 33z" />
    <glyph glyph-name="Oacutesmall" horiz-adv-x="710" 
d="M69 268q0 122 78.5 198t205.5 76q126 0 205.5 -76.5t79.5 -197.5t-79.5 -197.5t-205.5 -76.5q-127 0 -205.5 76t-78.5 198zM148 268q0 -93 57.5 -152.5t147.5 -59.5q91 0 148 59.5t57 152.5t-57 152.5t-148 59.5q-90 0 -147.5 -59.5t-57.5 -152.5zM401 770l48 -49
l-162 -130l-32 33z" />
    <glyph glyph-name="Racute.small" horiz-adv-x="566" 
d="M481 382q0 -67 -41.5 -110t-109.5 -47l175 -225h-88l-174 225h-68v-225h-79v539h223q72 0 117 -43.5t45 -113.5zM309 476h-134v-188h134q41 0 67.5 26.5t26.5 67.5t-26.5 67.5t-67.5 26.5zM334 770l48 -49l-162 -130l-32 33z" />
    <glyph glyph-name="Sacute.small" horiz-adv-x="511" 
d="M440 154q0 -71 -56.5 -115.5t-138.5 -44.5q-104 0 -180 79l41 39q51 -56 137 -56q52 0 85 26t33 67q0 30 -29.5 50.5t-71 34.5t-83.5 30t-71.5 48.5t-29.5 80.5q0 67 49.5 108t125.5 41q105 0 178 -78l-39 -40q-54 56 -131 56q-49 0 -76.5 -23t-27.5 -61q0 -33 29.5 -56
t71.5 -36.5t83.5 -29.5t71 -46t29.5 -74zM305 770l48 -49l-162 -130l-32 33z" />
    <glyph glyph-name="Tcaron.small" horiz-adv-x="665" 
d="M491 730l-159 -115l-161 115l40 40l121 -86l120 86zM76 477v62h511v-62h-216v-477h-79v477h-216z" />
    <glyph glyph-name="Uacutesmall" horiz-adv-x="691" 
d="M513 235v303h78v-303q0 -112 -67 -176.5t-180 -64.5t-180.5 64.5t-67.5 176.5v303h79v-303q0 -80 47 -129.5t122 -49.5q76 0 122.5 49.5t46.5 129.5zM391 770l48 -49l-162 -130l-32 33z" />
    <glyph glyph-name="Wacute.small" horiz-adv-x="986" 
d="M337 0h-84l-195 539h75l160 -440l159 440h85l158 -440l161 440h76l-196 -539h-85l-157 440zM544 770l48 -49l-162 -130l-32 33z" />
    <glyph glyph-name="Yacutesmall" horiz-adv-x="630" 
d="M275 0v199l-220 340h82l178 -271l179 271h81l-220 -340v-199h-80zM363 770l48 -49l-162 -130l-32 33z" />
    <glyph glyph-name="Zacute.small" horiz-adv-x="660" 
d="M96 477v62h481v-39l-377 -438h382v-62h-493v39l377 438h-370zM384 770l48 -49l-162 -130l-32 33z" />
    <glyph glyph-name="Abreve.small" horiz-adv-x="714" 
d="M317 539h81l258 -539h-77l-68 141h-307l-68 -141h-78zM357 459l-124 -256h250zM187 704l38 40q53 -53 132 -53q81 0 132 53l39 -40q-68 -71 -171 -71q-102 0 -170 71z" />
    <glyph glyph-name="Acircumflexsmall" horiz-adv-x="714" 
d="M317 539h81l258 -539h-77l-68 141h-307l-68 -141h-78zM357 459l-124 -256h250zM197 657l161 113l160 -113l-40 -41l-120 86l-121 -86z" />
    <glyph glyph-name="Adieresissmall" horiz-adv-x="714" 
d="M317 539h81l258 -539h-77l-68 141h-307l-68 -141h-78zM357 459l-124 -256h250zM203 626v94h78v-94h-78zM433 626v94h77v-94h-77z" />
    <glyph glyph-name="Agravesmall" horiz-adv-x="714" 
d="M317 539h81l258 -539h-77l-68 141h-307l-68 -141h-78zM357 459l-124 -256h250zM260 721l48 49l146 -146l-32 -33z" />
    <glyph glyph-name="Amacron.small" horiz-adv-x="714" 
d="M317 539h81l258 -539h-77l-68 141h-307l-68 -141h-78zM357 459l-124 -256h250zM511 668h-308v52h308v-52z" />
    <glyph glyph-name="Aogonek.small" horiz-adv-x="714" 
d="M601 0h-22l-68 141h-307l-68 -141h-78l259 539h81l258 -539q-9 -11 -23 -29.5t-37 -61.5t-23 -70q0 -43 44 -43q34 0 58 25l31 -33q-39 -41 -91 -41q-39 0 -64 23t-25 59q0 38 19 80.5t37 66.5zM357 459l-124 -256h250z" />
    <glyph glyph-name="Aringsmall" horiz-adv-x="714" 
d="M317 539h81l258 -539h-77l-68 141h-307l-68 -141h-78zM357 459l-124 -256h250zM279 692q0 36 21.5 58t56.5 22t56.5 -22t21.5 -58q0 -35 -21.5 -57t-56.5 -22t-56.5 22t-21.5 57zM312 692q0 -20 12.5 -32.5t32.5 -12.5t32.5 12.5t12.5 32.5q0 21 -12.5 33.5t-32.5 12.5
t-32.5 -12.5t-12.5 -33.5z" />
    <glyph glyph-name="Atildesmall" horiz-adv-x="714" 
d="M317 539h81l258 -539h-77l-68 141h-307l-68 -141h-78zM357 459l-124 -256h250zM209 645l-10.5 10.5l-12.5 12.5l-11 11q55 56 112 56q28 0 77 -18.5t72 -18.5q35 0 69 31l34 -34q-55 -56 -110 -56q-28 0 -76.5 18.5t-72.5 18.5q-37 0 -71 -31z" />
    <glyph glyph-name="Ccaron.small" horiz-adv-x="631" 
d="M493 730l-159 -115l-161 115l40 40l121 -86l120 86zM517 118l46 -45q-79 -79 -209 -79q-127 0 -206 76t-79 198t79.5 198t206.5 76q128 0 208 -78l-46 -45q-56 61 -159 61q-94 0 -152 -59t-58 -153t58 -153t152 -59q103 0 159 62z" />
    <glyph glyph-name="Ccedillasmall" horiz-adv-x="631" 
d="M261 -159l30 29q29 -29 57 -29q21 0 32.5 9.5t11.5 24.5q0 12 -7 20t-17.5 14.5t-20.5 15t-17.5 26.5t-8.5 45q-114 10 -183 84t-69 188q0 122 79.5 198t206.5 76q128 0 208 -78l-46 -45q-56 61 -159 61q-94 0 -152 -59t-58 -153t58 -153t152 -59q103 0 159 62l46 -45
q-74 -74 -197 -79q1 -28 12.5 -44t24.5 -21t23.5 -19.5t10.5 -39.5q0 -32 -24.5 -52t-62.5 -20q-51 0 -89 43z" />
    <glyph glyph-name="Ccircumflex.small" horiz-adv-x="631" 
d="M172 657l161 113l160 -113l-40 -41l-120 86l-121 -86zM517 118l46 -45q-79 -79 -209 -79q-127 0 -206 76t-79 198t79.5 198t206.5 76q128 0 208 -78l-46 -45q-56 61 -159 61q-94 0 -152 -59t-58 -153t58 -153t152 -59q103 0 159 62z" />
    <glyph glyph-name="Cdotaccent.small" horiz-adv-x="631" 
d="M517 118l46 -45q-79 -79 -209 -79q-127 0 -206 76t-79 198t79.5 198t206.5 76q128 0 208 -78l-46 -45q-56 61 -159 61q-94 0 -152 -59t-58 -153t58 -153t152 -59q103 0 159 62zM294 626v94h78v-94h-78z" />
    <glyph glyph-name="Ebreve.small" horiz-adv-x="575" 
d="M96 0v539h386v-62h-307v-172h284v-62h-284v-181h314v-62h-393zM122 704l38 40q53 -53 132 -53q81 0 132 53l39 -40q-68 -71 -171 -71q-102 0 -170 71z" />
    <glyph glyph-name="Ecaron.small" horiz-adv-x="575" 
d="M452 730l-159 -115l-161 115l40 40l121 -86l120 86zM96 0v539h386v-62h-307v-172h284v-62h-284v-181h314v-62h-393z" />
    <glyph glyph-name="Ecircumflexsmall" horiz-adv-x="575" 
d="M137 657l161 113l160 -113l-40 -41l-120 86l-121 -86zM96 0v539h386v-62h-307v-172h284v-62h-284v-181h314v-62h-393z" />
    <glyph glyph-name="Edieresissmall" horiz-adv-x="575" 
d="M96 0v539h386v-62h-307v-172h284v-62h-284v-181h314v-62h-393zM139 626v94h78v-94h-78zM369 626v94h77v-94h-77z" />
    <glyph glyph-name="Edotaccent.small" horiz-adv-x="575" 
d="M96 0v539h386v-62h-307v-172h284v-62h-284v-181h314v-62h-393zM253 626v94h78v-94h-78z" />
    <glyph glyph-name="Egravesmall" horiz-adv-x="575" 
d="M96 0v539h386v-62h-307v-172h284v-62h-284v-181h314v-62h-393zM195 721l48 49l146 -146l-32 -33z" />
    <glyph glyph-name="Emacron.small" horiz-adv-x="575" 
d="M96 0v539h386v-62h-307v-172h284v-62h-284v-181h314v-62h-393zM443 668h-308v52h308v-52z" />
    <glyph glyph-name="Eogonek.small" horiz-adv-x="575" 
d="M96 0v539h386v-62h-307v-172h284v-62h-284v-181h314v-62q-9 -11 -23 -29.5t-37 -61.5t-23 -70q0 -43 44 -43q34 0 58 25l31 -33q-39 -41 -91 -41q-39 0 -64 23t-25 59q0 38 18.5 80.5t37.5 66.5l19 24h-338z" />
    <glyph glyph-name="Gcircumflex.small" horiz-adv-x="663" 
d="M338 232v62h225v-221q-79 -79 -209 -79q-127 0 -206 76t-79 198q0 121 79.5 197.5t206.5 76.5q128 0 208 -78l-46 -45q-56 61 -159 61q-94 0 -152 -59t-58 -153t58 -153t152 -59q74 0 127 36v140h-147zM173 657l161 113l160 -113l-40 -41l-120 86l-121 -86z" />
    <glyph glyph-name="Gcommaaccent.small" horiz-adv-x="663" 
d="M338 232v62h225v-221q-79 -79 -209 -79q-127 0 -206 76t-79 198q0 121 79.5 197.5t206.5 76.5q128 0 208 -78l-46 -45q-56 61 -159 61q-94 0 -152 -59t-58 -153t58 -153t152 -59q74 0 127 36v140h-147zM297 -287l-27 28q54 54 54 179h60q0 -118 -87 -207z" />
    <glyph glyph-name="Gdotaccent.small" horiz-adv-x="663" 
d="M338 232v62h225v-221q-79 -79 -209 -79q-127 0 -206 76t-79 198q0 121 79.5 197.5t206.5 76.5q128 0 208 -78l-46 -45q-56 61 -159 61q-94 0 -152 -59t-58 -153t58 -153t152 -59q74 0 127 36v140h-147zM298 626v94h78v-94h-78z" />
    <glyph glyph-name="Ibreve.small" horiz-adv-x="275" 
d="M-35 704l38 40q53 -53 132 -53q81 0 132 53l39 -40q-68 -71 -171 -71q-102 0 -170 71zM175 0h-79v539h79v-539z" />
    <glyph glyph-name="Icircumflexsmall" horiz-adv-x="275" 
d="M-24 657l161 113l160 -113l-40 -41l-120 86l-121 -86zM175 0h-79v539h79v-539z" />
    <glyph glyph-name="Idieresissmall" horiz-adv-x="275" 
d="M-16 626v94h78v-94h-78zM214 626v94h77v-94h-77zM175 0h-79v539h79v-539z" />
    <glyph glyph-name="Idotaccent.small" horiz-adv-x="275" 
d="M95 626v94h78v-94h-78zM175 0h-79v539h79v-539z" />
    <glyph glyph-name="Igravesmall" horiz-adv-x="275" 
d="M39 721l48 49l146 -146l-32 -33zM175 0h-79v539h79v-539z" />
    <glyph glyph-name="Imacron.small" horiz-adv-x="275" 
d="M290 668h-308v52h308v-52zM175 0h-79v539h79v-539z" />
    <glyph glyph-name="Iogonek.small" horiz-adv-x="275" 
d="M120 0h-24v539h79v-539q-9 -11 -23 -29.5t-37 -61.5t-23 -70q0 -43 44 -43q34 0 58 25l31 -33q-39 -41 -91 -41q-39 0 -64 23t-25 59q0 38 18.5 80.5t37.5 66.5z" />
    <glyph glyph-name="Itilde.small" horiz-adv-x="275" 
d="M175 0h-79v539h79v-539zM-13 645l-34 34q55 56 112 56q28 0 77 -18.5t72 -18.5q35 0 69 31l34 -34q-55 -56 -110 -56q-28 0 -76.5 18.5t-72.5 18.5q-37 0 -71 -31z" />
    <glyph glyph-name="Lcaron.small" horiz-adv-x="574" 
d="M465 730l-159 -115l-161 115l40 40l121 -86l120 86zM96 0v539h79v-477h324v-62h-403z" />
    <glyph glyph-name="Lcommaaccent.small" horiz-adv-x="574" 
d="M96 0v539h79v-477h324v-62h-403zM255 -287l-27 28q54 54 54 179h60q0 -118 -87 -207z" />
    <glyph glyph-name="Ldot.small" horiz-adv-x="574" 
d="M96 0v539h79v-477h324v-62h-403zM419 244v112h78v-112h-78z" />
    <glyph glyph-name="Ncaron.small" horiz-adv-x="684" 
d="M502 730l-159 -115l-161 115l40 40l121 -86l120 86zM506 0l-331 421v-421h-79v539h79l331 -421v421h79v-539h-79z" />
    <glyph glyph-name="Ncommaaccent.small" horiz-adv-x="684" 
d="M506 0l-331 421v-421h-79v539h79l331 -421v421h79v-539h-79zM308 -287l-27 28q54 54 54 179h60q0 -118 -87 -207z" />
    <glyph glyph-name="Ntildesmall" horiz-adv-x="684" 
d="M506 0l-331 421v-421h-79v539h79l331 -421v421h79v-539h-79zM194 645l-10.5 10.5l-12.5 12.5l-11 11q55 56 112 56q28 0 77 -18.5t72 -18.5q35 0 69 31l34 -34q-55 -56 -110 -56q-28 0 -76.5 18.5t-72.5 18.5q-37 0 -71 -31z" />
    <glyph glyph-name="Obreve.small" horiz-adv-x="710" 
d="M69 268q0 122 78.5 198t205.5 76q126 0 205.5 -76.5t79.5 -197.5t-79.5 -197.5t-205.5 -76.5q-127 0 -205.5 76t-78.5 198zM148 268q0 -93 57.5 -152.5t147.5 -59.5q91 0 148 59.5t57 152.5t-57 152.5t-148 59.5q-90 0 -147.5 -59.5t-57.5 -152.5zM181 704l38 40
q53 -53 132 -53q81 0 132 53l39 -40q-68 -71 -171 -71q-102 0 -170 71z" />
    <glyph glyph-name="Ocircumflexsmall" horiz-adv-x="710" 
d="M190 657l161 113l160 -113l-40 -41l-120 86l-121 -86zM69 268q0 122 78.5 198t205.5 76q126 0 205.5 -76.5t79.5 -197.5t-79.5 -197.5t-205.5 -76.5q-127 0 -205.5 76t-78.5 198zM148 268q0 -93 57.5 -152.5t147.5 -59.5q91 0 148 59.5t57 152.5t-57 152.5t-148 59.5
q-90 0 -147.5 -59.5t-57.5 -152.5z" />
    <glyph glyph-name="Odieresissmall" horiz-adv-x="710" 
d="M69 268q0 122 78.5 198t205.5 76q126 0 205.5 -76.5t79.5 -197.5t-79.5 -197.5t-205.5 -76.5q-127 0 -205.5 76t-78.5 198zM148 268q0 -93 57.5 -152.5t147.5 -59.5q91 0 148 59.5t57 152.5t-57 152.5t-148 59.5q-90 0 -147.5 -59.5t-57.5 -152.5zM196 626v94h78v-94h-78
zM426 626v94h77v-94h-77z" />
    <glyph glyph-name="Ogravesmall" horiz-adv-x="710" 
d="M69 268q0 122 78.5 198t205.5 76q126 0 205.5 -76.5t79.5 -197.5t-79.5 -197.5t-205.5 -76.5q-127 0 -205.5 76t-78.5 198zM148 268q0 -93 57.5 -152.5t147.5 -59.5q91 0 148 59.5t57 152.5t-57 152.5t-148 59.5q-90 0 -147.5 -59.5t-57.5 -152.5zM254 721l48 49
l146 -146l-32 -33z" />
    <glyph glyph-name="Ohungarumlaut.small" horiz-adv-x="710" 
d="M69 268q0 122 78.5 198t205.5 76q126 0 205.5 -76.5t79.5 -197.5t-79.5 -197.5t-205.5 -76.5q-127 0 -205.5 76t-78.5 198zM148 268q0 -93 57.5 -152.5t147.5 -59.5q91 0 148 59.5t57 152.5t-57 152.5t-148 59.5q-90 0 -147.5 -59.5t-57.5 -152.5zM309 770l48 -49
l-162 -130l-32 33zM539 770l47 -49l-161 -130l-32 33z" />
    <glyph glyph-name="Omacron.small" horiz-adv-x="710" 
d="M69 268q0 122 78.5 198t205.5 76q126 0 205.5 -76.5t79.5 -197.5t-79.5 -197.5t-205.5 -76.5q-127 0 -205.5 76t-78.5 198zM148 268q0 -93 57.5 -152.5t147.5 -59.5q91 0 148 59.5t57 152.5t-57 152.5t-148 59.5q-90 0 -147.5 -59.5t-57.5 -152.5zM504 668h-308v52h308
v-52z" />
    <glyph glyph-name="Otildesmall" horiz-adv-x="710" 
d="M69 268q0 122 78.5 198t205.5 76q126 0 205.5 -76.5t79.5 -197.5t-79.5 -197.5t-205.5 -76.5q-127 0 -205.5 76t-78.5 198zM148 268q0 -93 57.5 -152.5t147.5 -59.5q91 0 148 59.5t57 152.5t-57 152.5t-148 59.5q-90 0 -147.5 -59.5t-57.5 -152.5zM203 645l-10.5 10.5
l-12.5 12.5l-11 11q55 56 112 56q28 0 77 -18.5t72 -18.5q35 0 69 31l34 -34q-55 -56 -110 -56q-28 0 -76.5 18.5t-72.5 18.5q-37 0 -71 -31z" />
    <glyph glyph-name="Rcaron.small" horiz-adv-x="566" 
d="M481 382q0 -67 -41.5 -110t-109.5 -47l175 -225h-88l-174 225h-68v-225h-79v539h223q72 0 117 -43.5t45 -113.5zM309 476h-134v-188h134q41 0 67.5 26.5t26.5 67.5t-26.5 67.5t-67.5 26.5zM442 730l-159 -115l-161 115l40 40l121 -86l120 86z" />
    <glyph glyph-name="Rcommaaccent.small" horiz-adv-x="566" 
d="M481 382q0 -67 -41.5 -110t-109.5 -47l175 -225h-88l-174 225h-68v-225h-79v539h223q72 0 117 -43.5t45 -113.5zM309 476h-134v-188h134q41 0 67.5 26.5t26.5 67.5t-26.5 67.5t-67.5 26.5zM238 -287l-27 28q54 54 54 179h60q0 -118 -87 -207z" />
    <glyph glyph-name="Scaronsmall" horiz-adv-x="511" 
d="M440 154q0 -71 -56.5 -115.5t-138.5 -44.5q-104 0 -180 79l41 39q51 -56 137 -56q52 0 85 26t33 67q0 30 -29.5 50.5t-71 34.5t-83.5 30t-71.5 48.5t-29.5 80.5q0 67 49.5 108t125.5 41q105 0 178 -78l-39 -40q-54 56 -131 56q-49 0 -76.5 -23t-27.5 -61q0 -33 29.5 -56
t71.5 -36.5t83.5 -29.5t71 -46t29.5 -74zM414 730l-159 -115l-161 115l40 40l121 -86l120 86z" />
    <glyph glyph-name="Scedilla.small" horiz-adv-x="511" 
d="M161 -159l30 29q29 -29 57 -29q21 0 32.5 9.5t11.5 24.5q0 12 -7 20t-17.5 14.5t-20.5 14.5t-17.5 26t-8.5 45q-88 7 -156 78l41 39q51 -56 137 -56q52 0 85 26t33 67q0 30 -29.5 50.5t-71 34.5t-83.5 30t-71.5 48.5t-29.5 80.5q0 67 49.5 108t125.5 41q105 0 178 -78
l-39 -40q-54 56 -131 56q-49 0 -76.5 -23t-27.5 -61q0 -33 29.5 -56t71.5 -36.5t83.5 -29.5t71 -46t29.5 -74q0 -67 -49.5 -110.5t-124.5 -48.5q1 -28 12 -44.5t24 -21t24 -19t11 -40.5q0 -32 -24.5 -52t-62.5 -20q-51 0 -89 43z" />
    <glyph glyph-name="Scircumflex.small" horiz-adv-x="511" 
d="M440 154q0 -71 -56.5 -115.5t-138.5 -44.5q-104 0 -180 79l41 39q51 -56 137 -56q52 0 85 26t33 67q0 30 -29.5 50.5t-71 34.5t-83.5 30t-71.5 48.5t-29.5 80.5q0 67 49.5 108t125.5 41q105 0 178 -78l-39 -40q-54 56 -131 56q-49 0 -76.5 -23t-27.5 -61q0 -33 29.5 -56
t71.5 -36.5t83.5 -29.5t71 -46t29.5 -74zM93 657l161 113l160 -113l-40 -41l-120 86l-121 -86z" />
    <glyph glyph-name="Scommaaccent.small" horiz-adv-x="511" 
d="M440 154q0 -71 -56.5 -115.5t-138.5 -44.5q-104 0 -180 79l41 39q51 -56 137 -56q52 0 85 26t33 67q0 30 -29.5 50.5t-71 34.5t-83.5 30t-71.5 48.5t-29.5 80.5q0 67 49.5 108t125.5 41q105 0 178 -78l-39 -40q-54 56 -131 56q-49 0 -76.5 -23t-27.5 -61q0 -33 29.5 -56
t71.5 -36.5t83.5 -29.5t71 -46t29.5 -74zM191 -287l-27 28q54 54 54 179h60q0 -118 -87 -207z" />
    <glyph glyph-name="Tcommaaccent.small" horiz-adv-x="665" 
d="M76 477v62h511v-62h-216v-477h-79v477h-216zM275 -287l-27 28q54 54 54 179h60q0 -118 -87 -207z" />
    <glyph glyph-name="Ubreve.small" horiz-adv-x="691" 
d="M513 235v303h78v-303q0 -112 -67 -176.5t-180 -64.5t-180.5 64.5t-67.5 176.5v303h79v-303q0 -80 47 -129.5t122 -49.5q76 0 122.5 49.5t46.5 129.5zM171 704l38 40q53 -53 132 -53q81 0 132 53l39 -40q-68 -71 -171 -71q-102 0 -170 71z" />
    <glyph glyph-name="Ucircumflexsmall" horiz-adv-x="691" 
d="M182 657l161 113l160 -113l-40 -41l-120 86l-121 -86zM513 235v303h78v-303q0 -112 -67 -176.5t-180 -64.5t-180.5 64.5t-67.5 176.5v303h79v-303q0 -80 47 -129.5t122 -49.5q76 0 122.5 49.5t46.5 129.5z" />
    <glyph glyph-name="Udieresissmall" horiz-adv-x="691" 
d="M513 235v303h78v-303q0 -112 -67 -176.5t-180 -64.5t-180.5 64.5t-67.5 176.5v303h79v-303q0 -80 47 -129.5t122 -49.5q76 0 122.5 49.5t46.5 129.5zM190 626v94h78v-94h-78zM420 626v94h77v-94h-77z" />
    <glyph glyph-name="Uhungarumlaut.small" horiz-adv-x="691" 
d="M513 235v303h78v-303q0 -112 -67 -176.5t-180 -64.5t-180.5 64.5t-67.5 176.5v303h79v-303q0 -80 47 -129.5t122 -49.5q76 0 122.5 49.5t46.5 129.5zM302 770l48 -49l-162 -130l-32 33zM532 770l47 -49l-161 -130l-32 33z" />
    <glyph glyph-name="Ugravesmall" horiz-adv-x="691" 
d="M513 235v303h78v-303q0 -112 -67 -176.5t-180 -64.5t-180.5 64.5t-67.5 176.5v303h79v-303q0 -80 47 -129.5t122 -49.5q76 0 122.5 49.5t46.5 129.5zM246 721l48 49l146 -146l-32 -33z" />
    <glyph glyph-name="Umacron.small" horiz-adv-x="691" 
d="M513 235v303h78v-303q0 -112 -67 -176.5t-180 -64.5t-180.5 64.5t-67.5 176.5v303h79v-303q0 -80 47 -129.5t122 -49.5q76 0 122.5 49.5t46.5 129.5zM497 668h-308v52h308v-52z" />
    <glyph glyph-name="Uogonek.small" horiz-adv-x="691" 
d="M513 235v303h78v-303q0 -96 -50.5 -158t-138.5 -78q-7 -7 -24.5 -31t-37.5 -63.5t-20 -65.5q0 -43 44 -43q34 0 58 25l31 -33q-39 -41 -91 -41q-39 0 -64 23t-25 59q0 79 70 165q-113 1 -180 65t-67 176v303h79v-303q0 -80 47 -129.5t122 -49.5q76 0 122.5 49.5
t46.5 129.5z" />
    <glyph glyph-name="Uring.small" horiz-adv-x="691" 
d="M265 692q0 36 21.5 58t56.5 22t56.5 -22t21.5 -58q0 -35 -21.5 -57t-56.5 -22t-56.5 22t-21.5 57zM298 692q0 -20 12.5 -32.5t32.5 -12.5t32.5 12.5t12.5 32.5q0 21 -12.5 33.5t-32.5 12.5t-32.5 -12.5t-12.5 -33.5zM513 235v303h78v-303q0 -112 -67 -176.5t-180 -64.5
t-180.5 64.5t-67.5 176.5v303h79v-303q0 -80 47 -129.5t122 -49.5q76 0 122.5 49.5t46.5 129.5z" />
    <glyph glyph-name="Utilde.small" horiz-adv-x="691" 
d="M513 235v303h78v-303q0 -112 -67 -176.5t-180 -64.5t-180.5 64.5t-67.5 176.5v303h79v-303q0 -80 47 -129.5t122 -49.5q76 0 122.5 49.5t46.5 129.5zM195 645l-34 34q55 56 112 56q28 0 77 -18.5t72 -18.5q35 0 69 31l34 -34q-55 -56 -110 -56q-28 0 -76.5 18.5
t-72.5 18.5q-37 0 -71 -31z" />
    <glyph glyph-name="Wcircumflex.small" horiz-adv-x="986" 
d="M337 0h-84l-195 539h75l160 -440l159 440h85l158 -440l161 440h76l-196 -539h-85l-157 440zM333 657l161 113l160 -113l-40 -41l-120 86l-121 -86z" />
    <glyph glyph-name="Wdieresis.small" horiz-adv-x="986" 
d="M337 0h-84l-195 539h75l160 -440l159 440h85l158 -440l161 440h76l-196 -539h-85l-157 440zM341 626v94h78v-94h-78zM571 626v94h77v-94h-77z" />
    <glyph glyph-name="Wgrave.small" horiz-adv-x="986" 
d="M337 0h-84l-195 539h75l160 -440l159 440h85l158 -440l161 440h76l-196 -539h-85l-157 440zM397 721l48 49l146 -146l-32 -33z" />
    <glyph glyph-name="Ycircumflex.small" horiz-adv-x="630" 
d="M275 0v199l-220 340h82l178 -271l179 271h81l-220 -340v-199h-80zM154 657l161 113l160 -113l-40 -41l-120 86l-121 -86z" />
    <glyph glyph-name="Ydieresissmall" horiz-adv-x="630" 
d="M275 0v199l-220 340h82l178 -271l179 271h81l-220 -340v-199h-80zM161 626v94h78v-94h-78zM391 626v94h77v-94h-77z" />
    <glyph glyph-name="Ygrave.small" horiz-adv-x="630" 
d="M275 0v199l-220 340h82l178 -271l179 271h81l-220 -340v-199h-80zM217 721l48 49l146 -146l-32 -33z" />
    <glyph glyph-name="Zcaronsmall" horiz-adv-x="620" 
d="M473 730l-159 -115l-161 115l40 40l121 -86l120 86zM76 477v62h481v-39l-377 -438h382v-62h-493v39l377 438h-370z" />
    <glyph glyph-name="Zdotaccent.small" horiz-adv-x="620" 
d="M76 477v62h481v-39l-377 -438h382v-62h-493v39l377 438h-370zM273 626v94h78v-94h-78z" />
    <glyph glyph-name="OEsmall" horiz-adv-x="1031" 
d="M561 0v87q-71 -92 -209 -92q-126 0 -205 76t-79 198t79 198t205 76q138 0 209 -94v90h384v-63h-308v-171h285v-62h-285v-181h314v-62h-390zM147 269q0 -93 58 -152.5t147 -59.5q92 0 149 59.5t57 152.5t-57 152.5t-149 59.5q-89 0 -147 -59.5t-58 -152.5z" />
    <glyph glyph-name="AEsmall" horiz-adv-x="793" 
d="M354 0v140h-151q-8 -20 -68 -140h-77l258 539h384v-63h-268v-171h245v-62h-245v-181h275v-62h-353zM232 203h122v251z" />
    <glyph glyph-name="AEacute.small" horiz-adv-x="793" 
d="M354 0v140h-151q-8 -20 -68 -140h-77l258 539h384v-63h-268v-171h245v-62h-245v-181h275v-62h-353zM232 203h122v251zM500 770l48 -49l-162 -130l-32 33z" />
    <glyph glyph-name="Oslashsmall" horiz-adv-x="706" 
d="M206 -50h-75l50 83q-112 77 -112 225q0 122 78.5 198t205.5 76q63 0 114 -20l34 54h74l-50 -84q53 -36 83 -94t30 -130q0 -121 -79.5 -197.5t-205.5 -76.5q-63 0 -115 20zM558 258q0 105 -70 161l-216 -358q34 -15 81 -15q91 0 148 59.5t57 152.5zM148 258
q0 -103 70 -161l217 357q-40 16 -82 16q-90 0 -147.5 -59.5t-57.5 -152.5z" />
    <glyph glyph-name="Oslashacute.small" horiz-adv-x="706" 
d="M206 -50h-75l50 83q-112 77 -112 225q0 122 78.5 198t205.5 76q63 0 114 -20l34 54h74l-50 -84q53 -36 83 -94t30 -130q0 -121 -79.5 -197.5t-205.5 -76.5q-63 0 -115 20zM558 258q0 105 -70 161l-216 -358q34 -15 81 -15q91 0 148 59.5t57 152.5zM148 258
q0 -103 70 -161l217 357q-40 16 -82 16q-90 0 -147.5 -59.5t-57.5 -152.5zM399 760l48 -49l-162 -130l-32 33z" />
    <glyph glyph-name="ampersandsmall" horiz-adv-x="622" 
d="M289 541q60 0 98.5 -32.5t38.5 -85.5q0 -30 -11.5 -53.5t-36 -42.5t-43.5 -30t-54 -28q51 -68 143 -141q42 56 42 139h63q0 -106 -54 -179l77 -52l-46 -46q-32 20 -77 53q-67 -50 -170 -50q-80 0 -130 43t-50 112q0 52 28 86t77 60q-36 65 -36 119q0 57 39.5 92.5
t101.5 35.5zM153 148q0 -43 30 -70.5t76 -27.5q67 0 119 33q-96 78 -156 155q-69 -41 -69 -90zM221 413q0 -42 25 -89q27 12 41 20t32 20.5t25.5 26.5t7.5 32q0 27 -17 44.5t-45 17.5q-30 0 -49.5 -20t-19.5 -52z" />
    <glyph glyph-name="w.alt" horiz-adv-x="903" 
d="M746 195v108q0 122 -44 167l44 45q35 -33 56 -89.5t21 -122.5v-108q0 -89 -57 -144.5t-148 -55.5q-109 0 -167 77q-58 -77 -165 -77q-91 0 -148.5 55.5t-57.5 144.5v305h78v-305q0 -61 35.5 -99t92.5 -38q55 0 90 36t37 95v6v103q0 122 -30 166l44 45q28 -33 45.5 -89.5
t17.5 -121.5v-103q0 -61 36 -99t92 -38q57 0 92.5 38t35.5 99z" />
    <glyph glyph-name="wacute.alt" horiz-adv-x="903" 
d="M746 195v108q0 122 -44 167l44 45q35 -33 56 -89.5t21 -122.5v-108q0 -89 -57 -144.5t-148 -55.5q-109 0 -167 77q-58 -77 -165 -77q-91 0 -148.5 55.5t-57.5 144.5v305h78v-305q0 -61 35.5 -99t92.5 -38q56 0 91.5 38t35.5 99v103q0 122 -30 166l44 45
q28 -33 45.5 -89.5t17.5 -121.5v-103v-6q1 -58 37 -94.5t91 -36.5q57 0 92.5 38t35.5 99zM500 750l48 -49l-162 -130l-32 33z" />
    <glyph glyph-name="wcircumflex.alt" horiz-adv-x="903" 
d="M746 195v108q0 122 -44 167l44 45q35 -33 56 -89.5t21 -122.5v-108q0 -89 -57 -144.5t-148 -55.5q-109 0 -167 77q-58 -77 -165 -77q-91 0 -148.5 55.5t-57.5 144.5v305h78v-305q0 -61 35.5 -99t92.5 -38q56 0 91.5 38t35.5 99v103q0 122 -30 166l44 45
q28 -33 45.5 -89.5t17.5 -121.5v-103v-6q1 -58 37 -94.5t91 -36.5q57 0 92.5 38t35.5 99zM290 637l161 113l160 -113l-40 -41l-120 86l-121 -86z" />
    <glyph glyph-name="wdieresis.alt" horiz-adv-x="903" 
d="M746 195v108q0 122 -44 167l44 45q35 -33 56 -89.5t21 -122.5v-108q0 -89 -57 -144.5t-148 -55.5q-109 0 -167 77q-58 -77 -165 -77q-91 0 -148.5 55.5t-57.5 144.5v305h78v-305q0 -61 35.5 -99t92.5 -38q55 0 90 36t37 95v6v103q0 122 -30 166l44 45q28 -33 45.5 -89.5
t17.5 -121.5v-103q0 -61 36 -99t92 -38q57 0 92.5 38t35.5 99zM297 606v94h78v-94h-78zM527 606v94h77v-94h-77z" />
    <glyph glyph-name="wgrave.alt" horiz-adv-x="903" 
d="M746 195v108q0 122 -44 167l44 45q35 -33 56 -89.5t21 -122.5v-108q0 -89 -57 -144.5t-148 -55.5q-109 0 -167 77q-58 -77 -165 -77q-91 0 -148.5 55.5t-57.5 144.5v305h78v-305q0 -61 35.5 -99t92.5 -38q56 0 91.5 38t35.5 99v103q0 122 -30 166l44 45
q28 -33 45.5 -89.5t17.5 -121.5v-103v-6q1 -58 37 -94.5t91 -36.5q57 0 92.5 38t35.5 99zM354 701l48 49l146 -146l-32 -33z" />
    <glyph glyph-name="Dcroat.small" horiz-adv-x="748" 
d="M176 0v243h-80v62h80v234h217q124 0 201.5 -75t77.5 -195q0 -119 -77.5 -194t-201.5 -75h-217zM436 243h-181v-181h138q88 0 144.5 58t56.5 149t-56.5 149.5t-144.5 58.5h-138v-172h181v-62z" />
    <glyph glyph-name="Ethsmall" horiz-adv-x="748" 
d="M176 0v243h-80v62h80v234h217q124 0 201.5 -75t77.5 -195q0 -119 -77.5 -194t-201.5 -75h-217zM436 243h-181v-181h138q88 0 144.5 58t56.5 149t-56.5 149.5t-144.5 58.5h-138v-172h181v-62z" />
    <glyph glyph-name="Eng.small" horiz-adv-x="684" 
d="M477 -242l-34 35q63 63 63 207l-331 421v-421h-79v539h79l331 -421v421h79v-539q0 -132 -108 -242z" />
    <glyph glyph-name="Thornsmall" horiz-adv-x="558" 
d="M96 0v539h79v-88h128q78 0 127.5 -47.5t49.5 -123.5t-49.5 -123.5t-127.5 -47.5h-128v-109h-79zM294 388h-119v-217h119q47 0 77 30.5t30 78.5q0 47 -30 77.5t-77 30.5z" />
    <glyph glyph-name="W.alt" horiz-adv-x="1190" 
d="M375 0l-325 700h87l281 -613l135 291l-149 322h84l105 -227l105 227h85l-149 -322l135 -291l281 613h88l-327 -700h-81l-137 287l-136 -287h-82z" />
    <glyph glyph-name="Wacute.alt" horiz-adv-x="1190" 
d="M381 0l-326 700h87l281 -613l135 291l-148 322h83l105 -227l106 227h85l-150 -322l135 -291l281 613h88l-327 -700h-81l-137 287l-136 -287h-81zM643 950l48 -49l-162 -130l-32 32z" />
    <glyph glyph-name="Wcircumflex.alt" horiz-adv-x="1190" 
d="M381 0l-326 700h87l281 -613l135 291l-148 322h83l105 -227l106 227h85l-150 -322l135 -291l281 613h88l-327 -700h-81l-137 287l-136 -287h-81zM434 836l160 114l160 -114l-39 -40l-121 86l-121 -86z" />
    <glyph glyph-name="Wdieresis.alt" horiz-adv-x="1190" 
d="M381 0l-326 700h87l281 -613l135 291l-148 322h83l105 -227l106 227h85l-150 -322l135 -291l281 613h88l-327 -700h-81l-137 287l-136 -287h-81zM441 806v94h77v-94h-77zM670 806v94h78v-94h-78z" />
    <glyph glyph-name="Wgrave.alt" horiz-adv-x="1190" 
d="M381 0l-326 700h87l281 -613l135 291l-148 322h83l105 -227l106 227h85l-150 -322l135 -291l281 613h88l-327 -700h-81l-137 287l-136 -287h-81zM497 901l48 49l146 -147q-5 -6 -15.5 -16t-15.5 -16z" />
    <glyph glyph-name="Wsmall.alt" horiz-adv-x="986" 
d="M393 0h-77l-258 539h82l216 -460l100 209l-119 251h79l78 -164l78 164h81l-120 -251l100 -209l216 460h83l-259 -539h-78l-101 205z" />
    <glyph glyph-name="Wacute.smallalt" horiz-adv-x="986" 
d="M393 0h-77l-258 539h82l216 -460l100 209l-119 251h79l78 -164l78 164h81l-120 -251l100 -209l216 460h83l-259 -539h-78l-101 205zM544 770l48 -49l-162 -130l-32 33z" />
    <glyph glyph-name="Wcircumflex.smallalt" horiz-adv-x="986" 
d="M393 0h-77l-258 539h82l216 -460l100 209l-119 251h79l78 -164l78 164h81l-120 -251l100 -209l216 460h83l-259 -539h-78l-101 205zM333 657l161 113l160 -113l-40 -41l-120 86l-121 -86z" />
    <glyph glyph-name="Wdieresis.smallalt" horiz-adv-x="986" 
d="M393 0h-77l-258 539h82l216 -460l100 209l-119 251h79l78 -164l78 164h81l-120 -251l100 -209l216 460h83l-259 -539h-78l-101 205zM341 626v94h78v-94h-78zM571 626v94h77v-94h-77z" />
    <glyph glyph-name="Wgrave.smallalt" horiz-adv-x="986" 
d="M393 0h-77l-258 539h82l216 -460l100 209l-119 251h79l78 -164l78 164h81l-120 -251l100 -209l216 460h83l-259 -539h-78l-101 205zM397 721l48 49l146 -146l-32 -33z" />
    <glyph glyph-name="a.alt" horiz-adv-x="597" 
d="M442 0v112q-25 -54 -74.5 -85t-113.5 -31q-89 0 -145 67.5t-56 176.5q0 118 78 191.5t202 73.5q109 0 186 -35v-470h-77zM442 207v216q-55 19 -124 19q-83 0 -135.5 -56.5t-52.5 -145.5q0 -81 43.5 -130.5t113.5 -49.5q67 0 110 42.5t45 104.5z" />
    <glyph glyph-name="aacute.alt" horiz-adv-x="597" 
d="M442 0v112q-25 -54 -74.5 -85t-113.5 -31q-89 0 -145 67.5t-56 176.5q0 118 78 191.5t202 73.5q109 0 186 -35v-470h-77zM442 207v216q-55 19 -124 19q-83 0 -135.5 -56.5t-52.5 -145.5q0 -81 43.5 -130.5t113.5 -49.5q67 0 110 42.5t45 104.5zM355 750l48 -49l-162 -130
l-32 33z" />
    <glyph glyph-name="abreve.alt" horiz-adv-x="597" 
d="M442 0v112q-25 -54 -74.5 -85t-113.5 -31q-89 0 -145 67.5t-56 176.5q0 118 78 191.5t202 73.5q109 0 186 -35v-470h-77zM442 207v216q-55 19 -124 19q-83 0 -135.5 -56.5t-52.5 -145.5q0 -81 43.5 -130.5t113.5 -49.5q67 0 110 42.5t45 104.5zM137 684l38 40
q53 -53 132 -53q81 0 132 53l39 -40q-68 -71 -171 -71q-102 0 -170 71z" />
    <glyph glyph-name="acircumflex.alt" horiz-adv-x="597" 
d="M442 0v112q-25 -54 -74.5 -85t-113.5 -31q-89 0 -145 67.5t-56 176.5q0 118 78 191.5t202 73.5q109 0 186 -35v-470h-77zM442 207v216q-55 19 -124 19q-83 0 -135.5 -56.5t-52.5 -145.5q0 -81 43.5 -130.5t113.5 -49.5q67 0 110 42.5t45 104.5zM144 637l161 113l160 -113
l-40 -41l-120 86l-121 -86z" />
    <glyph glyph-name="adieresis.alt" horiz-adv-x="597" 
d="M442 0v112q-25 -54 -74.5 -85t-113.5 -31q-89 0 -145 67.5t-56 176.5q0 118 78 191.5t202 73.5q109 0 186 -35v-470h-77zM442 207v216q-55 19 -124 19q-83 0 -135.5 -56.5t-52.5 -145.5q0 -81 43.5 -130.5t113.5 -49.5q67 0 110 42.5t45 104.5zM149 606v94h78v-94h-78z
M379 606v94h77v-94h-77z" />
    <glyph glyph-name="agrave.alt" horiz-adv-x="597" 
d="M442 0v112q-25 -54 -74.5 -85t-113.5 -31q-89 0 -145 67.5t-56 176.5q0 118 78 191.5t202 73.5q109 0 186 -35v-470h-77zM442 207v216q-55 19 -124 19q-83 0 -135.5 -56.5t-52.5 -145.5q0 -81 43.5 -130.5t113.5 -49.5q67 0 110 42.5t45 104.5zM208 701l48 49l146 -146
l-32 -33z" />
    <glyph glyph-name="amacron.alt" horiz-adv-x="597" 
d="M442 0v112q-25 -54 -74.5 -85t-113.5 -31q-89 0 -145 67.5t-56 176.5q0 118 78 191.5t202 73.5q109 0 186 -35v-470h-77zM442 207v216q-55 19 -124 19q-83 0 -135.5 -56.5t-52.5 -145.5q0 -81 43.5 -130.5t113.5 -49.5q67 0 110 42.5t45 104.5zM461 648h-308v52h308v-52z
" />
    <glyph glyph-name="aogonek.alt" horiz-adv-x="597" 
d="M442 0v112q-25 -54 -74.5 -85t-113.5 -31q-89 0 -145 67.5t-56 176.5q0 118 78 191.5t202 73.5q109 0 186 -35v-470h-1q-9 -11 -23 -29.5t-37 -61.5t-23 -70q0 -43 44 -43q34 0 58 25l31 -33q-39 -41 -91 -41q-39 0 -64 23t-25 59q0 38 19 80.5t37 66.5l19 24h-21z
M442 207v216q-55 19 -124 19q-83 0 -135.5 -56.5t-52.5 -145.5q0 -81 43.5 -130.5t113.5 -49.5q67 0 110 42.5t45 104.5z" />
    <glyph glyph-name="aring.alt" horiz-adv-x="597" 
d="M442 0v112q-25 -54 -74.5 -85t-113.5 -31q-89 0 -145 67.5t-56 176.5q0 118 78 191.5t202 73.5q109 0 186 -35v-470h-77zM442 207v216q-55 19 -124 19q-83 0 -135.5 -56.5t-52.5 -145.5q0 -81 43.5 -130.5t113.5 -49.5q67 0 110 42.5t45 104.5zM227 672q0 36 21.5 58
t56.5 22t56.5 -22t21.5 -58q0 -35 -21.5 -57t-56.5 -22t-56.5 22t-21.5 57zM260 672q0 -20 12.5 -32.5t32.5 -12.5t32.5 12.5t12.5 32.5q0 21 -12.5 33.5t-32.5 12.5t-32.5 -12.5t-12.5 -33.5z" />
    <glyph glyph-name="atilde.alt" horiz-adv-x="597" 
d="M442 0v112q-25 -54 -74.5 -85t-113.5 -31q-89 0 -145 67.5t-56 176.5q0 118 78 191.5t202 73.5q109 0 186 -35v-470h-77zM442 207v216q-55 19 -124 19q-83 0 -135.5 -56.5t-52.5 -145.5q0 -81 43.5 -130.5t113.5 -49.5q67 0 110 42.5t45 104.5zM156 625l-10.5 10.5
l-12.5 12.5l-11 11q55 56 112 56q28 0 77 -18.5t72 -18.5q35 0 69 31l34 -34q-55 -56 -110 -56q-28 0 -76.5 18.5t-72.5 18.5q-37 0 -71 -31z" />
    <glyph glyph-name="K.alt" horiz-adv-x="676" 
d="M163 0h-83v700h83v-308h113l250 308h94l-272 -341l285 -359h-94l-263 323h-113v-323z" />
    <glyph glyph-name="Kcommaaccent.alt" horiz-adv-x="676" 
d="M163 0h-83v700h83v-308h113l250 308h94l-272 -341l285 -359h-94l-263 323h-113v-323zM307 -287l-27 28q54 54 54 179h60q0 -118 -87 -207z" />
    <glyph glyph-name="k.alt" horiz-adv-x="556" 
d="M80 0v725h78v-436h90l165 211h84l-188 -240l211 -260h-89l-186 226h-87v-226h-78z" />
    <glyph glyph-name="kcommaaccent.alt" horiz-adv-x="556" 
d="M80 0v725h78v-436h90l165 211h84l-188 -240l211 -260h-89l-186 226h-87v-226h-78zM247 -287l-27 28q54 54 54 179h60q0 -118 -87 -207z" />
    <glyph glyph-name="IJ.small" horiz-adv-x="720" 
d="M544 191v347h79v-347q0 -88 -58 -142.5t-150 -54.5t-153 56l46 46q37 -40 102 -40q59 0 96.5 38t37.5 97zM175 0h-79v539h79v-539z" />
    <glyph glyph-name="Hbar.small" horiz-adv-x="771" 
d="M705 392h-80v-392h-79v243h-322v-243h-78v392h-80v58h80v89h78v-89h322v89h79v-89h80v-58zM224 305h322v87h-322v-87z" />
    <glyph glyph-name="Ksmall.alt" horiz-adv-x="617" 
d="M175 0h-79v539h79v-232h84l193 232h89l-217 -260l228 -279h-89l-205 245h-83v-245z" />
    <glyph glyph-name="Kcommaaccent.smallalt" horiz-adv-x="617" 
d="M175 0h-79v539h79v-232h84l193 232h89l-217 -260l228 -279h-89l-205 245h-83v-245zM261 -287l-27 28q54 54 54 179h60q0 -118 -87 -207z" />
    <glyph glyph-name="Lslashsmall" horiz-adv-x="664" 
d="M388 345l-122 -67v-216h323v-62h-403v233l-92 -50l-29 49l121 66v241h80v-195l93 51z" />
    <glyph glyph-name="Tbar.small" horiz-adv-x="654" 
d="M521 289h-155v-289h-79v289h-154v57h154v131h-215v62h510v-62h-216v-131h155v-57z" />
    <glyph glyph-name="v.alt" horiz-adv-x="618" 
d="M468 225v78q0 121 -43 167l44 45q34 -33 55 -89.5t21 -122.5v-78q0 -102 -64.5 -166t-167.5 -64t-168 64t-65 166v275h78v-275q0 -74 43 -120.5t112 -46.5t112 46.5t43 120.5z" />
    <glyph glyph-name="i.alt" horiz-adv-x="326" 
d="M248 73l41 -42q-33 -36 -88 -36q-53 0 -87 34.5t-34 89.5v381h78v-386q0 -25 14 -40.5t36 -15.5q26 0 40 15zM80 606v94h78v-94h-78z" />
    <glyph glyph-name="iacute.alt" horiz-adv-x="326" 
d="M248 73l41 -42q-33 -36 -88 -36q-53 0 -87 34.5t-34 89.5v381h78v-386q0 -25 14 -40.5t36 -15.5q26 0 40 15zM169 750l48 -49l-162 -130l-32 33z" />
    <glyph glyph-name="ibreve.alt" horiz-adv-x="326" 
d="M248 73l41 -42q-33 -36 -88 -36q-53 0 -87 34.5t-34 89.5v381h78v-386q0 -25 14 -40.5t36 -15.5q26 0 40 15zM-51 684l38 40q53 -53 132 -53q81 0 132 53l39 -40q-68 -71 -171 -71q-102 0 -170 71z" />
    <glyph glyph-name="icircumflex.alt" horiz-adv-x="326" 
d="M-41 637l161 113l160 -113l-40 -41l-120 86l-121 -86zM248 73l41 -42q-33 -36 -88 -36q-53 0 -87 34.5t-34 89.5v381h78v-386q0 -25 14 -40.5t36 -15.5q26 0 40 15z" />
    <glyph glyph-name="idieresis.alt" horiz-adv-x="326" 
d="M248 73l41 -42q-33 -36 -88 -36q-53 0 -87 34.5t-34 89.5v381h78v-386q0 -25 14 -40.5t36 -15.5q26 0 40 15zM-34 606v94h78v-94h-78zM196 606v94h77v-94h-77z" />
    <glyph glyph-name="igrave.alt" horiz-adv-x="326" 
d="M248 73l41 -42q-33 -36 -88 -36q-53 0 -87 34.5t-34 89.5v381h78v-386q0 -25 14 -40.5t36 -15.5q26 0 40 15zM23 701l48 49l146 -146l-32 -33z" />
    <glyph glyph-name="imacron.alt" horiz-adv-x="326" 
d="M248 73l41 -42q-33 -36 -88 -36q-53 0 -87 34.5t-34 89.5v381h78v-386q0 -25 14 -40.5t36 -15.5q26 0 40 15zM273 648h-308v52h308v-52z" />
    <glyph glyph-name="iogonek.alt" horiz-adv-x="326" 
d="M248 73l41 -42l-1 -1h1q-9 -11 -23 -29.5t-37 -61.5t-23 -70q0 -43 44 -43q34 0 58 25l31 -33q-39 -41 -91 -41q-39 0 -64 23t-25 59q0 62 49 136h-7q-53 0 -87 34.5t-34 89.5v381h78v-386q0 -25 14 -40.5t36 -15.5q26 0 40 15zM80 606v94h78v-94h-78z" />
    <glyph glyph-name="itilde.alt" horiz-adv-x="326" 
d="M-29 625l-10.5 10.5l-12.5 12.5l-11 11q55 56 112 56q28 0 77 -18.5t72 -18.5q35 0 69 31l34 -34q-55 -56 -110 -56q-28 0 -76.5 18.5t-72.5 18.5q-37 0 -71 -31zM248 73l41 -42q-33 -36 -88 -36q-53 0 -87 34.5t-34 89.5v381h78v-386q0 -25 14 -40.5t36 -15.5
q26 0 40 15z" />
    <glyph glyph-name="ij.alt" horiz-adv-x="560" 
d="M80 606v94h78v-94h-78zM248 73l41 -42q-33 -36 -88 -36q-53 0 -87 34.5t-34 89.5v381h78v-386q0 -25 14 -40.5t36 -15.5q26 0 40 15zM191 -181l41 42q26 -28 76 -28q41 0 67.5 29.5t26.5 75.5v562h78v-559q0 -76 -46.5 -123.5t-120.5 -47.5q-75 0 -122 49zM402 606v94h78
v-94h-78z" />
    <glyph glyph-name="dotlessi.alt" horiz-adv-x="326" 
d="M248 73l41 -42q-33 -36 -88 -36q-53 0 -87 34.5t-34 89.5v381h78v-386q0 -25 14 -40.5t36 -15.5q26 0 40 15z" />
    <glyph glyph-name="zero.fitted" horiz-adv-x="621" 
d="M53 350q0 159 70 257t187 98q116 0 186.5 -98.5t70.5 -256.5t-70.5 -256.5t-186.5 -98.5q-117 0 -187 98t-70 257zM133 349q0 -127 49 -207.5t128 -80.5q80 0 128.5 80t48.5 208q0 129 -48.5 209.5t-128.5 80.5q-79 0 -128 -80.5t-49 -209.5z" />
    <glyph glyph-name="one.fitted" horiz-adv-x="621" 
d="M102 0v66h195v547l-191 -106l-34 61l225 132h80v-634h164v-66h-439z" />
    <glyph glyph-name="two.fitted" horiz-adv-x="621" 
d="M79 0v66q15 10 40 27.5t88.5 70t112 102t88.5 114t40 115.5q0 64 -40 104t-109 40q-109 0 -181 -77l-43 44q94 99 230 99q97 0 160 -56t63 -146q0 -59 -36 -126t-87 -120t-102.5 -97.5t-87.5 -69.5l-36 -24h366v-66h-466z" />
    <glyph glyph-name="three.fitted" horiz-adv-x="621" 
d="M308 -5q-146 0 -241 98l46 46q66 -78 190 -78q73 0 119.5 38.5t46.5 100.5t-46.5 101.5t-120.5 39.5h-50v63h51q64 0 104 32.5t40 84.5t-39.5 85t-101.5 33q-120 0 -184 -79l-45 46q91 99 233 99q97 0 157 -48.5t60 -125.5q0 -56 -34.5 -97.5t-94.5 -60.5
q70 -20 110 -68.5t40 -113.5q0 -87 -66.5 -141.5t-173.5 -54.5z" />
    <glyph glyph-name="four.fitted" horiz-adv-x="621" 
d="M427 0v128h-376v44l365 528h91v-509h63v-63h-63v-128h-80zM145 191h282v400z" />
    <glyph glyph-name="five.fitted" horiz-adv-x="621" 
d="M110 355v345h380v-66h-301v-213h116q101 0 164.5 -61.5t63.5 -159.5q0 -92 -64.5 -148.5t-164.5 -56.5q-142 0 -239 99l43 43q74 -76 188 -76q73 0 115.5 39.5t42.5 102.5q0 69 -43 110.5t-112 41.5h-189z" />
    <glyph glyph-name="six.fitted" horiz-adv-x="616" 
d="M319 639q-75 0 -124 -71.5t-55 -188.5q63 57 159 57q113 0 184.5 -61.5t71.5 -156.5q0 -99 -65.5 -161t-169.5 -62q-118 0 -189 98t-71 257t70.5 257t188.5 98q115 0 190 -73l-43 -44q-54 51 -147 51zM318 61q70 0 113.5 43.5t43.5 113.5q0 66 -49.5 109t-128.5 43
q-50 0 -91.5 -19.5t-65.5 -54.5q7 -106 56 -170.5t122 -64.5z" />
    <glyph glyph-name="seven.fitted" horiz-adv-x="621" 
d="M68 634v66h484v-44l-312 -656h-81l302 634h-393z" />
    <glyph glyph-name="eight.fitted" horiz-adv-x="621" 
d="M88 531q0 77 62 125.5t162 48.5t161.5 -48.5t61.5 -125.5q0 -56 -34 -97.5t-94 -60.5q70 -20 110 -68.5t40 -113.5q0 -87 -68 -141.5t-177 -54.5q-110 0 -178.5 54.5t-68.5 141.5q0 65 40.5 113.5t110.5 68.5q-60 19 -94 61t-34 97zM145 201q0 -61 46.5 -100.5
t119.5 -39.5t120 39t47 101q0 63 -46.5 102.5t-120.5 39.5q-73 0 -119.5 -39.5t-46.5 -102.5zM168 519q0 -52 40 -85t104 -33t104 33t40 85q0 54 -40 87t-104 33t-104 -33t-40 -87z" />
    <glyph glyph-name="nine.fitted" horiz-adv-x="616" 
d="M282 60q80 0 132.5 70t58.5 186q-61 -64 -161 -64q-112 0 -181.5 62.5t-69.5 163.5q0 100 65 163.5t169 63.5q117 0 187.5 -98.5t70.5 -257.5t-74 -257t-198 -98t-200 73l43 44q56 -51 158 -51zM297 639q-70 0 -113 -45t-43 -116t48 -116t126 -45q52 0 94 22.5t64 62.5
q-9 110 -56.5 173.5t-119.5 63.5z" />
    <glyph glyph-name="oneoldstyle" horiz-adv-x="440" 
d="M48 418l207 122h79v-540h-79v453l-172 -97z" />
    <glyph glyph-name="twooldstyle" horiz-adv-x="552" 
d="M64 0v66q14 7 37 20t81.5 50.5t103.5 73t81.5 82t36.5 83.5q0 46 -36.5 75t-99.5 29q-99 0 -165 -77l-43 44q88 99 215 99q91 0 150 -42t59 -110q0 -44 -30.5 -94t-73.5 -90t-86.5 -73t-73.5 -52l-31 -18h307v-66h-432z" />
    <glyph glyph-name="threeoldstyle" horiz-adv-x="575" 
d="M287 -155q-144 0 -236 98l45 46q64 -78 186 -78q70 0 115 39t45 101q0 63 -46.5 102.5t-120.5 39.5h-40v64h42q64 0 103.5 31t39.5 80q0 50 -37.5 80.5t-98.5 30.5q-117 0 -179 -79l-44 46q88 99 227 99q94 0 153 -47.5t59 -124.5q0 -55 -34 -96t-94 -59
q70 -20 110 -67.5t40 -112.5q0 -86 -65.5 -139.5t-169.5 -53.5z" />
    <glyph glyph-name="fouroldstyle" horiz-adv-x="686" 
d="M451 -150v150h-390v44l378 496h91v-477h87v-63h-87v-150h-79zM161 63h290v369z" />
    <glyph glyph-name="fiveoldstyle" horiz-adv-x="570" 
d="M86 200v340h380v-66h-300v-208h115q102 0 165.5 -61t63.5 -158q0 -91 -65 -146.5t-165 -55.5q-142 0 -238 99l42 43q74 -76 188 -76q73 0 115.5 38t42.5 100q0 69 -43 110t-112 41h-189z" />
    <glyph glyph-name="sevenoldstyle" horiz-adv-x="641" 
d="M68 474v66h503v-44l-331 -646h-82l319 624h-409z" />
    <glyph glyph-name="eightoldstyle" horiz-adv-x="598" 
d="M76 531q0 77 61.5 125.5t161.5 48.5t162 -48.5t62 -125.5q0 -56 -34 -97.5t-94 -60.5q70 -20 110 -68.5t40 -113.5q0 -87 -68.5 -141.5t-177.5 -54.5t-177.5 54.5t-68.5 141.5q0 65 40 113.5t110 68.5q-59 19 -93 61t-34 97zM133 201q0 -62 46 -101t119 -39t120 39
t47 101q0 63 -46.5 102.5t-120.5 39.5q-73 0 -119 -39.5t-46 -102.5zM156 519q0 -52 40 -85t104 -33t103.5 33t39.5 85q0 54 -39.5 87t-103.5 33t-104 -33t-40 -87z" />
    <glyph glyph-name="zerooldstyle" horiz-adv-x="616" 
d="M53 270q0 122 71 198.5t184 76.5t184.5 -76.5t71.5 -198.5t-71.5 -198.5t-184.5 -76.5t-184 76.5t-71 198.5zM130 270q0 -93 49.5 -151t128.5 -58t128.5 58t49.5 151t-49.5 151t-128.5 58t-128.5 -58t-49.5 -151z" />
    <glyph glyph-name="zero.taboldstyle" horiz-adv-x="605" 
d="M52 270q0 122 70 198.5t180 76.5q111 0 181 -76.5t70 -198.5t-70 -198.5t-181 -76.5q-110 0 -180 76.5t-70 198.5zM129 270q0 -93 48.5 -151t124.5 -58q77 0 125.5 58t48.5 151t-48.5 151t-125.5 58q-76 0 -124.5 -58t-48.5 -151z" />
    <glyph glyph-name="one.taboldstyle" horiz-adv-x="605" 
d="M97 0v66h180v387l-163 -90l-35 61l198 116h80v-474h169v-66h-429z" />
    <glyph glyph-name="two.taboldstyle" horiz-adv-x="605" 
d="M83 0v66q14 7 37.5 20t83.5 50.5t105.5 73t83 82t37.5 83.5q0 47 -37 75.5t-101 28.5q-99 0 -167 -77l-43 44q88 99 217 99q92 0 151.5 -42t59.5 -110q0 -44 -31 -94t-75.5 -90t-89 -73t-75.5 -52l-31 -18h315v-66h-440z" />
    <glyph glyph-name="three.taboldstyle" horiz-adv-x="605" 
d="M305 -155q-145 0 -237 98l46 46q64 -78 185 -78q71 0 116 39t45 101q0 63 -46.5 102.5t-120.5 39.5h-40v64h42q64 0 103.5 31t39.5 80q0 50 -38 80.5t-99 30.5q-116 0 -178 -79l-45 46q88 99 228 99q94 0 153 -47.5t59 -124.5q0 -55 -34.5 -96t-94.5 -59
q70 -20 110.5 -67.5t40.5 -112.5q0 -86 -65.5 -139.5t-169.5 -53.5z" />
    <glyph glyph-name="four.taboldstyle" horiz-adv-x="605" 
d="M402 -150v150h-347v46l336 494h91v-474h63v-66h-63v-150h-80zM149 66h253v368z" />
    <glyph glyph-name="five.taboldstyle" horiz-adv-x="605" 
d="M103 200v340h381v-66h-301v-208h116q101 0 164.5 -61t63.5 -158q0 -91 -64.5 -146.5t-164.5 -55.5q-142 0 -239 99l43 43q73 -76 187 -76q73 0 115.5 38t42.5 100q0 69 -43 110t-112 41h-189z" />
    <glyph glyph-name="six.taboldstyle" horiz-adv-x="605" 
d="M317 639q-79 0 -130.5 -72.5t-57.5 -190.5q67 57 164 57q115 0 188 -61t73 -156q0 -98 -66.5 -159.5t-173.5 -61.5q-121 0 -192.5 95.5t-71.5 259.5q0 159 72.5 257t193.5 98t197 -73l-43 -44q-56 51 -153 51zM313 61q72 0 116.5 43t44.5 112q0 66 -51 108.5t-132 42.5
q-51 0 -94 -19.5t-68 -53.5q8 -110 58 -171.5t126 -61.5z" />
    <glyph glyph-name="seven.taboldstyle" horiz-adv-x="605" 
d="M65 474v66h478v-44l-311 -646h-82l300 624h-385z" />
    <glyph glyph-name="eight.taboldstyle" horiz-adv-x="605" 
d="M81 531q0 77 61.5 125.5t161.5 48.5t162 -48.5t62 -125.5q0 -56 -34.5 -97.5t-94.5 -60.5q70 -20 110.5 -68.5t40.5 -113.5q0 -87 -68.5 -141.5t-177.5 -54.5t-177.5 54.5t-68.5 141.5q0 65 40 113.5t110 68.5q-59 19 -93 61t-34 97zM137 201q0 -61 46.5 -100.5
t119.5 -39.5t120 39t47 101q0 63 -46.5 102.5t-120.5 39.5q-73 0 -119.5 -39.5t-46.5 -102.5zM160 519q0 -52 40.5 -85t103.5 -33q64 0 104 33t40 85q0 54 -39.5 87t-104.5 33q-63 0 -103.5 -33t-40.5 -87z" />
    <glyph glyph-name="nine.taboldstyle" horiz-adv-x="605" 
d="M273 -89q85 0 140 73.5t61 193.5q-64 -64 -166 -64q-114 0 -185.5 60t-71.5 156q0 95 66.5 155t172.5 60q120 0 192 -97t72 -253t-77 -253t-205 -97t-207 73l43 44q59 -51 165 -51zM293 479q-73 0 -117.5 -41.5t-44.5 -107.5q0 -67 50 -108.5t130 -41.5q54 0 97.5 21
t65.5 58q-9 103 -58 161.5t-123 58.5z" />
    <glyph glyph-name="afii10024.alt" horiz-adv-x="1019" 
d="M551 0h-83v323h-88l-243 -323h-94l268 359l-255 341h94l230 -308h88v308h83v-308h89l229 308h94l-255 -341l268 -359h-94l-243 323h-88v-323z" />
    <glyph glyph-name="afii10028.alt" horiz-adv-x="676" 
d="M163 0h-83v700h83v-308h113l250 308h94l-272 -341l285 -359h-94l-263 323h-113v-323z" />
    <glyph glyph-name="afii10065.alt" horiz-adv-x="597" 
d="M442 0v112q-25 -54 -74.5 -85t-113.5 -31q-89 0 -145 67.5t-56 176.5q0 118 78 191.5t202 73.5q109 0 186 -35v-470h-77zM442 207v216q-55 19 -124 19q-83 0 -135.5 -56.5t-52.5 -145.5q0 -81 43.5 -130.5t113.5 -49.5q67 0 110 42.5t45 104.5z" />
    <glyph glyph-name="afii10072.alt" horiz-adv-x="793" 
d="M358 0v226h-63l-168 -226h-89l195 260l-177 240h84l152 -211h66v211h77v-211h66l153 211h83l-177 -240l195 -260h-89l-168 226h-63v-226h-77z" />
    <glyph glyph-name="afii10076.alt" horiz-adv-x="556" 
d="M80 0v500h78v-211h90l165 211h86l-189 -241l210 -259h-89l-186 226h-87v-226h-78z" />
    <glyph glyph-name="afii10017.small" horiz-adv-x="697" 
d="M308 539h81l258 -539h-77l-69 141h-306l-68 -141h-78zM348 459l-125 -256h251z" />
    <glyph glyph-name="afii10018.small" horiz-adv-x="535" 
d="M81 0v539h351v-62h-272v-161h150q73 0 118 -43.5t45 -114.5t-45 -114.5t-118 -43.5h-229zM160 62h142q42 0 68 27t26 69t-26 69t-68 27h-142v-192z" />
    <glyph glyph-name="afii10019.small" horiz-adv-x="537" 
d="M81 0v539h218q64 0 104.5 -37.5t40.5 -96.5q0 -83 -69 -120q45 -12 72.5 -49.5t27.5 -89.5q0 -65 -43 -105.5t-113 -40.5h-238zM160 62h132q46 0 74 26.5t28 67.5t-28 67.5t-74 26.5h-132v-188zM276 477h-116v-165h116q40 0 64.5 23.5t24.5 59.5t-24.5 59t-64.5 23z" />
    <glyph glyph-name="afii10020.small" horiz-adv-x="513" 
d="M81 0v539h371v-62h-292v-477h-79z" />
    <glyph glyph-name="afii10021.small" horiz-adv-x="754" 
d="M76 62h77q32 16 43.5 120t11.5 357h392v-477h81v-197h-78v135h-448v-135h-79v197zM287 476q0 -336 -51 -414h285v414h-234z" />
    <glyph glyph-name="afii10022.small" horiz-adv-x="548" 
d="M81 0v539h386v-62h-307v-172h285v-62h-285v-181h314v-62h-393z" />
    <glyph glyph-name="afii10023.small" horiz-adv-x="549" 
d="M81 0v539h386v-62h-307v-172h285v-62h-285v-181h314v-62h-393zM122 626v94h78v-94h-78zM352 626v94h77v-94h-77z" />
    <glyph glyph-name="afii10024.small" horiz-adv-x="888" 
d="M484 0h-79v184l-66 68l-193 -252h-90l232 304l-217 235h96l238 -255v255h79v-255l238 255h95l-217 -235l232 -304h-89l-194 252l-65 -68v-184z" />
    <glyph glyph-name="afii10025.small" horiz-adv-x="519" 
d="M173 250v62h84q40 0 65 23.5t25 59.5q0 38 -28.5 62t-74.5 24q-84 0 -129 -56l-43 40q70 79 181 79q76 0 124 -38.5t48 -100.5q0 -84 -68 -120q45 -12 72 -49.5t27 -89.5q0 -67 -55 -109t-145 -42q-120 0 -200 78l41 40q53 -55 158 -55q54 0 87.5 27.5t33.5 70.5
q0 41 -28.5 67.5t-73.5 26.5h-101z" />
    <glyph glyph-name="afii10026.small" horiz-adv-x="651" 
d="M491 421l-331 -421h-79v539h79v-421l331 421h79v-539h-79v421z" />
    <glyph glyph-name="afii10027.small" horiz-adv-x="651" 
d="M491 421l-331 -421h-79v539h79v-421l331 421h79v-539h-79v421zM156 704l38 40q53 -53 132 -53q81 0 132 53l39 -40q-68 -71 -171 -71q-102 0 -170 71z" />
    <glyph glyph-name="afii10028.small" horiz-adv-x="592" 
d="M160 0h-79v539h79v-251l259 251h98l-234 -229l253 -310h-89l-215 258l-72 -74v-184z" />
    <glyph glyph-name="afii10029.small" horiz-adv-x="677" 
d="M89 73q20 -16 43 -16q42 0 56.5 101t14.5 381h393v-539h-80v476h-234q0 -281 -29 -381t-117 -100q-51 0 -90 35z" />
    <glyph glyph-name="afii10030.small" horiz-adv-x="795" 
d="M81 0v539h104l212 -434l214 434h103v-539h-78v426l-208 -426h-59l-209 426v-426h-79z" />
    <glyph glyph-name="afii10031.small" horiz-adv-x="641" 
d="M482 0v243h-322v-243h-79v539h79v-234h322v234h78v-539h-78z" />
    <glyph glyph-name="afii10032.small" horiz-adv-x="692" 
d="M62 269q0 122 79 198.5t205 76.5t205 -76.5t79 -198.5t-79 -198t-205 -76t-205 76t-79 198zM140 269q0 -93 58 -152t148 -59q91 0 148.5 59t57.5 152q0 94 -57.5 153t-148.5 59q-90 0 -148 -59.5t-58 -152.5z" />
    <glyph glyph-name="afii10033.small" horiz-adv-x="639" 
d="M479 0v477h-319v-477h-79v539h477v-539h-79z" />
    <glyph glyph-name="afii10034.small" horiz-adv-x="527" 
d="M81 0v539h207q78 0 127.5 -47.5t49.5 -123.5t-49.5 -123.5t-127.5 -47.5h-128v-197h-79zM280 477h-120v-218h120q47 0 76.5 30.5t29.5 78.5t-29.5 78.5t-76.5 30.5z" />
    <glyph glyph-name="afii10035.small" horiz-adv-x="620" 
d="M510 119l47 -45q-82 -79 -210 -79q-127 0 -206 76t-79 198t79.5 198.5t205.5 76.5q127 0 210 -78l-47 -46q-56 61 -158 61q-94 0 -153 -59t-59 -153q0 -93 59 -152t153 -59q103 0 158 61z" />
    <glyph glyph-name="afii10036.small" horiz-adv-x="641" 
d="M65 477v62h511v-62h-216v-477h-79v477h-216z" />
    <glyph glyph-name="afii10037.small" horiz-adv-x="621" 
d="M231 102l40 64l-223 373h82l182 -302l181 302h82l-253 -428q-35 -56 -72.5 -86t-90.5 -30q-71 0 -119 43q3 2 23 22.5t21 21.5q25 -25 69 -25q51 0 78 45z" />
    <glyph glyph-name="afii10038.small" horiz-adv-x="688" 
d="M383 0h-78v51q-108 0 -176 60.5t-68 157.5t68 158t176 61v51h78v-51q108 -1 175.5 -61.5t67.5 -157.5t-67.5 -157.5t-175.5 -60.5v-51zM305 113v312q-73 0 -119 -43.5t-46 -112.5t46 -112.5t119 -43.5zM548 268q0 70 -46 113.5t-119 43.5v-312q73 0 119 43.5t46 111.5z
" />
    <glyph glyph-name="afii10039.small" horiz-adv-x="653" 
d="M144 0h-89l224 275l-213 264h89l171 -211l171 211h89l-214 -264l225 -275h-90l-181 221z" />
    <glyph glyph-name="afii10040.small" horiz-adv-x="705" 
d="M160 539v-477h302v477h79v-477h98v-197h-78v135h-480v539h79z" />
    <glyph glyph-name="afii10041.small" horiz-adv-x="594" 
d="M160 539v-178q0 -51 35 -82t89 -31q65 0 107 41t42 97v153h80v-539h-80v282q-26 -45 -74 -70.5t-110 -25.5q-75 -1 -121.5 43.5t-46.5 115.5v194h79z" />
    <glyph glyph-name="afii10042.small" horiz-adv-x="927" 
d="M503 539v-477h264v477h79v-539h-765v539h79v-477h265v477h78z" />
    <glyph glyph-name="afii10043.small" horiz-adv-x="1010" 
d="M81 0v539h79v-477h264v477h78v-477h265v477h79v-477h99v-197h-79v135h-785z" />
    <glyph glyph-name="afii10044.small" horiz-adv-x="684" 
d="M81 477v62h225v-203h142q77 0 125.5 -46.5t48.5 -121.5q0 -74 -48.5 -121t-125.5 -47h-220v477h-147zM306 62h133q46 0 75 29.5t29 76.5t-29 76.5t-75 29.5h-133v-212z" />
    <glyph glyph-name="afii10045.small" horiz-adv-x="732" 
d="M81 0v539h79v-203h142q77 0 125 -46.5t48 -121.5q0 -74 -48.5 -121t-124.5 -47h-221zM160 62h133q46 0 75 29.5t29 76.5t-29 76.5t-75 29.5h-133v-212zM651 0h-79v539h79v-539z" />
    <glyph glyph-name="afii10046.small" horiz-adv-x="537" 
d="M81 0v539h79v-203h142q77 0 125 -46.5t48 -121.5q0 -74 -48.5 -121t-124.5 -47h-221zM160 62h133q46 0 75 29.5t29 76.5t-29 76.5t-75 29.5h-133v-212z" />
    <glyph glyph-name="afii10047.small" horiz-adv-x="621" 
d="M110 420l-46 45q79 79 209 79q127 0 206 -76.5t79 -198.5t-79.5 -198t-206.5 -76q-128 0 -208 77l46 46q56 -61 158 -61q88 0 148 51t61 135h-288v62h287q-11 79 -67.5 127.5t-140.5 48.5q-103 0 -158 -61z" />
    <glyph glyph-name="afii10048.small" horiz-adv-x="875" 
d="M545 -5q-113 0 -186 68.5t-81 179.5h-118v-243h-79v539h79v-234h118q12 108 84.5 173.5t182.5 65.5q119 0 193.5 -76.5t74.5 -198.5t-74.5 -198t-193.5 -76zM355 269q0 -93 53.5 -152t136.5 -59q84 0 136.5 59t52.5 152q0 94 -52.5 153t-136.5 59q-83 0 -136.5 -59.5
t-53.5 -152.5z" />
    <glyph glyph-name="afii10049.small" horiz-adv-x="541" 
d="M381 225h-68q-16 -22 -86.5 -113.5t-83.5 -111.5h-86q13 20 84 111t87 114q-68 2 -110 46t-42 111q0 70 45 113.5t117 43.5h222v-539h-79v225zM381 476h-134q-40 0 -66 -26.5t-26 -67.5t26 -67.5t66 -26.5h134v188z" />
    <glyph glyph-name="afii10050.small" horiz-adv-x="505" 
d="M160 476v-476h-79v539h280v111h78v-174h-279z" />
    <glyph glyph-name="afii10051.small" horiz-adv-x="739" 
d="M281 0v476h-216v63h511v-63h-216v-224q21 44 60.5 70.5t89.5 26.5q66 0 107.5 -41.5t41.5 -107.5v-178q0 -126 -97 -219l-31 31q49 48 49 166v188q0 43 -29 70.5t-73 27.5q-49 0 -83 -40t-35 -88v-158h-79z" />
    <glyph glyph-name="afii10052.small" horiz-adv-x="517" 
d="M81 0v539h371v-62h-292v-477h-79zM322 770l48 -49l-162 -130l-32 33z" />
    <glyph glyph-name="afii10053.small" horiz-adv-x="617" 
d="M481 305v-62h-339q8 -83 65 -134t145 -51q103 0 158 61l47 -45q-82 -79 -210 -79q-127 0 -206 76t-79 198t79.5 198.5t205.5 76.5q127 0 210 -78l-47 -46q-56 61 -158 61q-84 0 -141 -48.5t-68 -127.5h338z" />
    <glyph glyph-name="afii10054.small" horiz-adv-x="493" 
d="M431 155q0 -71 -56 -115.5t-139 -44.5q-103 0 -180 79l40 39q53 -55 138 -55q52 0 85 25.5t33 66.5q0 30 -29.5 50.5t-71 34.5t-83 30t-71 48.5t-29.5 80.5q0 67 49 108.5t125 41.5q104 0 178 -79l-39 -39q-52 55 -131 55q-49 0 -76.5 -23t-27.5 -61q0 -33 29.5 -55.5
t71 -37t83.5 -30.5t71.5 -45.5t29.5 -73.5z" />
    <glyph glyph-name="afii10055.small" horiz-adv-x="241" 
d="M160 0h-79v539h79v-539z" />
    <glyph glyph-name="afii10056.small" horiz-adv-x="241" 
d="M160 0h-79v539h79v-539zM-21 617v94h77v-94h-77zM185 617v94h78v-94h-78z" />
    <glyph glyph-name="afii10057.small" horiz-adv-x="501" 
d="M341 192v347h79v-347q0 -87 -57.5 -142t-150.5 -55q-92 0 -152 57l46 45q34 -39 102 -39q59 0 96 37.5t37 96.5z" />
    <glyph glyph-name="afii10058.small" horiz-adv-x="972" 
d="M89 73q20 -16 43 -16q42 0 56.5 101t14.5 381h393v-203h140q78 0 126 -46.5t48 -121.5q0 -74 -48.5 -121t-125.5 -47h-220v476h-234q0 -281 -29 -381t-117 -100q-51 0 -90 35zM596 62h132q46 0 74.5 29.5t28.5 76.5t-28.5 76.5t-74.5 29.5h-132v-212z" />
    <glyph glyph-name="afii10059.small" horiz-adv-x="938" 
d="M482 0v243h-322v-243h-79v539h79v-234h322v234h78v-203h142q77 0 125.5 -46.5t48.5 -121.5q0 -74 -48.5 -121t-125.5 -47h-220zM560 62h133q46 0 75.5 29.5t29.5 76.5t-29 76.5t-76 29.5h-133v-212z" />
    <glyph glyph-name="afii10060.small" horiz-adv-x="739" 
d="M581 0v188q0 44 -29 71t-74 27q-51 0 -84.5 -38.5t-33.5 -93.5v-154h-79v477h-216v62h511v-62h-216v-222q22 43 61 68.5t89 25.5q66 0 107.5 -41.5t41.5 -107.5v-200h-78z" />
    <glyph glyph-name="afii10061.small" horiz-adv-x="593" 
d="M160 0h-79v539h79v-251l259 251h98l-234 -229l253 -310h-89l-215 258l-72 -74v-184zM336 770l48 -49l-162 -130l-32 33z" />
    <glyph glyph-name="afii10062.small" horiz-adv-x="632" 
d="M236 102l40 64l-223 373h83l181 -302l182 302h81l-253 -428q-35 -56 -72.5 -86t-90.5 -30q-71 0 -119 43l44 44q25 -25 70 -25q51 0 77 45zM146 704l39 40q51 -53 132 -53t132 53l39 -40q-69 -71 -171 -71q-103 0 -171 71z" />
    <glyph glyph-name="afii10145.small" horiz-adv-x="639" 
d="M280 0h-199v539h79v-477h319v477h79v-539h-200v-135h-78v135z" />
    <glyph glyph-name="uni0400.small" horiz-adv-x="549" 
d="M81 0v539h386v-62h-307v-172h285v-62h-285v-181h314v-62h-393zM182 721l48 49l146 -146l-32 -33z" />
    <glyph glyph-name="uni040D.small" horiz-adv-x="651" 
d="M491 421l-331 -421h-79v539h79v-421l331 421h79v-539h-79v421zM225 721l48 49l146 -146l-32 -33z" />
    <glyph glyph-name="afii10021.altsmall" horiz-adv-x="793" 
d="M57 62h68l231 477h81l229 -477h69v-197h-79v135h-520v-135h-79v197zM396 457l-188 -395h376z" />
    <glyph glyph-name="afii10029.altsmall" horiz-adv-x="696" 
d="M348 455l-213 -455h-86l259 539h80l259 -539h-86z" />
    <glyph glyph-name="afii10058.altsmall" horiz-adv-x="909" 
d="M348 455l-213 -455h-86l259 539h80l98 -203h186q77 0 125.5 -46.5t48.5 -121.5q0 -74 -48.5 -121t-125.5 -47h-111zM664 274h-150l104 -212h46q46 0 75 29.5t29 76.5t-29 76.5t-75 29.5z" />
    <glyph glyph-name="afii10024.altsmall" horiz-adv-x="871" 
d="M474 0h-78v245h-64l-189 -245h-89l211 277l-200 262h88l178 -232h65v232h78v-232h65l178 232h88l-201 -262l212 -277h-89l-189 245h-64v-245z" />
    <glyph glyph-name="afii10028.altsmall" horiz-adv-x="592" 
d="M160 0h-79v539h79v-232h83l194 232h89l-215 -262l225 -277h-89l-205 245h-82v-245z" />
    <glyph glyph-name="uni018F.small" horiz-adv-x="680" 
d="M79 293h453q-8 82 -66 133t-146 51q-111 0 -169 -60q-8 7 -46 45q81 78 213 78q130 0 212.5 -76t82.5 -197t-74.5 -196t-193.5 -75t-192.5 75t-73.5 196v26zM532 237h-373q9 -81 60 -131t126 -50q77 0 128 50t59 131z" />
    <glyph glyph-name="afii10061.alt" horiz-adv-x="676" 
d="M163 0h-83v700h83v-308h113l250 308h94l-272 -341l285 -359h-94l-263 323h-113v-323zM386 950l48 -49l-162 -130l-32 33z" />
    <glyph glyph-name="afii10109.alt" horiz-adv-x="548" 
d="M80 0v500h78v-211h90l165 211h86l-189 -241l210 -259h-89l-186 226h-87v-226h-78zM322 750l48 -49l-162 -130l-32 33z" />
    <glyph glyph-name="afii10061.smallalt" horiz-adv-x="593" 
d="M160 0h-79v539h79v-232h83l194 232h89l-215 -262l225 -277h-89l-205 245h-82v-245zM336 770l48 -49l-162 -130l-32 33z" />
    <glyph glyph-name="centoldstyle" horiz-adv-x="539" 
d="M276 -100v96q-101 11 -162 80t-61 174t61 174t162 79v97h51v-96q100 -6 166 -72l-42 -43q-46 47 -124 52v-382q80 5 124 52l42 -43q-64 -66 -166 -72v-96h-51zM276 63v373q-66 -11 -106 -61.5t-40 -124.5t40 -125t106 -62z" />
    <glyph glyph-name="dollaroldstyle" horiz-adv-x="448" 
d="M201 -100v95q-91 6 -152 73l41 42q47 -52 126 -52q43 0 72 23.5t29 59.5q0 27 -26.5 46t-64.5 32t-75.5 28.5t-64 45t-26.5 72.5q0 57 39.5 95t101.5 44v96h51v-97q80 -9 135 -70l-40 -42q-46 51 -122 51q-39 0 -63.5 -21t-24.5 -54q0 -28 26.5 -48t64.5 -33t75.5 -28.5
t64 -44t26.5 -69.5q0 -57 -40 -96.5t-102 -48.5v-99h-51z" />
    <glyph glyph-name="sixoldstyle" horiz-adv-x="611" 
d="M320 639q-79 0 -130.5 -72.5t-56.5 -190.5q65 57 163 57q116 0 188.5 -61t72.5 -156q0 -98 -66.5 -159.5t-172.5 -61.5q-121 0 -193 95.5t-72 259.5q0 159 72.5 257t193.5 98t197 -73l-43 -44q-56 51 -153 51zM316 61q72 0 117 43t45 112q0 66 -51.5 108.5t-132.5 42.5
q-51 0 -94 -19.5t-67 -53.5q7 -110 57 -171.5t126 -61.5z" />
    <glyph glyph-name="nineoldstyle" horiz-adv-x="609" 
d="M275 -89q85 0 140 73.5t61 193.5q-64 -64 -166 -64q-114 0 -185.5 60t-71.5 156q0 95 66.5 155t172.5 60q119 0 191.5 -97t72.5 -253t-77 -253t-205 -97t-207 73l43 44q59 -51 165 -51zM294 479q-72 0 -116.5 -41.5t-44.5 -107.5q0 -67 49.5 -108.5t129.5 -41.5
q54 0 98 21t66 58q-9 102 -58.5 161t-123.5 59z" />
    <glyph glyph-name="Alpha.small" horiz-adv-x="699" 
d="M310 539h81l258 -539h-77l-69 141h-306l-68 -141h-78zM351 459l-126 -256h251z" />
    <glyph glyph-name="Alphatonos.small" horiz-adv-x="699" 
d="M310 539h81l258 -539h-77l-69 141h-306l-68 -141h-78zM351 459l-126 -256h251zM370 776l47 -49l-102 -132l-32 33z" />
    <glyph glyph-name="Beta.small" horiz-adv-x="537" 
d="M81 0v539h218q64 0 104.5 -37.5t40.5 -96.5q0 -83 -69 -120q45 -12 72.5 -49.5t27.5 -89.5q0 -65 -43 -105.5t-113 -40.5h-238zM160 62h132q46 0 74 26.5t28 67.5t-28 67.5t-74 26.5h-132v-188zM276 477h-116v-165h116q40 0 64.5 23.5t24.5 59.5t-24.5 59t-64.5 23z" />
    <glyph glyph-name="Gamma.small" horiz-adv-x="511" 
d="M81 0v539h371v-62h-292v-477h-79z" />
    <glyph glyph-name="Delta.small" horiz-adv-x="696" 
d="M647 0h-598l259 539h80zM348 457l-187 -395h374z" />
    <glyph glyph-name="Epsilon.small" horiz-adv-x="538" 
d="M81 0v539h386v-62h-307v-172h285v-62h-285v-181h314v-62h-393z" />
    <glyph glyph-name="Epsilontonos.small" horiz-adv-x="538" 
d="M81 0v539h386v-62h-307v-172h285v-62h-285v-181h314v-62h-393zM301 776l47 -49l-102 -132l-32 33z" />
    <glyph glyph-name="Zeta.small" horiz-adv-x="641" 
d="M82 477v62h481v-39l-377 -438h382v-62h-492v39l376 438h-370z" />
    <glyph glyph-name="Eta.small" horiz-adv-x="641" 
d="M482 0v243h-322v-243h-79v539h79v-234h322v234h78v-539h-78z" />
    <glyph glyph-name="Etatonos.small" horiz-adv-x="641" 
d="M482 0v243h-322v-243h-79v539h79v-234h322v234h78v-539h-78zM341 776l47 -49l-102 -132l-32 33z" />
    <glyph glyph-name="Theta.small" horiz-adv-x="692" 
d="M62 269q0 122 79 198.5t205 76.5t205 -76.5t79 -198.5t-79 -198t-205 -76t-205 76t-79 198zM140 269q0 -93 58 -152t148 -59q91 0 148.5 59t57.5 152q0 94 -57.5 153t-148.5 59q-90 0 -148 -59.5t-58 -152.5zM189 247v52h314v-52h-314z" />
    <glyph glyph-name="Iota.small" horiz-adv-x="241" 
d="M160 0h-79v539h79v-539z" />
    <glyph glyph-name="Iotatonos.small" horiz-adv-x="241" 
d="M160 0h-79v539h79v-539zM142 776l47 -49l-102 -132l-32 33z" />
    <glyph glyph-name="Kappa.small" horiz-adv-x="595" 
d="M160 0h-79v539h79v-251l259 251h98l-237 -231l256 -308h-89l-218 255l-69 -71v-184z" />
    <glyph glyph-name="Lambda.small" horiz-adv-x="696" 
d="M348 455l-212 -455h-87l259 539h80l259 -539h-87z" />
    <glyph glyph-name="Mu.small" horiz-adv-x="795" 
d="M81 0v539h104l212 -434l214 434h103v-539h-78v426l-208 -426h-59l-209 426v-426h-79z" />
    <glyph glyph-name="Nu.small" horiz-adv-x="651" 
d="M491 0l-331 421v-421h-79v539h79l331 -421v421h79v-539h-79z" />
    <glyph glyph-name="Xi.small" horiz-adv-x="580" 
d="M73 0v62h433v-62h-433zM500 477h-421v62h421v-62zM477 243h-375v62h375v-62z" />
    <glyph glyph-name="Omicron.small" horiz-adv-x="692" 
d="M62 269q0 122 79 198.5t205 76.5t205 -76.5t79 -198.5t-79 -198t-205 -76t-205 76t-79 198zM140 269q0 -93 58 -152t148 -59q91 0 148.5 59t57.5 152q0 94 -57.5 153t-148.5 59q-90 0 -148 -59.5t-58 -152.5z" />
    <glyph glyph-name="Omicrontonos.small" horiz-adv-x="692" 
d="M62 269q0 122 79 198.5t205 76.5t205 -76.5t79 -198.5t-79 -198t-205 -76t-205 76t-79 198zM140 269q0 -93 58 -152t148 -59q91 0 148.5 59t57.5 152q0 94 -57.5 153t-148.5 59q-90 0 -148 -59.5t-58 -152.5zM366 776l47 -49l-102 -132l-32 33z" />
    <glyph glyph-name="Pi.small" horiz-adv-x="639" 
d="M479 0v477h-319v-477h-79v539h477v-539h-79z" />
    <glyph glyph-name="Rho.small" horiz-adv-x="526" 
d="M81 0v539h207q78 0 127.5 -47.5t49.5 -123.5t-49.5 -123.5t-127.5 -47.5h-128v-197h-79zM280 477h-120v-218h120q47 0 76.5 30.5t29.5 78.5t-29.5 78.5t-76.5 30.5z" />
    <glyph glyph-name="Sigma.small" horiz-adv-x="577" 
d="M500 477h-300l173 -202l-183 -213h316v-62h-433v31l209 244l-203 233v31h421v-62z" />
    <glyph glyph-name="Tau.small" horiz-adv-x="641" 
d="M65 477v62h511v-62h-216v-477h-79v477h-216z" />
    <glyph glyph-name="Upsilon.small" horiz-adv-x="618" 
d="M269 0v199l-220 340h81l179 -271l179 271h81l-221 -340v-199h-79z" />
    <glyph glyph-name="Upsilondieresis.small" horiz-adv-x="618" 
d="M269 0v199l-220 340h81l179 -271l179 271h81l-221 -340v-199h-79zM155 626v94h78v-94h-78zM385 626v94h77v-94h-77z" />
    <glyph glyph-name="Upsilontonos.small" horiz-adv-x="618" 
d="M269 0v199l-220 340h81l179 -271l179 271h81l-221 -340v-199h-79zM329 776l47 -49l-102 -132l-32 33z" />
    <glyph glyph-name="Phi.small" horiz-adv-x="688" 
d="M382 0h-78v51q-108 0 -175.5 60.5t-67.5 157.5t67.5 158t175.5 61v51h78v-51q108 -1 175.5 -61.5t67.5 -157.5t-67.5 -157.5t-175.5 -60.5v-51zM304 113v312q-73 0 -118.5 -43.5t-45.5 -112.5t45.5 -112.5t118.5 -43.5zM547 268q0 70 -46 113.5t-119 43.5v-312
q73 0 119 43.5t46 111.5z" />
    <glyph glyph-name="Chi.small" horiz-adv-x="656" 
d="M144 0h-89l224 275l-213 264h89l171 -211l171 211h89l-214 -264l225 -275h-90l-181 221z" />
    <glyph glyph-name="Psi.small" horiz-adv-x="659" 
d="M466 517q5 6 11 12t13.5 13t11.5 11q89 -86 89 -185v-46q0 -79 -61 -128.5t-158 -49.5v-144h-78v144q-94 0 -153.5 49.5t-59.5 128.5v217h79v-212q0 -53 37 -87t97 -34v333h78v-333q63 0 101.5 33.5t38.5 87.5v41q0 106 -46 149z" />
    </font>
</defs>
</svg>
