<?xml version="1.0" standalone="no"?>
<!DOCTYPE svg PUBLIC "-//W3C//DTD SVG 1.1//EN" "http://www.w3.org/Graphics/SVG/1.1/DTD/svg11.dtd" >
<svg xmlns="http://www.w3.org/2000/svg">
<metadata></metadata>
<defs>
<font id="fontuploaded_file" horiz-adv-x="542" >
<font-face units-per-em="2048" ascent="1554" descent="-494" />
<missing-glyph horiz-adv-x="532" />
<glyph horiz-adv-x="0" />
<glyph unicode="&#xd;" horiz-adv-x="681" />
<glyph unicode=" "  horiz-adv-x="532" />
<glyph unicode="&#x09;" horiz-adv-x="532" />
<glyph unicode="&#xa0;" horiz-adv-x="532" />
<glyph unicode="!" d="M135 0v295h273v-295h-273zM135 463v971h273v-971h-273z" />
<glyph unicode="&#x22;" horiz-adv-x="1060" d="M135 1434h273l-43 -625h-187zM653 1434h271l-41 -625h-189z" />
<glyph unicode="#" horiz-adv-x="1640" d="M74 303v215h243l72 397h-203v213h238l55 306h291l-55 -306h354l55 306h291l-55 -306h207v-213h-242l-72 -397h203v-215h-239l-54 -303h-291l54 303h-355l-53 -303h-291l54 303h-207zM608 518h355l71 397h-354z" />
<glyph unicode="$" horiz-adv-x="1173" d="M78 190l145 150q117 -121 307 -121v383q-66 25 -86 33t-79.5 34.5t-84 44t-66.5 53.5t-59.5 70.5t-33 86t-15.5 108.5q0 178 120 291t304 125v190h103v-190q225 -18 401 -205l-141 -151q-111 113 -260 120v-381q12 -4 58 -21t61.5 -23.5t57.5 -25t59.5 -29.5t51 -31.5 t49 -39t39 -45t33 -54t17.5 -62.5t8 -74q0 -174 -124 -292t-310 -142v-197h-103v189q-252 2 -452 206zM397 1047q0 -102 133 -170v329q-133 -32 -133 -159zM633 233q143 52 143 175q0 90 -143 153v-328z" />
<glyph unicode="%" horiz-adv-x="1894" d="M78 1151q0 152 97 247t253 95q154 0 250 -95t96 -247t-96 -246t-250 -94q-156 0 -253 94t-97 246zM303 1151q0 -59 36 -100t89 -41t88 41t35 100q0 61 -35 102t-88 41t-89 -41t-36 -102zM377 0l856 1485h291l-856 -1485h-291zM1120 331.5q0 151.5 96.5 247t251.5 95.5 q154 0 250.5 -95.5t96.5 -247t-96.5 -245.5t-250.5 -94q-156 0 -252 94t-96 245.5zM1346 332q0 -59 35.5 -100.5t86.5 -41.5q53 0 89 41t36 101q0 61 -35.5 102t-89 41t-88 -41t-34.5 -102z" />
<glyph unicode="&#x26;" horiz-adv-x="1429" d="M88 412q0 256 244 387q-80 156 -80 295q0 160 109.5 258t283.5 98t283.5 -91t109.5 -245q0 -158 -91 -248t-255 -166q111 -137 299 -288q84 133 84 305h230q0 -266 -121 -449l186 -118l-168 -175q-78 45 -188 123q-176 -115 -434 -114q-215 0 -353.5 119.5t-138.5 308.5z M358 412q0 -92 64.5 -153.5t157.5 -61.5q129 0 235 53q-207 168 -346 340q-111 -76 -111 -178zM522 1094q0 -88 43 -191q100 43 151.5 90t51.5 121q0 55 -34 89t-87 34t-89 -40t-36 -103z" />
<glyph unicode="'" d="M135 1434h273l-43 -625h-187z" />
<glyph unicode="(" horiz-adv-x="663" d="M119 639q0 279 78.5 531.5t218.5 418.5l141 -147q-78 -119 -122 -337t-44 -466q0 -246 45 -464t123 -337l-143 -147q-139 166 -218 419t-79 529z" />
<glyph unicode=")" horiz-adv-x="663" d="M104 1442l146 147q137 -166 216 -419t79 -529q0 -279 -79 -531.5t-216 -418.5l-144 147q78 119 123 337t45 466q0 244 -46 463t-124 338z" />
<glyph unicode="*" horiz-adv-x="1064" d="M106 887l261 149l-261 152l82 147l263 -151v301h165v-301l261 151l84 -147l-265 -152l265 -149l-84 -148l-261 150v-299h-165v299l-263 -150z" />
<glyph unicode="+" horiz-adv-x="1163" d="M115 631v213h352v362h229v-362h353v-213h-353v-361h-229v361h-352z" />
<glyph unicode="," d="M-27 -303q80 80 121 240.5t41 357.5h273q0 -377 -326 -711z" />
<glyph unicode="-" horiz-adv-x="806" d="M135 487v213h535v-213h-535z" />
<glyph unicode="." d="M135 0v295h273v-295h-273z" />
<glyph unicode="/" horiz-adv-x="831" d="M-27 -205l615 1690h270l-616 -1690h-269z" />
<glyph unicode="0" horiz-adv-x="1302" d="M78 717q0 330 151.5 531.5t415.5 201.5q262 0 414.5 -201.5t152.5 -531.5t-152.5 -531.5t-414.5 -201.5q-264 0 -415.5 201.5t-151.5 531.5zM360 715q0 -223 78 -364.5t207 -141.5q133 0 210 141.5t77 364.5q0 227 -77 368.5t-210 141.5q-129 0 -207 -142.5t-78 -367.5z " />
<glyph unicode="1" horiz-adv-x="1054" d="M86 1124l500 310h280v-1434h-280v1130l-381 -217z" />
<glyph unicode="2" horiz-adv-x="1173" d="M84 1255q102 98 212 146.5t261 48.5q207 0 344 -113.5t137 -302.5q0 -125 -59 -254t-144 -224t-169 -173t-144 -117l-59 -41h604v-225h-950v225q14 8 36.5 24.5t89 68t127 103.5t134.5 127t127 146.5t90 154.5t37 155q0 100 -57.5 160.5t-168.5 60.5q-100 0 -168.5 -30 t-132.5 -93z" />
<glyph unicode="3" horiz-adv-x="1179" d="M86 178l154 160q98 -129 323 -129q113 0 184.5 61.5t71.5 157.5t-67.5 158.5t-171.5 62.5h-113v215h115q88 0 142 50.5t54 130t-59.5 130t-155.5 50.5q-207 0 -303 -131l-154 161q178 195 476 195q213 0 346 -101.5t133 -265.5q0 -111 -62.5 -194.5t-175.5 -128.5 q131 -49 205 -145.5t74 -223.5q0 -180 -144.5 -293.5t-375.5 -113.5q-297 0 -496 194z" />
<glyph unicode="4" horiz-adv-x="1443" d="M109 256v137l727 1041h317v-963h154v-215h-154v-256h-281v256h-763zM459 471h413v563z" />
<glyph unicode="5" horiz-adv-x="1165" d="M70 178l145 152q68 -63 138.5 -92t176.5 -29q121 0 184.5 60.5t63.5 160.5q0 106 -65.5 166.5t-171.5 60.5h-391v777h804v-226h-522v-325h133q219 0 356.5 -128t137.5 -333q0 -199 -141.5 -318.5t-350.5 -119.5q-162 0 -275.5 48t-221.5 146z" />
<glyph unicode="6" horiz-adv-x="1216" d="M78 717q0 330 151.5 531.5t415.5 201.5q258 0 420 -150l-145 -149q-93 74 -275 74q-113 0 -188.5 -105.5t-96.5 -288.5q117 90 254 91q236 0 381.5 -131.5t145.5 -339.5q0 -207 -140.5 -337t-365.5 -130q-258 0 -407.5 201.5t-149.5 531.5zM360 557q20 -172 91.5 -260 t177.5 -88q104 0 167.5 67.5t63.5 174.5q0 109 -70.5 176t-185.5 67q-74 0 -141.5 -36.5t-102.5 -100.5z" />
<glyph unicode="7" horiz-adv-x="1312" d="M104 1208v226h1065v-138l-632 -1296h-283l586 1208h-736z" />
<glyph unicode="8" horiz-adv-x="1193" d="M78 391q0 127 73.5 223.5t204.5 145.5q-111 45 -173 128.5t-62 194.5q0 164 132 265.5t345 101.5t345 -101.5t132 -265.5q0 -111 -62.5 -194.5t-172.5 -128.5q129 -49 202.5 -145.5t73.5 -223.5q0 -180 -143.5 -293.5t-374.5 -113.5t-375.5 113.5t-144.5 293.5zM360 432 q0 -96 67 -159.5t169 -63.5t171 63.5t69 159.5q0 100 -69 165t-171 65t-169 -65t-67 -165zM403 1036q0 -78 55.5 -130t139.5 -52q88 0 142.5 51t54.5 131q0 84 -54.5 136.5t-142.5 52.5q-86 0 -140.5 -52.5t-54.5 -136.5z" />
<glyph unicode="9" horiz-adv-x="1206" d="M78 977q0 211 140 342t364 131q254 0 401 -201.5t147 -531.5t-158.5 -531.5t-432.5 -201.5q-270 0 -441 149l146 150q100 -74 297 -74q121 0 204.5 102.5t104.5 280.5q-113 -88 -250 -88q-233 0 -377.5 132t-144.5 341zM360 977q0 -109 70 -178.5t180 -69.5 q72 0 137.5 37t102.5 100q-20 176 -90 267.5t-172.5 91.5t-165 -69t-62.5 -179z" />
<glyph unicode=":" d="M135 0v295h273v-295h-273zM135 729v295h273v-295h-273z" />
<glyph unicode=";" d="M-27 -303q80 80 121 240.5t41 357.5h273q0 -377 -326 -711zM135 729v295h273v-295h-273z" />
<glyph unicode="&#x3c;" horiz-adv-x="1355" d="M104 633v178l1143 483v-268l-743 -303l743 -301v-275z" />
<glyph unicode="=" horiz-adv-x="1296" d="M135 365v213h1024v-213h-1024zM135 852v215h1024v-215h-1024z" />
<glyph unicode="&#x3e;" horiz-adv-x="1355" d="M106 143v269l744 303l-744 301v274l1143 -485v-178z" />
<glyph unicode="?" horiz-adv-x="1083" d="M76 1243q98 104 204.5 155.5t256.5 51.5q201 0 335 -102.5t134 -272.5q0 -109 -36 -181.5t-87.5 -111.5t-102.5 -74.5t-87 -94t-36 -146.5h-270q0 127 36 214t87 128t102.5 71.5t87 74.5t35.5 110q0 70 -63.5 121t-163.5 51q-96 0 -161.5 -34t-133.5 -101zM387 0v295h270 v-295h-270z" />
<glyph unicode="@" horiz-adv-x="2207" d="M102 512q0 440 277.5 714.5t722.5 274.5q446 0 725.5 -245.5t279.5 -634.5q0 -170 -45 -297t-120.5 -197t-160.5 -103.5t-175 -33.5q-123 0 -213 53t-90 129q-100 -182 -322 -182q-172 0 -279.5 139t-107.5 363q0 244 158.5 396t414.5 152q221 0 375 -77v-596 q0 -76 33 -119t78 -43q72 0 127 105.5t55 310.5q0 291 -204 479t-529 188q-315 0 -522 -220t-207 -556t206.5 -556t522.5 -220q186 0 342 47t250 133l135 -139q-287 -254 -727 -254q-444 0 -722 274.5t-278 714.5zM864 492q0 -127 59.5 -207t153.5 -80q84 0 139.5 48 t55.5 103v447q-63 25 -150 24q-113 0 -185.5 -94t-72.5 -241z" />
<glyph unicode="A" horiz-adv-x="1767" d="M86 0l649 1434h299l647 -1434h-280l-148 319h-737l-145 -319h-285zM621 555h530l-268 578z" />
<glyph unicode="B" horiz-adv-x="1329" d="M135 0v1434h621q168 0 273.5 -100.5t105.5 -258.5q0 -215 -154 -313q111 -35 175.5 -134.5t64.5 -238.5q0 -172 -114 -280.5t-298 -108.5h-674zM428 236h279q94 0 152.5 55t58.5 141t-58.5 141.5t-152.5 55.5h-279v-393zM428 866h236q80 0 130 46t50 120q0 72 -50 119 t-130 47h-236v-332z" />
<glyph unicode="C" horiz-adv-x="1449" d="M78 716.5q0 325.5 208 529.5t537 204q326 0 543 -207l-168 -174q-123 145 -360 145q-209 0 -338 -139t-129 -360q0 -219 129 -357.5t338 -138.5q237 1 360 146l168 -175q-206 -206 -542 -206h-3q-330 0 -536.5 203.5t-206.5 529z" />
<glyph unicode="D" horiz-adv-x="1542" d="M135 0v1434h602q324 0 525.5 -199t201.5 -518.5t-201.5 -518t-525.5 -198.5h-602zM428 236h309q190 0 313.5 135t123.5 346t-123 346t-314 135h-309v-962z" />
<glyph unicode="E" horiz-adv-x="1308" d="M135 0v1434h1026v-236h-733v-354h670v-236h-670v-372h756v-236h-1049z" />
<glyph unicode="F" horiz-adv-x="1288" d="M135 0v1434h1026v-236h-733v-373h672v-235h-672v-590h-293z" />
<glyph unicode="G" horiz-adv-x="1501" d="M78 716.5q0 325.5 208 529.5t537 204q326 0 543 -207l-168 -174q-123 145 -360 145q-209 0 -338 -139t-129 -360q0 -219 129 -357.5t338 -138.5q129 0 237 45v326h-325v235h616v-635q-206 -206 -542 -206h-3q-330 0 -536.5 203.5t-206.5 529z" />
<glyph unicode="H" horiz-adv-x="1554" d="M135 0v1434h293v-590h700v590h291v-1434h-291v608h-700v-608h-293z" />
<glyph unicode="I" horiz-adv-x="563" d="M135 0v1434h293v-1434h-293z" />
<glyph unicode="J" horiz-adv-x="1169" d="M86 133l164 172q74 -86 215 -86q123 0 199.5 81t76.5 212v922h291v-922q0 -236 -151.5 -382t-395.5 -146q-240 0 -399 149z" />
<glyph unicode="K" horiz-adv-x="1466" d="M135 0v1434h293v-578l571 578h359l-584 -603l619 -831h-328l-481 633l-156 -178v-455h-293z" />
<glyph unicode="L" horiz-adv-x="1318" d="M135 0v1434h293v-1198h764v-236h-1057z" />
<glyph unicode="M" horiz-adv-x="1972" d="M135 0v1434h391l459 -1020l459 1020h389v-1434h-291v1012l-452 -1012h-207l-455 1012v-1012h-293z" />
<glyph unicode="N" horiz-adv-x="1574" d="M135 0v1434h293l719 -977v977h293v-1434h-293l-719 977v-977h-293z" />
<glyph unicode="O" horiz-adv-x="1644" d="M78 716.5q0 325.5 207 529.5t536.5 204t536.5 -204t207 -529.5t-207 -529t-536.5 -203.5t-536.5 203.5t-207 529zM371 717q0 -217 128 -357.5t322 -140.5q201 0 327 140.5t126 357.5t-126 357t-327 140q-195 0 -322.5 -140t-127.5 -357z" />
<glyph unicode="P" horiz-adv-x="1280" d="M135 0v1434h588q213 0 346 -132.5t133 -343.5q0 -209 -134 -341t-345 -132h-295v-485h-293zM428 721h264q96 0 156.5 66.5t60.5 171t-60.5 172t-156.5 67.5h-264v-477z" />
<glyph unicode="Q" horiz-adv-x="1751" d="M78 716.5q0 325.5 207 529.5t536.5 204t536.5 -204t207 -529q0 -262 -140 -451l129 -127l-165 -172l-136 133q-180 -116 -428 -116h-4q-330 0 -536.5 203.5t-206.5 529zM371 717q0 -217 128 -357.5t322 -140.5q141 0 250 70l-213 211l166 172l199 -195q51 109 51 240 q0 217 -126 357t-327 140q-195 0 -322.5 -140t-127.5 -357z" />
<glyph unicode="R" horiz-adv-x="1339" d="M135 0v1434h623q197 0 317.5 -119t120.5 -314q0 -168 -92 -281.5t-248 -141.5l414 -578h-320l-405 569h-117v-569h-293zM428 805h297q78 0 129 55t51 141q0 84 -51 140.5t-129 56.5h-297v-393z" />
<glyph unicode="S" horiz-adv-x="1173" d="M78 190l145 150q117 -121 305 -121q109 0 178.5 52.5t69.5 136.5q0 70 -68.5 115.5t-167 79.5t-197.5 77t-168 132t-69 220q0 188 133.5 303t333.5 115q150 0 256.5 -51t204.5 -156l-141 -151q-63 66 -128 94t-163 28q-100 0 -152.5 -46t-52.5 -121q0 -57 37 -100.5 t96.5 -72t130 -54t142 -57.5t131 -72t96.5 -108.5t37 -156.5q0 -199 -154.5 -320.5t-373.5 -121.5q-258 0 -461 206z" />
<glyph unicode="T" horiz-adv-x="1587" d="M106 1198v236h1377v-236h-543v-1198h-293v1198h-541z" />
<glyph unicode="U" horiz-adv-x="1574" d="M135 637v797h293v-797q0 -188 99.5 -303t258.5 -115q164 0 262.5 115t98.5 303v797h291v-797q0 -311 -175.5 -482t-476.5 -171q-303 0 -477 171t-174 482z" />
<glyph unicode="V" horiz-adv-x="1767" d="M86 1434h301l498 -1133l491 1133h305l-649 -1434h-299z" />
<glyph unicode="W" horiz-adv-x="2445" d="M84 1434h278l351 -1059l350 1059h311l346 -1059l355 1059h278l-481 -1434h-316l-337 1051l-340 -1051h-316z" />
<glyph unicode="X" horiz-adv-x="1617" d="M86 0l551 733l-522 701h323l369 -496l373 496h323l-524 -701l553 -733h-326l-399 526l-399 -526h-322z" />
<glyph unicode="Y" horiz-adv-x="1560" d="M86 1434h297l395 -658l400 658h297l-549 -926v-508h-293v508z" />
<glyph unicode="Z" horiz-adv-x="1531" d="M127 0v137l852 1061h-840v236h1250v-138l-852 -1060h866v-236h-1276z" />
<glyph unicode="[" horiz-adv-x="704" d="M176 -256v1792h404v-215h-131v-1362h131v-215h-404z" />
<glyph unicode="\" horiz-adv-x="831" d="M-27 1485h269l616 -1690h-270z" />
<glyph unicode="]" horiz-adv-x="704" d="M125 -41h133v1362h-133v215h403v-1792h-403v215z" />
<glyph unicode="^" horiz-adv-x="1021" d="M76 1135l440 327l438 -327l-131 -136l-307 226l-309 -226z" />
<glyph unicode="_" horiz-adv-x="1163" d="M4 -49h1155v-215h-1155v215z" />
<glyph unicode="`" horiz-adv-x="651" d="M104 1368l164 168l299 -299l-100 -102z" />
<glyph unicode="a" horiz-adv-x="1134" d="M78 297q0 152 134 246t347 94q80 0 178 -10v28q0 80 -53 126t-139 46h-5q-179 0 -288 -71l-131 135q167 149 404 149h3q213 0 347.5 -104.5t134.5 -267.5v-668h-273v152q-111 -162 -315 -162q-154 0 -249 85t-95 222zM350 319q0 -53 46 -87.5t118 -34.5q98 0 160.5 76.5 t62.5 187.5q-68 18 -141 18q-109 0 -177.5 -46t-68.5 -114z" />
<glyph unicode="b" horiz-adv-x="1216" d="M135 59v1426h273v-613q113 162 331 162q176 0 287 -145.5t111 -376.5q0 -236 -168 -382t-437 -146h-6q-229 0 -391 75zM408 221q69 -24 168 -24h8q127 0 204.5 87t77.5 224t-65.5 224t-169.5 87q-92 0 -155.5 -46t-67.5 -99v-453z" />
<glyph unicode="c" horiz-adv-x="1060" d="M78 512q0 236 150.5 382t387.5 146q236 0 390 -149l-144 -148q-80 84 -227 84q-127 0 -206 -88t-79 -227t79 -227t206 -88q147 0 227 84l144 -148q-144 -149 -389 -149h-3q-238 0 -387 146t-149 382z" />
<glyph unicode="d" horiz-adv-x="1226" d="M78 492q0 242 141 392t367 150q129 0 233 -47v498h271v-1485h-271v184q-51 -90 -139 -142t-197 -52q-180 0 -292.5 139t-112.5 363zM350 492q0 -127 67.5 -207t176.5 -80q96 0 160.5 71.5t64.5 157.5v357q-91 28 -196 28h-7q-119 0 -192.5 -91t-73.5 -236z" />
<glyph unicode="e" horiz-adv-x="1165" d="M78 512q0 236 140 382t364 146q221 0 359 -147.5t138 -382.5v-86h-731q18 -102 101 -164.5t202 -62.5q160 0 242 86l145 -152q-152 -147 -405 -147q-246 0 -400.5 146t-154.5 382zM352 606h455q0 98 -63.5 158.5t-157.5 60.5q-90 0 -154 -59.5t-80 -159.5z" />
<glyph unicode="f" horiz-adv-x="993" d="M63 809v215h154v43q0 195 117 314.5t303 119.5q196 0 309 -125l-137 -141q-63 53 -147 53q-76 0 -125.5 -53t-49.5 -135v-76h326v-215h-326v-809h-270v809h-154z" />
<glyph unicode="g" horiz-adv-x="1216" d="M78 492q0 244 169 396t437 152q236 0 395 -77v-963q0 -213 -150.5 -345t-391.5 -132h-3q-246 0 -401 149l137 142q94 -78 267 -78q121 0 196.5 73.5t75.5 190.5v150q-113 -160 -332 -160q-176 0 -287.5 139t-111.5 363zM350 492q0 -127 66.5 -207t173.5 -80 q94 0 156.5 48t62.5 103v447q-71 24 -161 24h-7q-129 0 -210 -94t-81 -241z" />
<glyph unicode="h" horiz-adv-x="1257" d="M135 0v1485h273v-649q55 94 145 149t203 55q164 0 265 -113.5t101 -293.5v-633h-272v590q0 106 -58.5 171.5t-150.5 65.5q-98 0 -163.5 -79.5t-69.5 -180.5v-567h-273z" />
<glyph unicode="i" d="M135 0v1024h273v-1024h-273zM135 1204v230h273v-230h-273z" />
<glyph unicode="j" horiz-adv-x="624" d="M-168 -369l137 142q43 -37 119 -37q57 0 93 46t36 118v1124h272v-1112q0 -174 -105 -281.5t-273 -107.5h-3q-168 0 -276 108zM217 1204v230h272v-230h-272z" />
<glyph unicode="k" horiz-adv-x="1236" d="M135 0v1485h273v-846l354 385h321l-395 -428l463 -596h-305l-328 416l-110 -127v-289h-273z" />
<glyph unicode="l" horiz-adv-x="759" d="M135 332v1153h273v-1176q0 -49 26.5 -80.5t67.5 -31.5h3q45 0 73 28l139 -143q-92 -98 -246 -98q-150 0 -243 96t-93 252z" />
<glyph unicode="m" horiz-adv-x="1789" d="M135 0v1024h273v-145q108 161 305 161h2q174 0 262 -163q120 163 331 163h3q152 0 247 -109.5t95 -285.5v-645h-271v645q0 80 -42 131t-109 51q-86 0 -141.5 -68.5t-59.5 -174.5v-584h-270v645q0 80 -43 131t-109 51q-86 0 -141 -68.5t-59 -174.5v-584h-273z" />
<glyph unicode="n" horiz-adv-x="1257" d="M135 0v1024h273v-188q55 94 145 149t203 55q164 0 265 -113.5t101 -293.5v-633h-272v590q0 106 -58.5 171.5t-150.5 65.5q-98 0 -163.5 -79.5t-69.5 -180.5v-567h-273z" />
<glyph unicode="o" horiz-adv-x="1234" d="M78 512q0 236 150.5 382t390 146t389 -146t149.5 -382t-149.5 -382t-389 -146t-390 146t-150.5 382zM350 512q0 -137 76 -226t192 -89q119 0 194 89t75 226t-75 226t-194 89q-117 0 -192.5 -89t-75.5 -226z" />
<glyph unicode="p" horiz-adv-x="1226" d="M135 -461v1485h271v-188q53 90 140 144t193 54q180 0 293 -145.5t113 -376.5q0 -233 -140.5 -377.5t-365.5 -144.5q-129 0 -233 47v-498h-271zM406 236q98 -33 204 -33q117 0 190.5 86t73.5 223t-68.5 222t-176.5 85q-94 0 -158.5 -71.5t-64.5 -157.5v-354z" />
<glyph unicode="q" horiz-adv-x="1216" d="M78 492q0 244 169 396t437 152q236 0 395 -77v-1424h-270v613q-111 -162 -332 -162q-176 0 -287.5 139t-111.5 363zM350 492q0 -127 66.5 -207t173.5 -80q94 0 156.5 48t62.5 103v443q-72 28 -162 28h-6q-129 0 -210 -94t-81 -241z" />
<glyph unicode="r" horiz-adv-x="858" d="M135 0v1024h273v-242q51 117 142 187.5t204 70.5v-231q-147 0 -246.5 -91t-99.5 -202v-516h-273z" />
<glyph unicode="s" horiz-adv-x="944" d="M80 133l137 141q81 -77 225 -77h4q59 0 104.5 31.5t45.5 74.5t-50 70.5t-122 49t-144.5 52.5t-123 94.5t-50.5 157.5q0 139 109 227t260 88q217 0 363 -149l-138 -141q-85 75 -205 75h-3q-51 0 -83 -25.5t-32 -64.5q0 -49 50 -81.5t122 -55t144.5 -51.5t122.5 -89.5 t50 -148.5q0 -143 -126 -235t-291 -92q-213 0 -369 149z" />
<glyph unicode="t" horiz-adv-x="1013" d="M63 809v215h154v236h270v-236h316v-215h-316v-403q0 -92 52.5 -150.5t130.5 -58.5q74 0 137 55l139 -143q-113 -125 -309 -125q-186 0 -303 119.5t-117 312.5v393h-154z" />
<glyph unicode="u" horiz-adv-x="1257" d="M135 387v637h273v-592q0 -104 58 -169.5t150 -65.5q96 0 163 79.5t71 178.5v569h272v-1024h-272v186q-57 -94 -147.5 -148t-200.5 -54q-162 0 -264.5 112.5t-102.5 290.5z" />
<glyph unicode="v" horiz-adv-x="1318" d="M86 1024h260l307 -733l310 733h264l-436 -1024h-273z" />
<glyph unicode="w" horiz-adv-x="1863" d="M86 1024h256l240 -672l229 672h242l225 -672l246 672h256l-367 -1024h-252l-229 641l-232 -641h-251z" />
<glyph unicode="x" horiz-adv-x="1298" d="M86 0l406 524l-386 500h304l237 -319l238 319h307l-387 -500l407 -524h-307l-258 342l-258 -342h-303z" />
<glyph unicode="y" horiz-adv-x="1310" d="M57 -369l133 138q39 -33 132 -33q86 0 161 174l39 90l-436 1024h258l307 -715l314 715h262l-525 -1200q-131 -301 -360 -301q-176 0 -285 108z" />
<glyph unicode="z" horiz-adv-x="1165" d="M127 0v127l532 682h-522v215h891v-127l-555 -682h565v-215h-911z" />
<glyph unicode="{" horiz-adv-x="849" d="M125 528v213q66 0 103.5 58.5t49 147.5t35 191.5t58.5 191.5t125 147.5t227 58.5v-215q-70 0 -105.5 -60.5t-49 -151.5t-29 -186.5t-62.5 -177t-133 -110.5q84 -29 132 -110t62.5 -175t28 -183t50 -148.5t106.5 -59.5v-215q-137 0 -227 58.5t-125 145.5t-58.5 188.5 t-35 188.5t-49 145t-103.5 58z" />
<glyph unicode="|" d="M135 -205v1690h273v-1690h-273z" />
<glyph unicode="}" horiz-adv-x="849" d="M125 -41q72 0 108.5 59.5t50 148.5t28 183t62.5 175t132 110q-84 29 -132 110.5t-63.5 177t-29 186.5t-50 151.5t-106.5 60.5v215q121 0 204 -44t124 -113.5t64.5 -154.5t35.5 -170t27.5 -155t50.5 -114t92 -44v-213q-66 0 -103.5 -58t-48 -145t-34 -188.5t-58.5 -188.5 t-125 -145.5t-229 -58.5v215z" />
<glyph unicode="~" horiz-adv-x="1036" d="M86 610q137 150 283 150q57 0 157.5 -30t147.5 -30q78 0 143 60l135 -139q-137 -150 -276 -150q-57 0 -156.5 29.5t-146.5 29.5q-82 0 -152 -59z" />
<glyph unicode="&#xa1;" d="M135 -266v979h273v-979h-273zM135 883v295h273v-295h-273z" />
<glyph unicode="&#xa2;" horiz-adv-x="1060" d="M78 717q0 211 123 353.5t325 168.5v195h166v-193q182 -20 314 -145l-144 -148q-59 61 -170 78v-618q111 16 170 78l144 -148q-125 -125 -314 -145v-193h-166v193q-203 29 -325.5 170t-122.5 354zM350 717q0 -106 47 -183t129 -112v588q-82 -35 -129 -112t-47 -181z" />
<glyph unicode="&#xa3;" horiz-adv-x="1275" d="M115 0v225h102v342h-102v215h102v252q0 188 137.5 302t341.5 114q152 0 261.5 -48t211.5 -147l-147 -153q-66 66 -132.5 94.5t-168.5 28.5q-111 0 -167 -60.5t-56 -160.5v-222h520v-215h-520v-342h671v-225h-1054z" />
<glyph unicode="&#xa4;" horiz-adv-x="1130" d="M63 381l164 164q-37 78 -37 172t37 172l-164 164l164 168l166 -168q74 33 172 32q94 0 172 -30l166 166l164 -168l-164 -164q39 -82 39 -172q0 -92 -39 -174l164 -162l-164 -168l-166 166q-74 -31 -172 -31q-94 0 -172 31l-166 -166zM389 717q0 -90 50 -148.5t126 -58.5 q80 0 129 58.5t49 148.5t-49 148.5t-129 58.5q-76 0 -126 -58.5t-50 -148.5z" />
<glyph unicode="&#xa5;" horiz-adv-x="1560" d="M86 1434h297l395 -658l400 658h297l-549 -926v-39h342v-150h-342v-86h342v-149h-342v-84h-293v84h-342v149h342v86h-342v150h342v39z" />
<glyph unicode="&#xa6;" d="M135 -205v791h273v-791h-273zM135 694v791h273v-791h-273z" />
<glyph unicode="&#xa7;" horiz-adv-x="1173" d="M78 -270l145 149q117 -121 305 -121q109 0 178.5 52.5t69.5 136.5q0 70 -68.5 116t-167 79.5t-197.5 76.5t-168 132t-69 220q0 156 93 260q-92 98 -93 252q0 188 133.5 303t333.5 115q150 0 256.5 -51t204.5 -156l-141 -151q-63 66 -128 94.5t-163 28.5 q-100 0 -152.5 -46t-52.5 -122q0 -57 37 -100.5t96.5 -72t130 -54t142 -57.5t131 -72t96.5 -108.5t37 -156.5q0 -156 -102 -270q102 -98 102 -242q0 -199 -154.5 -320.5t-373.5 -121.5q-258 0 -461 207zM397 586q0 -37 17.5 -68t38 -51.5t67.5 -44t75 -34.5t91 -34 q8 -4 13.5 -5t12.5 -4t13 -5q51 51 51 119q0 31 -15.5 57.5t-34.5 44t-60 36.5t-69 29.5t-83 31t-84 30.5q-33 -41 -33 -102z" />
<glyph unicode="&#xa8;" horiz-adv-x="1003" d="M135 1204v230h273v-230h-273zM596 1204v230h270v-230h-270z" />
<glyph unicode="&#xa9;" horiz-adv-x="1644" d="M78 716.5q0 325.5 207 529.5t536.5 204t536.5 -204t207 -529.5t-207 -529t-536.5 -203.5t-536.5 203.5t-207 529zM287 717q0 -246 150.5 -404.5t381.5 -158.5q236 0 385.5 158.5t149.5 404.5t-149.5 404.5t-385.5 158.5q-231 0 -381.5 -158.5t-150.5 -404.5zM455 719 q0 170 107.5 275.5t279.5 105.5q174 0 278 -109l-102 -104q-57 57 -164 57q-90 0 -146.5 -62.5t-56.5 -163t56.5 -162.5t146.5 -62q107 0 164 57l102 -105q-100 -106 -280 -106q-172 0 -278.5 104.5t-106.5 274.5z" />
<glyph unicode="&#xaa;" horiz-adv-x="823" d="M78 922q0 106 92 171.5t238 65.5q39 0 124 -4v6q0 66 -38.5 99.5t-104.5 33.5q-119 0 -201 -49l-92 94q104 104 285 105q152 0 247 -79t95 -204v-444h-191v106q-74 -115 -219 -114q-104 0 -169.5 59t-65.5 154zM266 940q0 -37 33 -61.5t82 -24.5q68 0 109.5 51t41.5 127 q-37 18 -96 19q-76 0 -123 -31t-47 -80z" />
<glyph unicode="&#xab;" horiz-adv-x="1482" d="M127 563l461 465l162 -168l-299 -297l299 -297l-162 -168zM715 563l461 465l161 -168l-297 -297l297 -297l-161 -168z" />
<glyph unicode="&#xac;" horiz-adv-x="1296" d="M135 641v213h1024v-520h-270v307h-754z" />
<glyph unicode="&#xad;" horiz-adv-x="806" d="M135 487v213h535v-213h-535z" />
<glyph unicode="&#xae;" horiz-adv-x="917" d="M78 1075q0 166 105.5 270.5t275.5 104.5q168 0 274.5 -104.5t106.5 -270.5t-106.5 -270.5t-274.5 -104.5q-170 0 -275.5 104.5t-105.5 270.5zM184 1075q0 -127 78 -208t197 -81t194.5 81t75.5 208t-75.5 208t-194.5 81t-197 -81t-78 -208zM328 899v352h153q49 0 79 -29.5 t30 -76.5q0 -90 -86 -103l104 -143h-80l-100 141h-31v-141h-69zM397 1096h76q18 0 30.5 14t12.5 35q0 49 -43 49h-76v-98z" />
<glyph unicode="&#xaf;" horiz-adv-x="1034" d="M135 1262v172h764v-172h-764z" />
<glyph unicode="&#xb0;" horiz-adv-x="854" d="M78 1147q0 154 97 250t253 96q154 0 251 -96.5t97 -249.5q0 -152 -97 -247t-251 -95q-156 0 -253 95t-97 247zM303 1147q0 -61 36 -102t89 -41t89 40.5t36 102.5q0 63 -36 105t-89 42t-89 -42t-36 -105z" />
<glyph unicode="&#xb1;" horiz-adv-x="1163" d="M135 156v213h893v-213h-893zM135 809v213h332v342h229v-342h332v-213h-332v-340h-229v340h-332z" />
<glyph unicode="&#xb2;" horiz-adv-x="622" d="M84 1360q96 90 225 90q96 0 161 -53.5t65 -141.5q0 -59 -28 -120.5t-68 -106.5t-80 -81t-68 -54l-27 -21h283v-104h-447v104q12 8 33 22.5t72 58.5t91 86t72.5 98.5t32.5 103.5t-27.5 77t-78.5 30q-82 0 -141 -62z" />
<glyph unicode="&#xb3;" horiz-adv-x="636" d="M86 852l70 72q47 -59 151 -60q51 0 85 29t34 72q0 47 -32 76.5t-79 29.5h-51v98h53q41 0 66 22.5t25 59.5q0 39 -28 62.5t-73 23.5q-94 0 -141 -61l-70 74q82 92 221 92q98 0 160 -47t62 -123q0 -104 -111 -152q129 -47 129 -170q0 -84 -67 -137t-173 -53q-139 0 -231 92 z" />
<glyph unicode="&#xb4;" horiz-adv-x="647" d="M102 1237l297 299l164 -168l-360 -233z" />
<glyph unicode="&#xb5;" horiz-adv-x="1257" d="M135 -461v1485h273v-592q0 -104 58 -169.5t150 -65.5q96 0 163 78.5t71 179.5v569h272v-1024h-272v182q-123 -199 -348 -198q-70 0 -101 2v-447h-266z" />
<glyph unicode="&#xb6;" horiz-adv-x="1435" d="M80 1075.5q0 157.5 100.5 258t261.5 100.5h897v-236h-141v-1556h-270v1556h-215v-1556h-271v1075q-162 0 -262 100.5t-100 258z" />
<glyph unicode="&#xb7;" d="M135 467v295h273v-295h-273z" />
<glyph unicode="&#xb8;" horiz-adv-x="602" d="M100 -324l95 93q53 -49 90 -50q29 0 49 14.5t20 33t-20.5 37t-44 34t-44 57.5t-20.5 105h142q0 -55 20.5 -86t44 -40t44 -41t20.5 -87q0 -74 -57.5 -117t-145.5 -43q-107 0 -193 90z" />
<glyph unicode="&#xb9;" horiz-adv-x="552" d="M86 1288l231 146h132v-666h-132v528l-178 -102z" />
<glyph unicode="&#xba;" horiz-adv-x="909" d="M78 1075q0 164 104.5 266.5t272.5 102.5t272 -102.5t104 -266.5t-104 -266t-272 -102t-272.5 102t-104.5 266zM268 1075q0 -96 52.5 -157.5t134.5 -61.5q84 0 135 61.5t51 157.5t-51 157.5t-135 61.5q-82 0 -134.5 -61.5t-52.5 -157.5z" />
<glyph unicode="&#xbb;" horiz-adv-x="1480" d="M143 266l297 297l-297 297l162 168l461 -465l-461 -465zM731 266l299 297l-299 297l164 168l459 -465l-459 -465z" />
<glyph unicode="&#xbf;" horiz-adv-x="1083" d="M88 104q0 109 36 181.5t87 111.5t101 75t86 94.5t36 146.5h273q0 -127 -36 -214t-87.5 -128t-102.5 -73t-87 -76t-36 -109q0 -68 62.5 -119t165.5 -51q164 0 295 135l137 -144q-98 -104 -205.5 -155t-257.5 -51q-201 0 -334 102t-133 274zM434 883v295h273v-295h-273z " />
<glyph unicode="&#xc0;" horiz-adv-x="1767" d="M86 0l649 1434h299l647 -1434h-280l-148 319h-737l-145 -319h-285zM621 555h530l-268 578zM651 1778l164 168l299 -299l-100 -102z" />
<glyph unicode="&#xc1;" horiz-adv-x="1767" d="M86 0l649 1434h299l647 -1434h-280l-148 319h-737l-145 -319h-285zM621 555h530l-268 578zM651 1647l297 299l164 -168l-360 -233z" />
<glyph unicode="&#xc2;" horiz-adv-x="1767" d="M86 0l649 1434h299l647 -1434h-280l-148 319h-737l-145 -319h-285zM535 1702l348 244l346 -244l-131 -135l-215 156l-217 -156zM621 555h530l-268 578z" />
<glyph unicode="&#xc3;" horiz-adv-x="1767" d="M86 0l649 1434h299l647 -1434h-280l-148 319h-737l-145 -319h-285zM460 1749q139 150 283 150q59 0 159.5 -29.5t145.5 -29.5q78 0 144 57q55 -51 106 -107q-135 -150 -276 -149q-57 0 -157.5 30.5t-148.5 30.5q-81 0 -151 -59zM621 555h530l-268 578z" />
<glyph unicode="&#xc4;" horiz-adv-x="1767" d="M86 0l649 1434h299l647 -1434h-280l-148 319h-737l-145 -319h-285zM516 1614v230h273v-230h-273zM621 555h530l-268 578zM977 1614v230h270v-230h-270z" />
<glyph unicode="&#xc5;" horiz-adv-x="1767" d="M86 0l649 1434h299l647 -1434h-280l-148 319h-737l-145 -319h-285zM621 555h530l-268 578zM716 1782q0 76 46.5 122t117.5 46q74 0 120 -46t46 -122t-46 -123t-120 -47q-72 0 -118 47t-46 123zM809 1782q0 -72 71 -72q33 0 52.5 19.5t19.5 52.5t-19.5 51.5t-52.5 18.5 q-71 0 -71 -70z" />
<glyph unicode="&#xc6;" horiz-adv-x="1955" d="M86 0l649 1434h1073v-236h-632v-354h569v-236h-569v-372h653v-236h-944v319h-369l-145 -319h-285zM621 555h264v582z" />
<glyph unicode="&#xc7;" horiz-adv-x="1449" d="M78 717q0 326 208 529.5t537 203.5q326 0 543 -207l-168 -174q-123 145 -360 145q-209 0 -338 -139t-129 -360q0 -219 129 -357.5t338 -138.5q238 0 360 146l168 -175q-195 -195 -512 -206q2 -47 23.5 -74t44 -37t42 -41t19.5 -86q0 -74 -57.5 -117t-145.5 -43 q-106 0 -192 90l94 93q53 -49 90 -50q29 0 49.5 14.5t20.5 33t-19.5 37t-43 34t-44 55t-22.5 99.5q-287 33 -461 230.5t-174 494.5z" />
<glyph unicode="&#xc8;" horiz-adv-x="1308" d="M135 0v1434h1026v-236h-733v-354h670v-236h-670v-372h756v-236h-1049zM422 1778l164 168l299 -299l-101 -103z" />
<glyph unicode="&#xc9;" horiz-adv-x="1308" d="M135 0v1434h1026v-236h-733v-354h670v-236h-670v-372h756v-236h-1049zM424 1647l297 299l164 -168l-360 -233z" />
<glyph unicode="&#xca;" horiz-adv-x="1308" d="M135 0v1434h1026v-236h-733v-354h670v-236h-670v-372h756v-236h-1049zM305 1702l348 244l346 -244l-131 -135l-215 156l-217 -156z" />
<glyph unicode="&#xcb;" horiz-adv-x="1308" d="M135 0v1434h1026v-236h-733v-354h670v-236h-670v-372h756v-236h-1049zM287 1614v229h272v-229h-272zM748 1614v229h270v-229h-270z" />
<glyph unicode="&#xcc;" horiz-adv-x="563" d="M51 1778l164 168l299 -299l-100 -102zM135 0v1434h293v-1434h-293z" />
<glyph unicode="&#xcd;" horiz-adv-x="563" d="M53 1647l297 299l164 -168l-360 -233zM135 0v1434h293v-1434h-293z" />
<glyph unicode="&#xce;" horiz-adv-x="563" d="M-63 1702l348 244l346 -244l-131 -135l-215 156l-217 -156zM135 0v1434h293v-1434h-293z" />
<glyph unicode="&#xcf;" horiz-adv-x="563" d="M-82 1614v230h273v-230h-273zM135 0v1434h293v-1434h-293zM379 1614v230h270v-230h-270z" />
<glyph unicode="&#xd0;" horiz-adv-x="1746" d="M135 608v236h205v590h602q324 0 525.5 -199t201.5 -518.5t-201.5 -518t-525.5 -198.5h-602v608h-205zM633 236h309q190 0 313 135t123 346t-122.5 346t-313.5 135h-309v-354h395v-236h-395v-372z" />
<glyph unicode="&#xd1;" horiz-adv-x="1574" d="M135 0v1434h293l719 -977v977h293v-1434h-293l-719 977v-977h-293zM366 1749q139 150 283 150q59 0 159.5 -29.5t145.5 -29.5q78 0 144 57q55 -51 106 -107q-135 -150 -276 -149q-57 0 -157.5 30.5t-148.5 30.5q-81 0 -151 -59z" />
<glyph unicode="&#xd2;" horiz-adv-x="1644" d="M78 716.5q0 325.5 207 529.5t536.5 204t536.5 -204t207 -529.5t-207 -529t-536.5 -203.5t-536.5 203.5t-207 529zM371 717q0 -217 128 -357.5t322 -140.5q201 0 327 140.5t126 357.5t-126 357t-327 140q-195 0 -322.5 -140t-127.5 -357zM587 1778l164 168l299 -299 l-100 -102z" />
<glyph unicode="&#xd3;" horiz-adv-x="1644" d="M78 716.5q0 325.5 207 529.5t536.5 204t536.5 -204t207 -529.5t-207 -529t-536.5 -203.5t-536.5 203.5t-207 529zM371 717q0 -217 128 -357.5t322 -140.5q201 0 327 140.5t126 357.5t-126 357t-327 140q-195 0 -322.5 -140t-127.5 -357zM589 1647l297 299l164 -168 l-360 -233z" />
<glyph unicode="&#xd4;" horiz-adv-x="1644" d="M78 716.5q0 325.5 207 529.5t536.5 204t536.5 -204t207 -529.5t-207 -529t-536.5 -203.5t-536.5 203.5t-207 529zM371 717q0 -217 128 -357.5t322 -140.5q201 0 327 140.5t126 357.5t-126 357t-327 140q-195 0 -322.5 -140t-127.5 -357zM473 1702l348 244l346 -244 l-131 -135l-215 156l-217 -156z" />
<glyph unicode="&#xd5;" horiz-adv-x="1644" d="M78 716.5q0 325.5 207 529.5t536.5 204t536.5 -204t207 -529.5t-207 -529t-536.5 -203.5t-536.5 203.5t-207 529zM371 717q0 -217 128 -357.5t322 -140.5q201 0 327 140.5t126 357.5t-126 357t-327 140q-195 0 -322.5 -140t-127.5 -357zM401 1749q139 150 283 149 q57 0 157.5 -29.5t147.5 -29.5q78 0 144 57q55 -51 106 -106q-135 -150 -276 -150q-57 0 -157.5 31t-148.5 31q-81 -1 -151 -60z" />
<glyph unicode="&#xd6;" horiz-adv-x="1644" d="M78 716.5q0 325.5 207 529.5t536.5 204t536.5 -204t207 -529.5t-207 -529t-536.5 -203.5t-536.5 203.5t-207 529zM371 717q0 -217 128 -357.5t322 -140.5q201 0 327 140.5t126 357.5t-126 357t-327 140q-195 0 -322.5 -140t-127.5 -357zM454 1614v230h273v-230h-273z M915 1614v230h270v-230h-270z" />
<glyph unicode="&#xd7;" horiz-adv-x="1163" d="M141 463l277 274l-277 275l162 168l279 -275l276 275l162 -168l-277 -275l277 -274l-162 -168l-276 274l-279 -274z" />
<glyph unicode="&#xd8;" horiz-adv-x="1644" d="M78 717q0 326 207 529.5t536 203.5q141 0 264 -37l74 123h271l-136 -236q127 -98 199 -249.5t72 -333.5q0 -326 -207 -529.5t-537 -203.5q-145 0 -264 36l-72 -122h-270l133 235q-270 205 -270 584zM371 717q0 -203 114 -340l480 817q-61 20 -144 20q-195 0 -322.5 -140 t-127.5 -357zM680 238q63 -18 141 -19q201 0 327 140.5t126 357.5q0 207 -115 340z" />
<glyph unicode="&#xd9;" horiz-adv-x="1574" d="M135 637v797h293v-797q0 -188 99.5 -303t258.5 -115q164 0 262.5 115t98.5 303v797h291v-797q0 -311 -175.5 -482t-476.5 -171q-303 0 -477 171t-174 482zM553 1778l164 168l299 -299l-100 -102z" />
<glyph unicode="&#xda;" horiz-adv-x="1574" d="M135 637v797h293v-797q0 -188 99.5 -303t258.5 -115q164 0 262.5 115t98.5 303v797h291v-797q0 -311 -175.5 -482t-476.5 -171q-303 0 -477 171t-174 482zM555 1647l297 299l164 -168l-360 -233z" />
<glyph unicode="&#xdb;" horiz-adv-x="1574" d="M135 637v797h293v-797q0 -188 99.5 -303t258.5 -115q164 0 262.5 115t98.5 303v797h291v-797q0 -311 -175.5 -482t-476.5 -171q-303 0 -477 171t-174 482zM438 1702l348 244l346 -244l-131 -135l-215 156l-217 -156z" />
<glyph unicode="&#xdc;" horiz-adv-x="1574" d="M135 637v797h293v-797q0 -188 99.5 -303t258.5 -115q164 0 262.5 115t98.5 303v797h291v-797q0 -311 -175.5 -482t-476.5 -171q-303 0 -477 171t-174 482zM420 1614v230h273v-230h-273zM881 1614v230h270v-230h-270z" />
<glyph unicode="&#xdd;" horiz-adv-x="1560" d="M86 1434h297l395 -658l400 658h297l-549 -926v-508h-293v508zM548 1647l297 299l164 -168l-360 -233z" />
<glyph unicode="&#xde;" horiz-adv-x="1280" d="M135 0v1434h293v-224h295q213 0 346 -132t133 -343t-133 -342t-346 -131h-295v-262h-293zM428 498h264q96 0 156.5 66.5t60.5 171t-60.5 171t-156.5 66.5h-264v-475z" />
<glyph unicode="&#xdf;" horiz-adv-x="1380" d="M135 0v1067q0 195 120 314.5t314 119.5q193 0 320 -112.5t127 -276.5q0 -68 -29 -118t-63.5 -75.5t-63.5 -68.5t-29 -96q0 -55 48.5 -91t117 -60.5t137 -54.5t116.5 -89.5t48 -147.5q0 -143 -121.5 -235t-285.5 -92q-205 0 -359 149l138 141q82 -78 217 -77q55 0 98 31.5 t43 74.5t-48 73t-116.5 54.5t-138.5 57t-118 101t-48 165.5q0 63 28.5 121.5t64.5 94.5t64.5 78t28.5 74q0 76 -48 121t-117 45q-76 0 -124 -53t-48 -135v-1100h-273z" />
<glyph unicode="&#xe0;" horiz-adv-x="1124" d="M68 297q0 152 134 246t347 94q80 0 178 -10v28q0 80 -53 126t-139 46q-182 1 -293 -71l-131 135q168 150 405 149q215 0 348 -103t133 -269v-668h-270v152q-111 -162 -315 -162q-154 0 -249 85t-95 222zM309 1368l164 168l299 -299l-100 -102zM340 319q0 -53 46 -87.5 t118 -34.5q98 0 160.5 76.5t62.5 187.5q-68 18 -141 18q-109 0 -177.5 -46t-68.5 -114z" />
<glyph unicode="&#xe1;" horiz-adv-x="1124" d="M68 297q0 152 134 246t347 94q80 0 178 -10v28q0 80 -53 126t-139 46q-182 1 -293 -71l-131 135q168 150 407 149q213 0 347.5 -104.5t134.5 -267.5v-668h-273v152q-111 -162 -315 -162q-154 0 -249 85t-95 222zM311 1237l297 299l164 -168l-360 -233zM340 319 q0 -53 46 -87.5t118 -34.5q98 0 160.5 76.5t62.5 187.5q-68 18 -141 18q-109 0 -177.5 -46t-68.5 -114z" />
<glyph unicode="&#xe2;" horiz-adv-x="1124" d="M68 297q0 152 134 246t347 94q80 0 178 -10v28q0 80 -53 126t-139 46q-182 1 -293 -71l-131 135q168 150 407 149q213 0 347 -104.5t134 -267.5v-668h-272v152q-111 -162 -315 -162q-154 0 -249 85t-95 222zM193 1292l348 244l346 -244l-131 -135l-215 156l-217 -156z M340 319q0 -53 46 -87.5t118 -34.5q98 0 160.5 76.5t62.5 187.5q-68 18 -141 18q-109 0 -177.5 -46t-68.5 -114z" />
<glyph unicode="&#xe3;" horiz-adv-x="1124" d="M68 297q0 152 134 246t347 94q80 0 178 -10v28q0 80 -53 126t-139 46q-182 1 -293 -71l-131 135q168 150 407 149q213 0 347 -104.5t134 -267.5v-668h-272v152q-111 -162 -315 -162q-154 0 -249 85t-95 222zM127 1339q139 150 283 150q57 0 157.5 -29.5t147.5 -29.5 q78 0 143 57q55 -51 107 -107q-135 -150 -277 -149q-57 0 -157.5 30.5t-147.5 30.5q-82 0 -152 -59zM340 319q0 -53 46 -87.5t118 -34.5q98 0 160.5 76.5t62.5 187.5q-68 18 -141 18q-109 0 -177.5 -46t-68.5 -114z" />
<glyph unicode="&#xe4;" horiz-adv-x="1124" d="M68 297q0 152 134 246t347 94q80 0 178 -10v28q0 80 -53 126t-139 46q-182 1 -293 -71l-131 135q168 150 407 149q213 0 347.5 -104.5t134.5 -267.5v-668h-273v152q-111 -162 -315 -162q-154 0 -249 85t-95 222zM174 1204v230h273v-230h-273zM340 319q0 -53 46 -87.5 t118 -34.5q98 0 160.5 76.5t62.5 187.5q-68 18 -141 18q-109 0 -177.5 -46t-68.5 -114zM635 1204v230h270v-230h-270z" />
<glyph unicode="&#xe5;" horiz-adv-x="1124" d="M68 297q0 152 134 246t347 94q80 0 178 -10v28q0 80 -53 126t-139 46q-182 1 -293 -71l-131 135q168 150 407 149q213 0 347 -104.5t134 -267.5v-668h-272v152q-111 -162 -315 -162q-154 0 -249 85t-95 222zM340 319q0 -53 46 -87.5t118 -34.5q98 0 160.5 76.5 t62.5 187.5q-68 18 -141 18q-109 0 -177.5 -46t-68.5 -114zM375 1372q0 76 46 122t118 46q74 0 120 -46t46 -122t-46.5 -123t-119.5 -47q-72 0 -118 47t-46 123zM467 1372q0 -72 72 -72q33 0 52 19.5t19 52.5t-19.5 51.5t-51.5 18.5q-72 0 -72 -70z" />
<glyph unicode="&#xe6;" horiz-adv-x="1808" d="M78 295q0 152 132 245t341 93q57 0 176 -4v8q0 92 -50 141t-134 49q-170 0 -297 -73l-131 135q152 152 403 151q231 0 365 -122q139 123 348 122q221 0 358 -146t137 -384v-86h-729q18 -102 100.5 -164.5t200.5 -62.5q162 0 242 86l148 -152q-154 -147 -406 -147 q-262 0 -416 149q-133 -143 -409 -143q-168 0 -273.5 84t-105.5 221zM348 319q0 -53 46 -87.5t116 -34.5q94 0 155.5 74t61.5 180q-59 27 -139 26q-104 0 -172 -45t-68 -113zM1001 606h455q0 98 -63.5 158.5t-157.5 60.5q-90 0 -154 -59.5t-80 -159.5z" />
<glyph unicode="&#xe7;" horiz-adv-x="1060" d="M78 512q0 236 150.5 382t387.5 146q236 0 390 -149l-144 -148q-80 84 -227 84q-127 0 -206 -88t-79 -227t79 -227t206 -88q147 0 227 84l144 -148q-137 -139 -367 -149q2 -47 23.5 -74t44 -37t42 -41t19.5 -86q0 -74 -57.5 -117t-145.5 -43q-106 0 -192 90l94 93 q53 -49 90 -50q29 0 49.5 14.5t20.5 33t-19.5 37t-44 32.5t-45 55t-20.5 103q-193 35 -306.5 174t-113.5 344z" />
<glyph unicode="&#xe8;" horiz-adv-x="1165" d="M78 512q0 236 140 382t364 146q221 0 359 -147.5t138 -382.5v-86h-731q18 -102 101 -164.5t202 -62.5q160 0 242 86l145 -152q-152 -147 -405 -147q-246 0 -400.5 146t-154.5 382zM348 1368l164 168l299 -299l-100 -102zM352 606h455q0 98 -63.5 158.5t-157.5 60.5 q-90 0 -154 -59.5t-80 -159.5z" />
<glyph unicode="&#xe9;" horiz-adv-x="1165" d="M78 512q0 236 140 382t364 146q221 0 359 -147.5t138 -382.5v-86h-731q18 -102 101 -164.5t202 -62.5q160 0 242 86l145 -152q-152 -147 -405 -147q-246 0 -400.5 146t-154.5 382zM350 1237l297 299l164 -168l-360 -233zM352 606h455q0 98 -63.5 158.5t-157.5 60.5 q-90 0 -154 -59.5t-80 -159.5z" />
<glyph unicode="&#xea;" horiz-adv-x="1165" d="M78 512q0 236 140 382t364 146q221 0 359 -147.5t138 -382.5v-86h-731q18 -102 101 -164.5t202 -62.5q160 0 242 86l145 -152q-152 -147 -405 -147q-246 0 -400.5 146t-154.5 382zM234 1292l348 244l346 -244l-131 -135l-215 156l-217 -156zM352 606h455 q0 98 -63.5 158.5t-157.5 60.5q-90 0 -154 -59.5t-80 -159.5z" />
<glyph unicode="&#xeb;" horiz-adv-x="1165" d="M78 512q0 236 140 382t364 146q221 0 359 -147.5t138 -382.5v-86h-731q18 -102 101 -164.5t202 -62.5q160 0 242 86l145 -152q-152 -147 -405 -147q-246 0 -400.5 146t-154.5 382zM215 1204v230h272v-230h-272zM352 606h455q0 98 -63.5 158.5t-157.5 60.5 q-90 0 -154 -59.5t-80 -159.5zM676 1204v230h270v-230h-270z" />
<glyph unicode="&#xec;" d="M41 1368l164 168l299 -299l-100 -102zM135 0v1024h273v-1024h-273z" />
<glyph unicode="&#xed;" d="M43 1237l297 299l164 -168l-360 -233zM135 0v1024h273v-1024h-273z" />
<glyph unicode="&#xee;" d="M-76 1292l348 244l346 -244l-131 -135l-215 156l-217 -156zM135 0v1024h273v-1024h-273z" />
<glyph unicode="&#xef;" d="M-92 1204v230h273v-230h-273zM135 0v1024h273v-1024h-273zM369 1204v230h270v-230h-270z" />
<glyph unicode="&#xf0;" horiz-adv-x="1245" d="M127 512q0 231 117.5 376.5t304.5 145.5q227 0 348 -192q0 197 -143 325l-45 -63h-189l109 149q-80 41 -175.5 65.5t-150.5 29.5l-55 6l145 149q170 0 352 -80l48 62h186l-100 -139q287 -207 286 -629v-205q0 -236 -143 -382t-371 -146q-233 0 -378.5 146t-145.5 382z M397 508q0 -135 70 -223t180 -88q109 0 178.5 88t69.5 223q0 137 -69.5 224t-178.5 87q-111 0 -180.5 -87t-69.5 -224z" />
<glyph unicode="&#xf1;" horiz-adv-x="1257" d="M135 0v1024h273v-188q55 94 145 149t203 55q164 0 265 -113.5t101 -293.5v-633h-272v590q0 106 -58.5 171.5t-150.5 65.5q-98 0 -163.5 -79.5t-69.5 -180.5v-567h-273zM206 1339q139 150 283 150q59 0 159.5 -29.5t145.5 -29.5q78 0 144 57q55 -51 106 -107 q-135 -150 -276 -149q-57 0 -157.5 30.5t-148.5 30.5q-81 0 -151 -59z" />
<glyph unicode="&#xf2;" horiz-adv-x="1234" d="M78 512q0 236 150.5 382t390 146t389 -146t149.5 -382t-149.5 -382t-389 -146t-390 146t-150.5 382zM350 512q0 -137 76 -226t192 -89q119 0 194 89t75 226t-75 226t-194 89q-117 0 -192.5 -89t-75.5 -226zM385 1368l164 168l299 -299l-100 -102z" />
<glyph unicode="&#xf3;" horiz-adv-x="1234" d="M78 512q0 236 150.5 382t390 146t389 -146t149.5 -382t-149.5 -382t-389 -146t-390 146t-150.5 382zM350 512q0 -137 76 -226t192 -89q119 0 194 89t75 226t-75 226t-194 89q-117 0 -192.5 -89t-75.5 -226zM385 1237l297 299l164 -168l-360 -233z" />
<glyph unicode="&#xf4;" horiz-adv-x="1234" d="M78 512q0 236 150.5 382t390 146t389 -146t149.5 -382t-149.5 -382t-389 -146t-390 146t-150.5 382zM271 1292l348 244l346 -244l-131 -135l-215 156l-217 -156zM350 512q0 -137 76 -226t192 -89q119 0 194 89t75 226t-75 226t-194 89q-117 0 -192.5 -89t-75.5 -226z" />
<glyph unicode="&#xf5;" horiz-adv-x="1234" d="M78 512q0 236 150.5 382t390 146t389 -146t149.5 -382t-149.5 -382t-389 -146t-390 146t-150.5 382zM194 1339q139 150 283 150q59 0 159.5 -29.5t145.5 -29.5q78 0 144 57q55 -51 106 -107q-135 -150 -276 -149q-57 0 -157.5 30.5t-148.5 30.5q-81 0 -151 -59zM350 512 q0 -137 76 -226t192 -89q119 0 194 89t75 226t-75 226t-194 89q-117 0 -192.5 -89t-75.5 -226z" />
<glyph unicode="&#xf6;" horiz-adv-x="1234" d="M78 512q0 236 150.5 382t390 146t389 -146t149.5 -382t-149.5 -382t-389 -146t-390 146t-150.5 382zM250 1204v230h273v-230h-273zM350 512q0 -137 76 -226t192 -89q119 0 194 89t75 226t-75 226t-194 89q-117 0 -192.5 -89t-75.5 -226zM711 1204v230h270v-230h-270z" />
<glyph unicode="&#xf7;" horiz-adv-x="1163" d="M135 631v213h893v-213h-893zM446 252v262h271v-262h-271zM446 961v262h271v-262h-271z" />
<glyph unicode="&#xf8;" horiz-adv-x="1234" d="M78 512q0 236 150.5 382t389.5 146q100 0 177 -22l63 108h229l-116 -202q186 -147 186 -412q0 -236 -149.5 -382t-389.5 -146q-104 0 -178 22l-61 -108h-229l114 200q-186 147 -186 414zM350 512q0 -106 43 -180l289 487q-37 8 -64 8q-117 0 -192.5 -89t-75.5 -226z M551 203q35 -6 67 -6q119 0 194 89t75 226q0 96 -47 180z" />
<glyph unicode="&#xf9;" horiz-adv-x="1257" d="M135 387v637h273v-592q0 -104 58 -169.5t150 -65.5q96 0 163 79.5t71 178.5v569h272v-1024h-272v186q-57 -94 -147.5 -148t-200.5 -54q-162 0 -264.5 112.5t-102.5 290.5zM397 1368l164 168l299 -299l-100 -102z" />
<glyph unicode="&#xfa;" horiz-adv-x="1257" d="M135 387v637h273v-592q0 -104 58 -169.5t150 -65.5q96 0 163 79.5t71 178.5v569h272v-1024h-272v186q-57 -94 -147.5 -148t-200.5 -54q-162 0 -264.5 112.5t-102.5 290.5zM397 1237l297 299l164 -168l-360 -233z" />
<glyph unicode="&#xfb;" horiz-adv-x="1257" d="M135 387v637h273v-592q0 -104 58 -169.5t150 -65.5q96 0 163 79.5t71 178.5v569h272v-1024h-272v186q-57 -94 -147.5 -148t-200.5 -54q-162 0 -264.5 112.5t-102.5 290.5zM281 1292l348 244l346 -244l-131 -135l-215 156l-217 -156z" />
<glyph unicode="&#xfc;" horiz-adv-x="1257" d="M135 387v637h273v-592q0 -104 58 -169.5t150 -65.5q100 0 167 84t67 184v559h272v-1024h-272v186q-57 -94 -147.5 -148t-200.5 -54q-162 0 -264.5 112.5t-102.5 290.5zM260 1204v230h272v-230h-272zM721 1204v230h270v-230h-270z" />
<glyph unicode="&#xfd;" horiz-adv-x="1310" d="M57 -369l133 138q39 -33 132 -33q86 0 161 174l39 90l-436 1024h258l307 -715l314 715h262l-525 -1200q-131 -301 -360 -301q-176 0 -285 108zM424 1237l297 299l164 -168l-360 -233z" />
<glyph unicode="&#xfe;" horiz-adv-x="1226" d="M135 -461v1946h271v-649q53 90 140 144t193 54q180 0 293 -145.5t113 -376.5q0 -233 -140.5 -377.5t-365.5 -144.5q-129 0 -233 47v-498h-271zM406 236q98 -33 204 -33q117 0 190.5 86t73.5 223t-68.5 222t-176.5 85q-94 0 -158.5 -71.5t-64.5 -157.5v-354z" />
<glyph unicode="&#xff;" horiz-adv-x="1310" d="M57 -369l133 138q39 -33 132 -33q86 0 161 174l39 90l-436 1024h258l307 -715l314 715h262l-525 -1200q-131 -301 -360 -301q-176 0 -285 108zM287 1204v230h273v-230h-273zM748 1204v230h270v-230h-270z" />
<glyph unicode="&#x152;" horiz-adv-x="2447" d="M78 717q0 326 205.5 529.5t535.5 203.5q268 0 463 -127v111h1016v-238h-733v-352h669v-236h-669v-372h753v-236h-1036v106q-188 -123 -463 -122q-330 0 -535.5 202.5t-205.5 530.5zM369 717q0 -215 128 -356.5t322 -141.5q201 0 327 140.5t126 357.5t-126 356t-327 139 q-195 0 -322.5 -140t-127.5 -355z" />
<glyph unicode="&#x153;" horiz-adv-x="1966" d="M78 512q0 236 149.5 382t388.5 146q246 0 400 -147q143 147 375 147q221 0 358 -146t137 -384v-86h-729q18 -102 100 -164.5t201 -62.5q160 0 242 86l145 -152q-152 -147 -403 -147q-262 0 -420 153q-150 -154 -406 -153q-240 0 -389 146t-149 382zM348 512 q0 -137 76 -226t192 -89q119 0 194 86t75 229q0 137 -75 225t-194 88q-117 0 -192.5 -88t-75.5 -225zM1161 606h455q0 98 -63.5 158.5t-157.5 60.5q-90 0 -154 -59.5t-80 -159.5z" />
<glyph unicode="&#x178;" horiz-adv-x="1560" d="M86 1434h297l395 -658l400 658h297l-549 -926v-508h-293v508zM412 1614v229h272v-229h-272zM872 1614v229h271v-229h-271z" />
<glyph unicode="&#x2c6;" horiz-adv-x="845" d="M76 1292l348 244l346 -244l-131 -135l-215 156l-217 -156z" />
<glyph unicode="&#x2dc;" horiz-adv-x="1036" d="M104 1339q139 150 283 150q59 0 159.5 -29.5t145.5 -29.5q78 0 144 57q55 -51 106 -107q-135 -150 -276 -149q-57 0 -157.5 30.5t-148.5 30.5q-81 0 -151 -59z" />
<glyph unicode="&#x2000;" horiz-adv-x="975" />
<glyph unicode="&#x2001;" horiz-adv-x="1950" />
<glyph unicode="&#x2002;" horiz-adv-x="975" />
<glyph unicode="&#x2003;" horiz-adv-x="1950" />
<glyph unicode="&#x2004;" horiz-adv-x="650" />
<glyph unicode="&#x2005;" horiz-adv-x="487" />
<glyph unicode="&#x2006;" horiz-adv-x="325" />
<glyph unicode="&#x2007;" horiz-adv-x="325" />
<glyph unicode="&#x2008;" horiz-adv-x="243" />
<glyph unicode="&#x2009;" horiz-adv-x="390" />
<glyph unicode="&#x200a;" horiz-adv-x="108" />
<glyph unicode="&#x2010;" horiz-adv-x="806" d="M135 487v213h535v-213h-535z" />
<glyph unicode="&#x2011;" horiz-adv-x="806" d="M135 487v213h535v-213h-535z" />
<glyph unicode="&#x2012;" horiz-adv-x="806" d="M135 487v213h535v-213h-535z" />
<glyph unicode="&#x2013;" horiz-adv-x="1296" d="M135 487v213h1024v-213h-1024z" />
<glyph unicode="&#x2014;" horiz-adv-x="2056" d="M135 487v213h1786v-213h-1786z" />
<glyph unicode="&#x2018;" horiz-adv-x="667" d="M135 805q0 141 54.5 273t115 208t156.5 176l108 -112q-162 -168 -161 -545h-273z" />
<glyph unicode="&#x2019;" horiz-adv-x="667" d="M98 889q162 164 162 543h270q0 -141 -53 -271.5t-114.5 -208.5t-157.5 -176z" />
<glyph unicode="&#x201a;" d="M-27 -250q162 168 162 545h273q0 -141 -54.5 -273.5t-115 -208t-156.5 -175.5z" />
<glyph unicode="&#x201c;" horiz-adv-x="1183" d="M135 805q0 141 54.5 273t115 208t156.5 176l108 -112q-162 -168 -161 -545h-273zM653 805q0 141 53.5 272t115 209t157.5 176l108 -112q-164 -166 -163 -545h-271z" />
<glyph unicode="&#x201d;" horiz-adv-x="1183" d="M98 889q162 164 162 543h270q0 -141 -53 -271.5t-114.5 -208.5t-157.5 -176zM614 889q164 164 164 543h271q0 -141 -53.5 -271.5t-115 -208.5t-157.5 -176z" />
<glyph unicode="&#x201e;" horiz-adv-x="1060" d="M-27 -250q162 168 162 545h273q0 -141 -54.5 -273.5t-115 -208t-156.5 -175.5zM489 -250q164 166 164 545h271q0 -141 -53.5 -272.5t-115 -209t-157.5 -175.5z" />
<glyph unicode="&#x2022;" horiz-adv-x="638" d="M78 659q0 104 69.5 175t176.5 71q104 0 168.5 -69.5t64.5 -176.5q0 -102 -64.5 -169.5t-168.5 -67.5q-106 0 -176 67.5t-70 169.5z" />
<glyph unicode="&#x2026;" horiz-adv-x="1572" d="M135 0v295h273v-295h-273zM651 0v295h271v-295h-271zM1167 0v295h271v-295h-271z" />
<glyph unicode="&#x202f;" horiz-adv-x="390" />
<glyph unicode="&#x2039;" horiz-adv-x="892" d="M127 563l461 465l162 -168l-299 -297l299 -297l-162 -168z" />
<glyph unicode="&#x203a;" horiz-adv-x="892" d="M143 266l297 297l-297 297l162 168l461 -465l-461 -465z" />
<glyph unicode="&#x205f;" horiz-adv-x="487" />
<glyph unicode="&#x20ac;" horiz-adv-x="1630" d="M104 434v197h158q-4 53 -4 80q0 33 4 90h-158v198h199q80 209 264.5 330t433.5 121q326 0 545 -207l-170 -174q-119 143 -360 143q-131 0 -234.5 -56t-165.5 -157h533v-198h-594q-6 -43 -6 -88q0 -41 6 -82h594v-197h-533q59 -102 163 -158.5t237 -56.5q242 0 360 143 l170 -174q-205 -205 -547 -204q-252 0 -435 119.5t-261 330.5h-199z" />
<glyph unicode="&#x2122;" horiz-adv-x="1894" d="M106 1284v150h689v-150h-250v-567h-191v567h-248zM895 717v717h217l231 -420l232 420h219v-717h-188v438l-209 -438h-103l-211 438v-438h-188z" />
<glyph unicode="&#x25fc;" horiz-adv-x="1024" d="M0 0v1024h1024v-1024h-1024z" />
</font>
</defs>
</svg>
